M48
;Layer_Color=9474304
;FILE_FORMAT=2:5
INCH,LZ
;TYPE=PLATED
T1F00S00C0.00787
T2F00S00C0.01000
T3F00S00C0.01500
T4F00S00C0.03543
T5F00S00C0.10000
;TYPE=NON_PLATED
T6F00S00C0.05000
%
T01
X0072811Y0054358
Y0058689
X0077142
Y0054358
T02
X0064476Y0044024
X0096476Y0040524
X0082476Y0068524
T03
X0045Y003
X00475
X005
X00525
X0055
X00575
X006
X00625
X0065
X00675Y00275
X007Y0025
X00725Y00225
X0075Y002
X01025
X0105
Y00225
X01075
Y0025
X011
Y00275
X01125
Y003
X0115
X01175
X012
X01225
X0125
X01275
X013
X01325
X0135
X01375
Y00325
X014
X0135
X01325
X013
X01275
X0125
X01225
X012
X01175
X0115
X00625
X006
X00575
X0055
X00525
X005
X00475
X0045
T04
X0035476Y0009524
Y0019524
Y0029524
X0146976
Y0019524
Y0009524
Y0039524
X0035476
Y0056524
Y0066524
Y0076524
Y0086524
T05
X002Y0015
X016Y0025
Y008
X002Y007
T06
X0161Y00075
Y00415
X0021476Y0054524
Y0089024
M30
