G04 Layer_Color=8388736*
%FSLAX25Y25*%
%MOIN*%
G70*
G01*
G75*
%ADD21C,0.01000*%
%ADD45R,0.04343X0.03950*%
%ADD46R,0.04343X0.03556*%
%ADD47O,0.04343X0.01587*%
%ADD48O,0.01587X0.04343*%
%ADD49R,0.08871X0.08871*%
%ADD50R,0.03556X0.04343*%
%ADD51R,0.03950X0.04343*%
%ADD52C,0.01981*%
%ADD53R,0.10839X0.14186*%
%ADD54R,0.03950X0.03950*%
%ADD55C,0.10800*%
%ADD56R,0.15800X0.10800*%
%ADD57C,0.06706*%
%ADD58R,0.06706X0.06706*%
%ADD59C,0.03100*%
%ADD60C,0.02800*%
%ADD61C,0.02769*%
D21*
X29500Y0D02*
X140500D01*
X170500D01*
Y48000D01*
Y95500D01*
X12500D02*
X170500D01*
X12500Y29500D02*
Y95500D01*
Y0D02*
X29500D01*
X12500D02*
Y29500D01*
D45*
X50476Y62279D02*
D03*
Y56768D02*
D03*
X56476Y62279D02*
D03*
Y56768D02*
D03*
X86976Y45779D02*
D03*
Y40268D02*
D03*
X85976Y34780D02*
D03*
Y29268D02*
D03*
X139000Y62244D02*
D03*
Y67756D02*
D03*
D46*
X56476Y50476D02*
D03*
Y44571D02*
D03*
X80476Y42476D02*
D03*
Y36571D02*
D03*
X20000Y33953D02*
D03*
Y28047D02*
D03*
X157000Y62047D02*
D03*
Y67953D02*
D03*
D47*
X82063Y60461D02*
D03*
Y58492D02*
D03*
Y56524D02*
D03*
Y54555D02*
D03*
Y52587D02*
D03*
X67890D02*
D03*
Y54555D02*
D03*
Y56524D02*
D03*
Y58492D02*
D03*
Y60461D02*
D03*
D48*
X77929Y49437D02*
D03*
X75961D02*
D03*
X73992D02*
D03*
X72024D02*
D03*
Y63610D02*
D03*
X73992D02*
D03*
X75961D02*
D03*
X77929D02*
D03*
D49*
X74976Y56524D02*
D03*
D50*
X74929Y75524D02*
D03*
X69024D02*
D03*
X93524Y45024D02*
D03*
X99429D02*
D03*
X115453Y40000D02*
D03*
X109547D02*
D03*
X126953D02*
D03*
X121047D02*
D03*
D51*
X95232Y68024D02*
D03*
X89720D02*
D03*
D52*
X79203Y46494D02*
D03*
X113000Y35244D02*
D03*
X85000Y68197D02*
D03*
X90500Y49197D02*
D03*
X148000Y53197D02*
D03*
X44000Y50197D02*
D03*
D53*
X129606Y57500D02*
D03*
X105394D02*
D03*
D54*
X157000Y50752D02*
D03*
Y57248D02*
D03*
X20000Y45248D02*
D03*
Y38752D02*
D03*
D55*
X160000Y25000D02*
D03*
X20000Y70000D02*
D03*
Y15000D02*
D03*
X160000Y80000D02*
D03*
D56*
X161000Y41500D02*
D03*
Y7500D02*
D03*
X21476Y54524D02*
D03*
Y89024D02*
D03*
D57*
X35476Y86524D02*
D03*
Y76524D02*
D03*
Y66524D02*
D03*
X146976Y9524D02*
D03*
Y19524D02*
D03*
Y29524D02*
D03*
X35476Y9524D02*
D03*
Y29524D02*
D03*
Y19524D02*
D03*
D58*
Y56524D02*
D03*
X146976Y39524D02*
D03*
X35476D02*
D03*
D59*
X140000Y32500D02*
D03*
X137500D02*
D03*
Y30000D02*
D03*
X135000Y32500D02*
D03*
Y30000D02*
D03*
X132500Y32500D02*
D03*
Y30000D02*
D03*
X130000Y32500D02*
D03*
Y30000D02*
D03*
X127500Y32500D02*
D03*
Y30000D02*
D03*
X125000Y32500D02*
D03*
Y30000D02*
D03*
X122500Y32500D02*
D03*
Y30000D02*
D03*
X120000Y32500D02*
D03*
Y30000D02*
D03*
X117500Y32500D02*
D03*
Y30000D02*
D03*
X115000Y32500D02*
D03*
Y30000D02*
D03*
X112500D02*
D03*
Y27500D02*
D03*
X110000D02*
D03*
Y25000D02*
D03*
X107500D02*
D03*
Y22500D02*
D03*
X105000D02*
D03*
Y20000D02*
D03*
X102500D02*
D03*
X75000D02*
D03*
X72500Y22500D02*
D03*
X70000Y25000D02*
D03*
X67500Y27500D02*
D03*
X65000Y30000D02*
D03*
X62500Y32500D02*
D03*
Y30000D02*
D03*
X60000Y32500D02*
D03*
Y30000D02*
D03*
X57500Y32500D02*
D03*
Y30000D02*
D03*
X55000Y32500D02*
D03*
Y30000D02*
D03*
X52500Y32500D02*
D03*
Y30000D02*
D03*
X50000Y32500D02*
D03*
Y30000D02*
D03*
X47500Y32500D02*
D03*
Y30000D02*
D03*
X45000Y32500D02*
D03*
Y30000D02*
D03*
D60*
X82476Y68524D02*
D03*
X96476Y40524D02*
D03*
X64476Y44024D02*
D03*
D61*
X72811Y54358D02*
D03*
Y58689D02*
D03*
X77142Y54358D02*
D03*
Y58689D02*
D03*
M02*
