G04 Layer_Color=8421504*
%FSLAX25Y25*%
%MOIN*%
G70*
G01*
G75*
%ADD10R,0.03543X0.03150*%
%ADD11R,0.03543X0.02756*%
%ADD12O,0.03543X0.00787*%
%ADD13O,0.00787X0.03543*%
%ADD14R,0.08071X0.08071*%
%ADD15R,0.02756X0.03543*%
%ADD16R,0.03150X0.03543*%
%ADD18R,0.10039X0.13386*%
%ADD19R,0.03150X0.03150*%
%ADD21C,0.01000*%
D10*
X50476Y62279D02*
D03*
Y56768D02*
D03*
X56476Y62279D02*
D03*
Y56768D02*
D03*
X86976Y45779D02*
D03*
Y40268D02*
D03*
X85976Y34780D02*
D03*
Y29268D02*
D03*
X139000Y62244D02*
D03*
Y67756D02*
D03*
D11*
X56476Y50476D02*
D03*
Y44571D02*
D03*
X80476Y42476D02*
D03*
Y36571D02*
D03*
X20000Y33953D02*
D03*
Y28047D02*
D03*
X157000Y62047D02*
D03*
Y67953D02*
D03*
D12*
X82063Y60461D02*
D03*
Y58492D02*
D03*
Y56524D02*
D03*
Y54555D02*
D03*
Y52587D02*
D03*
X67890D02*
D03*
Y54555D02*
D03*
Y56524D02*
D03*
Y58492D02*
D03*
Y60461D02*
D03*
D13*
X77929Y49437D02*
D03*
X75961D02*
D03*
X73992D02*
D03*
X72024D02*
D03*
Y63610D02*
D03*
X73992D02*
D03*
X75961D02*
D03*
X77929D02*
D03*
D14*
X74976Y56524D02*
D03*
D15*
X74929Y75524D02*
D03*
X69024D02*
D03*
X93524Y45024D02*
D03*
X99429D02*
D03*
X115453Y40000D02*
D03*
X109547D02*
D03*
X126953D02*
D03*
X121047D02*
D03*
D16*
X95232Y68024D02*
D03*
X89720D02*
D03*
D18*
X129606Y57500D02*
D03*
X105394D02*
D03*
D19*
X157000Y50752D02*
D03*
Y57248D02*
D03*
X20000Y45248D02*
D03*
Y38752D02*
D03*
D21*
X29500Y0D02*
X140500D01*
X170500D01*
Y48000D01*
Y95500D01*
X12500D02*
X170500D01*
X12500Y29500D02*
Y95500D01*
Y0D02*
X29500D01*
X12500D02*
Y29500D01*
M02*
