G04 Layer_Color=32896*
%FSLAX25Y25*%
%MOIN*%
G70*
G01*
G75*
%ADD21C,0.01000*%
G36*
X63365Y87000D02*
X62752D01*
Y90194D01*
X63365D01*
Y87000D01*
D02*
G37*
G36*
X44764D02*
X44152D01*
Y89316D01*
X44764D01*
Y87000D01*
D02*
G37*
G36*
X74777D02*
X74165D01*
Y89316D01*
X74777D01*
Y87000D01*
D02*
G37*
G36*
X52468Y87848D02*
Y87789D01*
X52465Y87731D01*
X52459Y87679D01*
X52454Y87629D01*
X52448Y87585D01*
X52443Y87543D01*
X52434Y87504D01*
X52426Y87468D01*
X52421Y87438D01*
X52412Y87410D01*
X52407Y87388D01*
X52398Y87368D01*
X52395Y87355D01*
X52390Y87344D01*
X52387Y87338D01*
Y87335D01*
X52351Y87271D01*
X52310Y87213D01*
X52265Y87163D01*
X52221Y87125D01*
X52182Y87091D01*
X52149Y87069D01*
X52135Y87061D01*
X52127Y87055D01*
X52121Y87050D01*
X52118D01*
X52047Y87017D01*
X51974Y86992D01*
X51905Y86972D01*
X51839Y86961D01*
X51811Y86956D01*
X51783Y86953D01*
X51758Y86950D01*
X51739D01*
X51722Y86947D01*
X51700D01*
X51614Y86953D01*
X51534Y86964D01*
X51462Y86981D01*
X51396Y87000D01*
X51368Y87011D01*
X51343Y87019D01*
X51321Y87028D01*
X51301Y87036D01*
X51285Y87044D01*
X51274Y87047D01*
X51268Y87053D01*
X51265D01*
X51191Y87097D01*
X51124Y87144D01*
X51069Y87194D01*
X51019Y87241D01*
X50980Y87283D01*
X50966Y87299D01*
X50952Y87316D01*
X50944Y87330D01*
X50936Y87338D01*
X50933Y87344D01*
X50930Y87346D01*
Y87000D01*
X50362D01*
Y89316D01*
X50975D01*
Y88338D01*
Y88249D01*
X50977Y88169D01*
X50980Y88097D01*
X50983Y88030D01*
X50986Y87975D01*
X50988Y87922D01*
X50994Y87878D01*
X50997Y87839D01*
X51002Y87809D01*
X51008Y87781D01*
X51011Y87759D01*
X51013Y87742D01*
X51016Y87729D01*
X51019Y87720D01*
X51022Y87717D01*
Y87715D01*
X51044Y87670D01*
X51069Y87629D01*
X51096Y87590D01*
X51124Y87559D01*
X51152Y87535D01*
X51174Y87518D01*
X51188Y87504D01*
X51191Y87501D01*
X51193D01*
X51240Y87474D01*
X51288Y87451D01*
X51335Y87438D01*
X51379Y87427D01*
X51418Y87421D01*
X51445Y87418D01*
X51456Y87415D01*
X51473D01*
X51523Y87418D01*
X51567Y87427D01*
X51606Y87435D01*
X51639Y87449D01*
X51664Y87460D01*
X51684Y87468D01*
X51695Y87476D01*
X51700Y87479D01*
X51731Y87504D01*
X51756Y87532D01*
X51778Y87562D01*
X51794Y87590D01*
X51806Y87612D01*
X51817Y87634D01*
X51819Y87645D01*
X51822Y87651D01*
X51828Y87676D01*
X51833Y87709D01*
X51839Y87748D01*
X51841Y87792D01*
X51844Y87839D01*
X51847Y87889D01*
X51850Y87994D01*
X51853Y88044D01*
Y88091D01*
X51855Y88136D01*
Y88174D01*
Y88205D01*
Y88230D01*
Y88247D01*
Y88252D01*
Y89316D01*
X52468D01*
Y87848D01*
D02*
G37*
G36*
X65052Y89363D02*
X65132Y89352D01*
X65210Y89335D01*
X65279Y89316D01*
X65348Y89291D01*
X65409Y89263D01*
X65467Y89233D01*
X65520Y89202D01*
X65567Y89172D01*
X65608Y89141D01*
X65644Y89113D01*
X65672Y89089D01*
X65697Y89069D01*
X65714Y89053D01*
X65725Y89042D01*
X65728Y89039D01*
X65780Y88975D01*
X65827Y88906D01*
X65866Y88834D01*
X65899Y88759D01*
X65930Y88684D01*
X65955Y88609D01*
X65974Y88537D01*
X65988Y88465D01*
X66002Y88399D01*
X66010Y88338D01*
X66018Y88283D01*
X66021Y88233D01*
X66024Y88194D01*
X66027Y88163D01*
Y88152D01*
Y88144D01*
Y88141D01*
Y88139D01*
X66024Y88050D01*
X66016Y87967D01*
X66005Y87886D01*
X65991Y87812D01*
X65974Y87740D01*
X65955Y87673D01*
X65935Y87615D01*
X65913Y87559D01*
X65891Y87510D01*
X65872Y87465D01*
X65852Y87429D01*
X65836Y87399D01*
X65822Y87374D01*
X65808Y87355D01*
X65802Y87344D01*
X65799Y87341D01*
X65741Y87271D01*
X65678Y87211D01*
X65608Y87158D01*
X65536Y87114D01*
X65464Y87075D01*
X65390Y87044D01*
X65315Y87017D01*
X65246Y86997D01*
X65176Y86981D01*
X65113Y86970D01*
X65057Y86958D01*
X65007Y86953D01*
X64966Y86950D01*
X64949D01*
X64933Y86947D01*
X64908D01*
X64838Y86950D01*
X64772Y86956D01*
X64708Y86964D01*
X64647Y86975D01*
X64592Y86989D01*
X64539Y87003D01*
X64492Y87019D01*
X64448Y87036D01*
X64409Y87050D01*
X64373Y87067D01*
X64342Y87080D01*
X64318Y87094D01*
X64298Y87105D01*
X64284Y87114D01*
X64276Y87119D01*
X64273Y87122D01*
X64226Y87155D01*
X64185Y87194D01*
X64143Y87233D01*
X64107Y87277D01*
X64074Y87319D01*
X64043Y87360D01*
X64016Y87402D01*
X63991Y87443D01*
X63969Y87482D01*
X63949Y87518D01*
X63935Y87551D01*
X63921Y87579D01*
X63913Y87601D01*
X63905Y87621D01*
X63899Y87632D01*
Y87634D01*
X64509Y87737D01*
X64531Y87676D01*
X64553Y87623D01*
X64578Y87579D01*
X64603Y87543D01*
X64625Y87515D01*
X64642Y87496D01*
X64653Y87485D01*
X64658Y87482D01*
X64697Y87457D01*
X64736Y87438D01*
X64777Y87424D01*
X64816Y87415D01*
X64849Y87410D01*
X64874Y87404D01*
X64899D01*
X64938Y87407D01*
X64974Y87410D01*
X65043Y87427D01*
X65104Y87451D01*
X65154Y87479D01*
X65196Y87507D01*
X65212Y87521D01*
X65226Y87532D01*
X65237Y87540D01*
X65246Y87549D01*
X65248Y87551D01*
X65251Y87554D01*
X65276Y87585D01*
X65298Y87615D01*
X65318Y87651D01*
X65334Y87684D01*
X65359Y87756D01*
X65378Y87826D01*
X65384Y87856D01*
X65390Y87886D01*
X65392Y87911D01*
X65395Y87936D01*
Y87956D01*
X65398Y87969D01*
Y87978D01*
Y87981D01*
X63866D01*
Y88108D01*
X63874Y88227D01*
X63888Y88338D01*
X63908Y88440D01*
X63927Y88532D01*
X63952Y88618D01*
X63980Y88695D01*
X64005Y88765D01*
X64032Y88825D01*
X64060Y88878D01*
X64085Y88922D01*
X64107Y88958D01*
X64126Y88986D01*
X64140Y89006D01*
X64151Y89019D01*
X64154Y89022D01*
X64212Y89083D01*
X64273Y89136D01*
X64340Y89183D01*
X64406Y89222D01*
X64476Y89255D01*
X64542Y89283D01*
X64609Y89305D01*
X64672Y89324D01*
X64733Y89338D01*
X64789Y89346D01*
X64838Y89354D01*
X64883Y89360D01*
X64919Y89363D01*
X64946Y89366D01*
X64969D01*
X65052Y89363D01*
D02*
G37*
G36*
X48977D02*
X49060Y89357D01*
X49138Y89346D01*
X49210Y89332D01*
X49277Y89319D01*
X49337Y89302D01*
X49393Y89283D01*
X49440Y89263D01*
X49484Y89244D01*
X49520Y89224D01*
X49553Y89208D01*
X49578Y89194D01*
X49598Y89180D01*
X49612Y89169D01*
X49620Y89163D01*
X49623Y89161D01*
X49664Y89122D01*
X49700Y89080D01*
X49731Y89039D01*
X49758Y88994D01*
X49781Y88953D01*
X49800Y88911D01*
X49817Y88870D01*
X49828Y88831D01*
X49839Y88795D01*
X49844Y88759D01*
X49850Y88731D01*
X49855Y88704D01*
Y88684D01*
X49858Y88668D01*
Y88657D01*
Y88654D01*
X49855Y88593D01*
X49847Y88537D01*
X49833Y88482D01*
X49817Y88432D01*
X49795Y88385D01*
X49772Y88343D01*
X49747Y88305D01*
X49722Y88269D01*
X49698Y88238D01*
X49673Y88210D01*
X49650Y88186D01*
X49628Y88169D01*
X49612Y88152D01*
X49598Y88141D01*
X49589Y88136D01*
X49587Y88133D01*
X49567Y88122D01*
X49542Y88108D01*
X49490Y88083D01*
X49426Y88055D01*
X49357Y88030D01*
X49279Y88006D01*
X49202Y87981D01*
X49041Y87936D01*
X48966Y87914D01*
X48891Y87895D01*
X48825Y87878D01*
X48767Y87864D01*
X48739Y87859D01*
X48717Y87853D01*
X48698Y87848D01*
X48681Y87845D01*
X48667Y87842D01*
X48656Y87839D01*
X48651Y87836D01*
X48648D01*
X48592Y87823D01*
X48548Y87809D01*
X48515Y87795D01*
X48487Y87781D01*
X48465Y87773D01*
X48454Y87765D01*
X48445Y87759D01*
X48443Y87756D01*
X48429Y87737D01*
X48418Y87717D01*
X48410Y87698D01*
X48404Y87681D01*
X48401Y87665D01*
X48398Y87651D01*
Y87643D01*
Y87640D01*
X48401Y87604D01*
X48412Y87571D01*
X48423Y87543D01*
X48440Y87521D01*
X48454Y87501D01*
X48468Y87488D01*
X48479Y87479D01*
X48482Y87476D01*
X48531Y87449D01*
X48587Y87427D01*
X48645Y87413D01*
X48703Y87402D01*
X48756Y87396D01*
X48778Y87393D01*
X48797D01*
X48814Y87391D01*
X48836D01*
X48914Y87393D01*
X48980Y87404D01*
X49038Y87418D01*
X49085Y87438D01*
X49121Y87454D01*
X49149Y87468D01*
X49166Y87479D01*
X49169Y87482D01*
X49171D01*
X49213Y87521D01*
X49246Y87562D01*
X49274Y87609D01*
X49296Y87651D01*
X49310Y87692D01*
X49321Y87723D01*
X49324Y87737D01*
X49326Y87745D01*
X49329Y87751D01*
Y87753D01*
X49944Y87659D01*
X49927Y87598D01*
X49905Y87543D01*
X49880Y87488D01*
X49853Y87438D01*
X49825Y87393D01*
X49795Y87349D01*
X49764Y87310D01*
X49734Y87274D01*
X49706Y87244D01*
X49678Y87216D01*
X49653Y87194D01*
X49631Y87174D01*
X49612Y87158D01*
X49598Y87147D01*
X49589Y87141D01*
X49587Y87138D01*
X49531Y87105D01*
X49476Y87075D01*
X49415Y87050D01*
X49351Y87028D01*
X49290Y87008D01*
X49227Y86994D01*
X49166Y86981D01*
X49108Y86972D01*
X49052Y86964D01*
X49000Y86958D01*
X48955Y86953D01*
X48914Y86950D01*
X48880Y86947D01*
X48836D01*
X48742Y86950D01*
X48653Y86958D01*
X48570Y86970D01*
X48493Y86983D01*
X48423Y87000D01*
X48357Y87019D01*
X48299Y87039D01*
X48246Y87061D01*
X48202Y87083D01*
X48160Y87103D01*
X48127Y87122D01*
X48099Y87138D01*
X48077Y87152D01*
X48061Y87166D01*
X48052Y87172D01*
X48049Y87174D01*
X48002Y87219D01*
X47961Y87263D01*
X47925Y87310D01*
X47894Y87357D01*
X47869Y87404D01*
X47847Y87449D01*
X47831Y87493D01*
X47817Y87535D01*
X47806Y87573D01*
X47797Y87609D01*
X47792Y87643D01*
X47786Y87670D01*
Y87692D01*
X47783Y87709D01*
Y87720D01*
Y87723D01*
X47786Y87776D01*
X47792Y87826D01*
X47800Y87873D01*
X47814Y87917D01*
X47828Y87958D01*
X47844Y87994D01*
X47861Y88028D01*
X47880Y88058D01*
X47897Y88086D01*
X47916Y88111D01*
X47933Y88130D01*
X47947Y88147D01*
X47961Y88161D01*
X47969Y88169D01*
X47975Y88174D01*
X47977Y88177D01*
X48016Y88208D01*
X48063Y88235D01*
X48113Y88263D01*
X48166Y88288D01*
X48279Y88335D01*
X48393Y88374D01*
X48445Y88390D01*
X48495Y88404D01*
X48542Y88418D01*
X48581Y88429D01*
X48614Y88438D01*
X48639Y88443D01*
X48656Y88449D01*
X48662D01*
X48747Y88468D01*
X48825Y88487D01*
X48894Y88507D01*
X48955Y88524D01*
X49011Y88537D01*
X49055Y88551D01*
X49094Y88565D01*
X49127Y88576D01*
X49155Y88587D01*
X49180Y88595D01*
X49196Y88604D01*
X49210Y88609D01*
X49218Y88615D01*
X49224Y88618D01*
X49229Y88621D01*
X49249Y88640D01*
X49265Y88657D01*
X49277Y88676D01*
X49282Y88692D01*
X49288Y88709D01*
X49290Y88720D01*
Y88728D01*
Y88731D01*
X49288Y88759D01*
X49279Y88784D01*
X49268Y88806D01*
X49254Y88823D01*
X49243Y88836D01*
X49232Y88848D01*
X49224Y88853D01*
X49221Y88856D01*
X49199Y88867D01*
X49177Y88878D01*
X49121Y88895D01*
X49066Y88908D01*
X49008Y88917D01*
X48955Y88922D01*
X48933D01*
X48914Y88925D01*
X48875D01*
X48808Y88922D01*
X48747Y88914D01*
X48698Y88900D01*
X48656Y88889D01*
X48623Y88875D01*
X48601Y88861D01*
X48587Y88853D01*
X48581Y88850D01*
X48545Y88820D01*
X48515Y88789D01*
X48490Y88753D01*
X48470Y88720D01*
X48454Y88692D01*
X48445Y88668D01*
X48440Y88651D01*
X48437Y88648D01*
Y88645D01*
X47861Y88753D01*
X47880Y88809D01*
X47900Y88859D01*
X47925Y88908D01*
X47950Y88953D01*
X47975Y88994D01*
X48002Y89030D01*
X48027Y89064D01*
X48055Y89094D01*
X48080Y89122D01*
X48105Y89147D01*
X48127Y89166D01*
X48144Y89183D01*
X48160Y89194D01*
X48171Y89202D01*
X48180Y89208D01*
X48182Y89210D01*
X48229Y89238D01*
X48279Y89263D01*
X48332Y89283D01*
X48390Y89299D01*
X48506Y89327D01*
X48620Y89346D01*
X48673Y89352D01*
X48722Y89357D01*
X48770Y89360D01*
X48808Y89363D01*
X48842Y89366D01*
X48886D01*
X48977Y89363D01*
D02*
G37*
G36*
X97714Y27053D02*
X94116D01*
X93816Y27061D01*
X93541D01*
X93299Y27070D01*
X93083D01*
X92891Y27078D01*
X92724D01*
X92583Y27086D01*
X92458Y27095D01*
X92358D01*
X92275Y27103D01*
X92166D01*
X92133Y27111D01*
X92108D01*
X91833Y27161D01*
X91575Y27220D01*
X91358Y27295D01*
X91258Y27336D01*
X91167Y27378D01*
X91083Y27411D01*
X91017Y27453D01*
X90950Y27478D01*
X90900Y27511D01*
X90859Y27536D01*
X90833Y27553D01*
X90817Y27569D01*
X90808D01*
X90625Y27719D01*
X90459Y27886D01*
X90317Y28044D01*
X90192Y28203D01*
X90101Y28344D01*
X90059Y28403D01*
X90034Y28461D01*
X90009Y28502D01*
X89992Y28536D01*
X89976Y28552D01*
Y28561D01*
X89876Y28794D01*
X89801Y29019D01*
X89742Y29236D01*
X89709Y29427D01*
X89692Y29519D01*
X89684Y29594D01*
X89676Y29660D01*
Y29727D01*
X89667Y29769D01*
Y29802D01*
Y29827D01*
Y29835D01*
X89676Y29985D01*
X89684Y30135D01*
X89709Y30277D01*
X89742Y30410D01*
X89776Y30543D01*
X89817Y30660D01*
X89859Y30768D01*
X89901Y30876D01*
X89951Y30968D01*
X89992Y31043D01*
X90034Y31118D01*
X90067Y31176D01*
X90101Y31226D01*
X90126Y31260D01*
X90134Y31276D01*
X90142Y31285D01*
X90234Y31393D01*
X90334Y31501D01*
X90550Y31684D01*
X90775Y31834D01*
X90992Y31951D01*
X91092Y32001D01*
X91183Y32043D01*
X91275Y32084D01*
X91350Y32109D01*
X91408Y32134D01*
X91450Y32151D01*
X91483Y32159D01*
X91492D01*
X91267Y32276D01*
X91075Y32409D01*
X90908Y32542D01*
X90767Y32684D01*
X90659Y32809D01*
X90575Y32909D01*
X90542Y32951D01*
X90525Y32976D01*
X90509Y32992D01*
Y33001D01*
X90442Y33109D01*
X90384Y33217D01*
X90300Y33434D01*
X90234Y33642D01*
X90184Y33834D01*
X90175Y33917D01*
X90159Y34000D01*
X90150Y34067D01*
Y34125D01*
X90142Y34175D01*
Y34209D01*
Y34233D01*
Y34242D01*
X90159Y34467D01*
X90192Y34675D01*
X90234Y34867D01*
X90292Y35033D01*
X90317Y35100D01*
X90350Y35166D01*
X90375Y35225D01*
X90392Y35275D01*
X90417Y35308D01*
X90425Y35333D01*
X90442Y35350D01*
Y35358D01*
X90559Y35533D01*
X90675Y35691D01*
X90800Y35833D01*
X90917Y35950D01*
X91017Y36033D01*
X91100Y36099D01*
X91133Y36124D01*
X91158Y36141D01*
X91167Y36158D01*
X91175D01*
X91342Y36266D01*
X91517Y36349D01*
X91691Y36416D01*
X91841Y36474D01*
X91983Y36516D01*
X92041Y36524D01*
X92091Y36541D01*
X92125Y36549D01*
X92158D01*
X92175Y36557D01*
X92183D01*
X92291Y36574D01*
X92416Y36591D01*
X92550Y36608D01*
X92683Y36616D01*
X92966Y36632D01*
X93241Y36649D01*
X93491D01*
X93599Y36658D01*
X97714D01*
Y27053D01*
D02*
G37*
G36*
X103720Y36807D02*
X103903Y36791D01*
X104087Y36774D01*
X104253Y36749D01*
X104403Y36716D01*
X104553Y36683D01*
X104678Y36658D01*
X104803Y36624D01*
X104903Y36591D01*
X104994Y36566D01*
X105069Y36533D01*
X105128Y36516D01*
X105178Y36499D01*
X105203Y36483D01*
X105211D01*
X105353Y36416D01*
X105486Y36349D01*
X105611Y36266D01*
X105728Y36191D01*
X105836Y36108D01*
X105936Y36024D01*
X106027Y35950D01*
X106102Y35875D01*
X106177Y35800D01*
X106236Y35733D01*
X106294Y35666D01*
X106336Y35616D01*
X106369Y35566D01*
X106394Y35533D01*
X106402Y35516D01*
X106411Y35508D01*
X106486Y35391D01*
X106544Y35266D01*
X106602Y35150D01*
X106644Y35025D01*
X106719Y34800D01*
X106769Y34592D01*
X106786Y34492D01*
X106794Y34408D01*
X106802Y34333D01*
X106810Y34267D01*
X106819Y34217D01*
Y34175D01*
Y34150D01*
Y34142D01*
X106810Y33934D01*
X106777Y33734D01*
X106736Y33542D01*
X106677Y33359D01*
X106611Y33192D01*
X106536Y33026D01*
X106461Y32884D01*
X106377Y32751D01*
X106294Y32626D01*
X106219Y32517D01*
X106144Y32426D01*
X106077Y32351D01*
X106019Y32293D01*
X105977Y32243D01*
X105944Y32218D01*
X105936Y32209D01*
X105811Y32109D01*
X105661Y32009D01*
X105503Y31909D01*
X105328Y31826D01*
X104970Y31659D01*
X104611Y31526D01*
X104436Y31460D01*
X104278Y31410D01*
X104137Y31368D01*
X104003Y31326D01*
X103903Y31301D01*
X103820Y31276D01*
X103770Y31268D01*
X103762Y31260D01*
X103753D01*
X103537Y31210D01*
X103337Y31160D01*
X103154Y31110D01*
X102995Y31068D01*
X102854Y31026D01*
X102729Y30993D01*
X102612Y30968D01*
X102521Y30943D01*
X102437Y30918D01*
X102371Y30893D01*
X102312Y30876D01*
X102271Y30868D01*
X102237Y30860D01*
X102212Y30852D01*
X102196Y30843D01*
X102021Y30777D01*
X101879Y30702D01*
X101754Y30635D01*
X101654Y30568D01*
X101587Y30510D01*
X101538Y30468D01*
X101504Y30435D01*
X101496Y30427D01*
X101429Y30335D01*
X101379Y30235D01*
X101346Y30135D01*
X101321Y30044D01*
X101304Y29969D01*
X101296Y29902D01*
Y29860D01*
Y29844D01*
X101304Y29744D01*
X101313Y29652D01*
X101338Y29560D01*
X101371Y29477D01*
X101446Y29319D01*
X101529Y29186D01*
X101621Y29077D01*
X101696Y28994D01*
X101729Y28961D01*
X101754Y28936D01*
X101762Y28927D01*
X101771Y28919D01*
X101862Y28852D01*
X101971Y28794D01*
X102196Y28694D01*
X102429Y28627D01*
X102654Y28577D01*
X102762Y28561D01*
X102862Y28552D01*
X102954Y28536D01*
X103029D01*
X103095Y28527D01*
X103187D01*
X103345Y28536D01*
X103503Y28544D01*
X103645Y28569D01*
X103778Y28594D01*
X103903Y28627D01*
X104020Y28669D01*
X104128Y28711D01*
X104220Y28752D01*
X104303Y28786D01*
X104378Y28827D01*
X104445Y28869D01*
X104495Y28902D01*
X104536Y28927D01*
X104570Y28952D01*
X104586Y28961D01*
X104595Y28969D01*
X104686Y29061D01*
X104770Y29152D01*
X104920Y29377D01*
X105036Y29602D01*
X105128Y29835D01*
X105169Y29943D01*
X105194Y30044D01*
X105219Y30135D01*
X105244Y30210D01*
X105261Y30277D01*
X105269Y30327D01*
X105278Y30360D01*
Y30368D01*
X107169Y30185D01*
X107127Y29893D01*
X107069Y29619D01*
X106994Y29360D01*
X106910Y29119D01*
X106819Y28902D01*
X106719Y28694D01*
X106619Y28511D01*
X106519Y28352D01*
X106419Y28203D01*
X106327Y28078D01*
X106244Y27969D01*
X106169Y27886D01*
X106102Y27819D01*
X106052Y27769D01*
X106019Y27736D01*
X106011Y27728D01*
X105819Y27578D01*
X105611Y27453D01*
X105386Y27336D01*
X105161Y27245D01*
X104928Y27161D01*
X104686Y27095D01*
X104461Y27036D01*
X104236Y26995D01*
X104028Y26953D01*
X103828Y26928D01*
X103653Y26911D01*
X103503Y26903D01*
X103378Y26895D01*
X103329Y26886D01*
X103204D01*
X102970Y26895D01*
X102754Y26903D01*
X102545Y26920D01*
X102354Y26945D01*
X102171Y26970D01*
X101996Y26995D01*
X101838Y27028D01*
X101696Y27061D01*
X101563Y27095D01*
X101454Y27128D01*
X101354Y27153D01*
X101271Y27178D01*
X101204Y27203D01*
X101163Y27220D01*
X101129Y27236D01*
X101121D01*
X100971Y27303D01*
X100821Y27386D01*
X100688Y27461D01*
X100563Y27553D01*
X100446Y27636D01*
X100338Y27728D01*
X100246Y27819D01*
X100155Y27903D01*
X100080Y27986D01*
X100013Y28061D01*
X99955Y28128D01*
X99905Y28186D01*
X99872Y28236D01*
X99847Y28269D01*
X99830Y28294D01*
X99822Y28302D01*
X99738Y28436D01*
X99663Y28577D01*
X99605Y28719D01*
X99555Y28852D01*
X99472Y29111D01*
X99438Y29236D01*
X99413Y29352D01*
X99397Y29452D01*
X99380Y29552D01*
X99372Y29635D01*
X99363Y29710D01*
X99355Y29769D01*
Y29819D01*
Y29844D01*
Y29852D01*
Y30018D01*
X99372Y30177D01*
X99388Y30327D01*
X99413Y30477D01*
X99447Y30610D01*
X99480Y30735D01*
X99513Y30852D01*
X99547Y30951D01*
X99580Y31051D01*
X99613Y31135D01*
X99647Y31210D01*
X99680Y31268D01*
X99705Y31310D01*
X99722Y31351D01*
X99730Y31368D01*
X99738Y31376D01*
X99897Y31593D01*
X100063Y31793D01*
X100246Y31959D01*
X100413Y32093D01*
X100571Y32209D01*
X100638Y32251D01*
X100688Y32284D01*
X100738Y32318D01*
X100771Y32334D01*
X100796Y32351D01*
X100804D01*
X100938Y32418D01*
X101088Y32484D01*
X101246Y32551D01*
X101413Y32609D01*
X101762Y32726D01*
X102104Y32834D01*
X102262Y32876D01*
X102412Y32917D01*
X102545Y32951D01*
X102662Y32984D01*
X102762Y33009D01*
X102837Y33026D01*
X102879Y33042D01*
X102895D01*
X103145Y33101D01*
X103378Y33167D01*
X103587Y33226D01*
X103770Y33284D01*
X103937Y33342D01*
X104078Y33392D01*
X104211Y33442D01*
X104320Y33492D01*
X104411Y33534D01*
X104486Y33567D01*
X104553Y33600D01*
X104595Y33634D01*
X104636Y33650D01*
X104661Y33667D01*
X104670Y33684D01*
X104678D01*
X104770Y33775D01*
X104845Y33875D01*
X104895Y33975D01*
X104928Y34067D01*
X104945Y34150D01*
X104953Y34209D01*
X104961Y34250D01*
Y34267D01*
X104945Y34400D01*
X104911Y34517D01*
X104870Y34625D01*
X104811Y34708D01*
X104753Y34775D01*
X104711Y34825D01*
X104678Y34858D01*
X104661Y34867D01*
X104570Y34925D01*
X104461Y34983D01*
X104253Y35067D01*
X104028Y35133D01*
X103820Y35175D01*
X103720Y35191D01*
X103628Y35200D01*
X103545Y35208D01*
X103479D01*
X103420Y35216D01*
X103187D01*
X103054Y35200D01*
X102920Y35183D01*
X102804Y35166D01*
X102687Y35141D01*
X102587Y35116D01*
X102496Y35083D01*
X102421Y35058D01*
X102346Y35025D01*
X102287Y34991D01*
X102229Y34966D01*
X102187Y34942D01*
X102154Y34925D01*
X102129Y34908D01*
X102121Y34892D01*
X102112D01*
X102037Y34825D01*
X101971Y34750D01*
X101854Y34592D01*
X101754Y34408D01*
X101688Y34233D01*
X101629Y34075D01*
X101612Y34009D01*
X101596Y33950D01*
X101587Y33900D01*
X101579Y33859D01*
X101571Y33834D01*
Y33825D01*
X99630Y33909D01*
X99647Y34150D01*
X99688Y34383D01*
X99738Y34600D01*
X99805Y34800D01*
X99880Y34983D01*
X99955Y35158D01*
X100047Y35316D01*
X100130Y35466D01*
X100221Y35591D01*
X100305Y35708D01*
X100380Y35800D01*
X100455Y35883D01*
X100513Y35941D01*
X100555Y35991D01*
X100588Y36016D01*
X100596Y36024D01*
X100779Y36166D01*
X100971Y36291D01*
X101188Y36399D01*
X101404Y36491D01*
X101629Y36566D01*
X101854Y36632D01*
X102079Y36683D01*
X102296Y36724D01*
X102504Y36757D01*
X102695Y36783D01*
X102870Y36799D01*
X103020Y36816D01*
X103145D01*
X103195Y36824D01*
X103520D01*
X103720Y36807D01*
D02*
G37*
G36*
X88026Y27053D02*
X86085D01*
Y31251D01*
X82295D01*
Y27053D01*
X80354D01*
Y36658D01*
X82295D01*
Y32876D01*
X86085D01*
Y36658D01*
X88026D01*
Y27053D01*
D02*
G37*
G36*
X53991Y89360D02*
X54071Y89349D01*
X54143Y89332D01*
X54204Y89313D01*
X54232Y89302D01*
X54257Y89291D01*
X54276Y89283D01*
X54296Y89274D01*
X54310Y89269D01*
X54321Y89263D01*
X54326Y89258D01*
X54329D01*
X54396Y89213D01*
X54456Y89169D01*
X54506Y89122D01*
X54548Y89075D01*
X54584Y89036D01*
X54609Y89003D01*
X54617Y88992D01*
X54623Y88983D01*
X54628Y88978D01*
Y89316D01*
X55199D01*
Y86119D01*
X54587D01*
Y87283D01*
X54523Y87219D01*
X54462Y87166D01*
X54406Y87119D01*
X54360Y87083D01*
X54318Y87055D01*
X54301Y87047D01*
X54287Y87036D01*
X54276Y87031D01*
X54265Y87025D01*
X54263Y87022D01*
X54260D01*
X54199Y86997D01*
X54141Y86978D01*
X54080Y86967D01*
X54027Y86956D01*
X53980Y86950D01*
X53961D01*
X53944Y86947D01*
X53911D01*
X53836Y86950D01*
X53764Y86961D01*
X53697Y86978D01*
X53634Y86997D01*
X53573Y87022D01*
X53515Y87050D01*
X53462Y87078D01*
X53415Y87108D01*
X53373Y87138D01*
X53335Y87166D01*
X53301Y87194D01*
X53274Y87219D01*
X53251Y87238D01*
X53238Y87255D01*
X53227Y87266D01*
X53224Y87269D01*
X53174Y87332D01*
X53130Y87399D01*
X53091Y87471D01*
X53058Y87546D01*
X53030Y87621D01*
X53008Y87695D01*
X52988Y87767D01*
X52974Y87839D01*
X52963Y87906D01*
X52952Y87969D01*
X52947Y88025D01*
X52944Y88075D01*
X52941Y88113D01*
X52938Y88130D01*
Y88144D01*
Y88155D01*
Y88163D01*
Y88166D01*
Y88169D01*
X52941Y88271D01*
X52950Y88368D01*
X52963Y88460D01*
X52983Y88543D01*
X53005Y88623D01*
X53027Y88695D01*
X53052Y88759D01*
X53080Y88820D01*
X53105Y88872D01*
X53132Y88917D01*
X53154Y88956D01*
X53177Y88989D01*
X53196Y89014D01*
X53210Y89033D01*
X53218Y89044D01*
X53221Y89047D01*
X53276Y89102D01*
X53332Y89152D01*
X53390Y89194D01*
X53448Y89233D01*
X53506Y89263D01*
X53562Y89288D01*
X53617Y89310D01*
X53670Y89327D01*
X53720Y89338D01*
X53764Y89349D01*
X53805Y89357D01*
X53842Y89360D01*
X53869Y89363D01*
X53888Y89366D01*
X53908D01*
X53991Y89360D01*
D02*
G37*
G36*
X75998Y32051D02*
X79321Y27053D01*
X76989D01*
X74857Y30302D01*
X72732Y27053D01*
X70392D01*
X73707Y32051D01*
X70683Y36658D01*
X72941D01*
X74848Y33784D01*
X76748Y36658D01*
X79013D01*
X75998Y32051D01*
D02*
G37*
G36*
X67509Y89363D02*
X67583Y89357D01*
X67655Y89352D01*
X67722Y89341D01*
X67783Y89327D01*
X67838Y89313D01*
X67891Y89299D01*
X67935Y89285D01*
X67977Y89269D01*
X68010Y89255D01*
X68041Y89241D01*
X68063Y89227D01*
X68082Y89216D01*
X68096Y89210D01*
X68104Y89205D01*
X68107Y89202D01*
X68148Y89169D01*
X68187Y89136D01*
X68221Y89097D01*
X68254Y89058D01*
X68284Y89017D01*
X68309Y88975D01*
X68334Y88933D01*
X68353Y88895D01*
X68373Y88856D01*
X68387Y88820D01*
X68401Y88789D01*
X68412Y88762D01*
X68417Y88740D01*
X68423Y88720D01*
X68428Y88709D01*
Y88706D01*
X67871Y88607D01*
X67849Y88662D01*
X67824Y88709D01*
X67800Y88748D01*
X67777Y88778D01*
X67755Y88803D01*
X67738Y88820D01*
X67728Y88828D01*
X67725Y88831D01*
X67689Y88853D01*
X67647Y88870D01*
X67603Y88881D01*
X67564Y88889D01*
X67525Y88895D01*
X67498Y88898D01*
X67426D01*
X67387Y88895D01*
X67348Y88889D01*
X67315Y88886D01*
X67284Y88881D01*
X67259Y88872D01*
X67234Y88867D01*
X67212Y88859D01*
X67196Y88850D01*
X67179Y88845D01*
X67157Y88831D01*
X67143Y88823D01*
X67140Y88820D01*
X67110Y88787D01*
X67088Y88751D01*
X67074Y88709D01*
X67063Y88668D01*
X67057Y88629D01*
X67052Y88598D01*
Y88587D01*
Y88579D01*
Y88573D01*
Y88571D01*
Y88510D01*
X67085Y88496D01*
X67124Y88482D01*
X67168Y88468D01*
X67215Y88454D01*
X67315Y88429D01*
X67412Y88407D01*
X67459Y88396D01*
X67503Y88388D01*
X67545Y88380D01*
X67581Y88371D01*
X67608Y88366D01*
X67630Y88360D01*
X67644Y88357D01*
X67650D01*
X67708Y88346D01*
X67764Y88332D01*
X67813Y88321D01*
X67860Y88310D01*
X67905Y88296D01*
X67944Y88285D01*
X67980Y88274D01*
X68013Y88263D01*
X68043Y88252D01*
X68068Y88244D01*
X68088Y88235D01*
X68107Y88227D01*
X68121Y88222D01*
X68129Y88216D01*
X68135Y88213D01*
X68137D01*
X68198Y88180D01*
X68251Y88144D01*
X68295Y88103D01*
X68331Y88066D01*
X68362Y88030D01*
X68384Y88003D01*
X68389Y87992D01*
X68395Y87983D01*
X68401Y87981D01*
Y87978D01*
X68431Y87920D01*
X68453Y87859D01*
X68470Y87801D01*
X68481Y87748D01*
X68486Y87701D01*
X68489Y87681D01*
Y87665D01*
X68492Y87651D01*
Y87640D01*
Y87634D01*
Y87632D01*
X68489Y87576D01*
X68484Y87526D01*
X68473Y87476D01*
X68459Y87429D01*
X68445Y87388D01*
X68428Y87346D01*
X68409Y87310D01*
X68389Y87274D01*
X68370Y87244D01*
X68351Y87219D01*
X68334Y87197D01*
X68320Y87177D01*
X68306Y87161D01*
X68295Y87150D01*
X68290Y87144D01*
X68287Y87141D01*
X68246Y87108D01*
X68204Y87078D01*
X68160Y87053D01*
X68112Y87031D01*
X68065Y87011D01*
X68018Y86994D01*
X67974Y86981D01*
X67930Y86972D01*
X67888Y86964D01*
X67849Y86958D01*
X67813Y86953D01*
X67783Y86950D01*
X67758Y86947D01*
X67725D01*
X67650Y86950D01*
X67578Y86958D01*
X67514Y86972D01*
X67456Y86986D01*
X67431Y86992D01*
X67409Y86997D01*
X67390Y87006D01*
X67373Y87011D01*
X67359Y87017D01*
X67351Y87019D01*
X67345Y87022D01*
X67342D01*
X67276Y87055D01*
X67215Y87091D01*
X67157Y87130D01*
X67107Y87166D01*
X67065Y87199D01*
X67049Y87213D01*
X67035Y87227D01*
X67024Y87238D01*
X67016Y87247D01*
X67010Y87249D01*
X67007Y87252D01*
X67005Y87244D01*
X66999Y87233D01*
X66993Y87211D01*
X66991Y87199D01*
X66988Y87188D01*
X66985Y87183D01*
Y87180D01*
X66971Y87138D01*
X66960Y87103D01*
X66949Y87072D01*
X66941Y87044D01*
X66935Y87025D01*
X66930Y87011D01*
X66924Y87003D01*
Y87000D01*
X66317D01*
X66345Y87061D01*
X66367Y87116D01*
X66387Y87169D01*
X66403Y87216D01*
X66414Y87252D01*
X66423Y87283D01*
X66426Y87294D01*
Y87302D01*
X66428Y87305D01*
Y87308D01*
X66434Y87338D01*
X66437Y87368D01*
X66445Y87440D01*
X66451Y87515D01*
X66453Y87587D01*
Y87623D01*
Y87654D01*
X66456Y87684D01*
Y87709D01*
Y87731D01*
Y87745D01*
Y87756D01*
Y87759D01*
X66448Y88474D01*
Y88546D01*
X66451Y88612D01*
X66456Y88673D01*
X66462Y88728D01*
X66467Y88778D01*
X66473Y88823D01*
X66481Y88861D01*
X66489Y88898D01*
X66498Y88928D01*
X66503Y88953D01*
X66511Y88975D01*
X66517Y88992D01*
X66523Y89006D01*
X66528Y89014D01*
X66531Y89019D01*
Y89022D01*
X66548Y89050D01*
X66567Y89075D01*
X66611Y89125D01*
X66658Y89166D01*
X66705Y89202D01*
X66747Y89230D01*
X66766Y89241D01*
X66783Y89252D01*
X66797Y89258D01*
X66808Y89263D01*
X66813Y89269D01*
X66816D01*
X66855Y89285D01*
X66899Y89302D01*
X66946Y89313D01*
X66996Y89324D01*
X67096Y89341D01*
X67196Y89354D01*
X67243Y89357D01*
X67284Y89360D01*
X67323Y89363D01*
X67359D01*
X67387Y89366D01*
X67426D01*
X67509Y89363D01*
D02*
G37*
G36*
X56841D02*
X56916Y89357D01*
X56988Y89352D01*
X57055Y89341D01*
X57116Y89327D01*
X57171Y89313D01*
X57224Y89299D01*
X57268Y89285D01*
X57310Y89269D01*
X57343Y89255D01*
X57373Y89241D01*
X57395Y89227D01*
X57415Y89216D01*
X57429Y89210D01*
X57437Y89205D01*
X57440Y89202D01*
X57481Y89169D01*
X57520Y89136D01*
X57553Y89097D01*
X57586Y89058D01*
X57617Y89017D01*
X57642Y88975D01*
X57667Y88933D01*
X57686Y88895D01*
X57706Y88856D01*
X57719Y88820D01*
X57733Y88789D01*
X57744Y88762D01*
X57750Y88740D01*
X57756Y88720D01*
X57761Y88709D01*
Y88706D01*
X57204Y88607D01*
X57182Y88662D01*
X57157Y88709D01*
X57132Y88748D01*
X57110Y88778D01*
X57088Y88803D01*
X57071Y88820D01*
X57060Y88828D01*
X57057Y88831D01*
X57021Y88853D01*
X56980Y88870D01*
X56936Y88881D01*
X56897Y88889D01*
X56858Y88895D01*
X56830Y88898D01*
X56758D01*
X56719Y88895D01*
X56681Y88889D01*
X56647Y88886D01*
X56617Y88881D01*
X56592Y88872D01*
X56567Y88867D01*
X56545Y88859D01*
X56528Y88850D01*
X56512Y88845D01*
X56490Y88831D01*
X56476Y88823D01*
X56473Y88820D01*
X56442Y88787D01*
X56420Y88751D01*
X56406Y88709D01*
X56395Y88668D01*
X56390Y88629D01*
X56384Y88598D01*
Y88587D01*
Y88579D01*
Y88573D01*
Y88571D01*
Y88510D01*
X56418Y88496D01*
X56456Y88482D01*
X56501Y88468D01*
X56548Y88454D01*
X56647Y88429D01*
X56744Y88407D01*
X56792Y88396D01*
X56836Y88388D01*
X56877Y88380D01*
X56913Y88371D01*
X56941Y88366D01*
X56963Y88360D01*
X56977Y88357D01*
X56983D01*
X57041Y88346D01*
X57096Y88332D01*
X57146Y88321D01*
X57193Y88310D01*
X57237Y88296D01*
X57276Y88285D01*
X57312Y88274D01*
X57345Y88263D01*
X57376Y88252D01*
X57401Y88244D01*
X57420Y88235D01*
X57440Y88227D01*
X57454Y88222D01*
X57462Y88216D01*
X57467Y88213D01*
X57470D01*
X57531Y88180D01*
X57584Y88144D01*
X57628Y88103D01*
X57664Y88066D01*
X57695Y88030D01*
X57717Y88003D01*
X57722Y87992D01*
X57728Y87983D01*
X57733Y87981D01*
Y87978D01*
X57764Y87920D01*
X57786Y87859D01*
X57803Y87801D01*
X57814Y87748D01*
X57819Y87701D01*
X57822Y87681D01*
Y87665D01*
X57825Y87651D01*
Y87640D01*
Y87634D01*
Y87632D01*
X57822Y87576D01*
X57816Y87526D01*
X57805Y87476D01*
X57792Y87429D01*
X57778Y87388D01*
X57761Y87346D01*
X57742Y87310D01*
X57722Y87274D01*
X57703Y87244D01*
X57683Y87219D01*
X57667Y87197D01*
X57653Y87177D01*
X57639Y87161D01*
X57628Y87150D01*
X57622Y87144D01*
X57620Y87141D01*
X57578Y87108D01*
X57537Y87078D01*
X57492Y87053D01*
X57445Y87031D01*
X57398Y87011D01*
X57351Y86994D01*
X57307Y86981D01*
X57262Y86972D01*
X57221Y86964D01*
X57182Y86958D01*
X57146Y86953D01*
X57116Y86950D01*
X57091Y86947D01*
X57057D01*
X56983Y86950D01*
X56911Y86958D01*
X56847Y86972D01*
X56789Y86986D01*
X56764Y86992D01*
X56742Y86997D01*
X56722Y87006D01*
X56706Y87011D01*
X56692Y87017D01*
X56683Y87019D01*
X56678Y87022D01*
X56675D01*
X56609Y87055D01*
X56548Y87091D01*
X56490Y87130D01*
X56440Y87166D01*
X56398Y87199D01*
X56382Y87213D01*
X56368Y87227D01*
X56357Y87238D01*
X56348Y87247D01*
X56343Y87249D01*
X56340Y87252D01*
X56337Y87244D01*
X56332Y87233D01*
X56326Y87211D01*
X56323Y87199D01*
X56321Y87188D01*
X56318Y87183D01*
Y87180D01*
X56304Y87138D01*
X56293Y87103D01*
X56282Y87072D01*
X56274Y87044D01*
X56268Y87025D01*
X56262Y87011D01*
X56257Y87003D01*
Y87000D01*
X55650D01*
X55678Y87061D01*
X55700Y87116D01*
X55720Y87169D01*
X55736Y87216D01*
X55747Y87252D01*
X55756Y87283D01*
X55758Y87294D01*
Y87302D01*
X55761Y87305D01*
Y87308D01*
X55767Y87338D01*
X55769Y87368D01*
X55778Y87440D01*
X55783Y87515D01*
X55786Y87587D01*
Y87623D01*
Y87654D01*
X55789Y87684D01*
Y87709D01*
Y87731D01*
Y87745D01*
Y87756D01*
Y87759D01*
X55781Y88474D01*
Y88546D01*
X55783Y88612D01*
X55789Y88673D01*
X55794Y88728D01*
X55800Y88778D01*
X55805Y88823D01*
X55814Y88861D01*
X55822Y88898D01*
X55830Y88928D01*
X55836Y88953D01*
X55844Y88975D01*
X55850Y88992D01*
X55855Y89006D01*
X55861Y89014D01*
X55864Y89019D01*
Y89022D01*
X55880Y89050D01*
X55900Y89075D01*
X55944Y89125D01*
X55991Y89166D01*
X56038Y89202D01*
X56080Y89230D01*
X56099Y89241D01*
X56116Y89252D01*
X56129Y89258D01*
X56141Y89263D01*
X56146Y89269D01*
X56149D01*
X56188Y89285D01*
X56232Y89302D01*
X56279Y89313D01*
X56329Y89324D01*
X56429Y89341D01*
X56528Y89354D01*
X56576Y89357D01*
X56617Y89360D01*
X56656Y89363D01*
X56692D01*
X56719Y89366D01*
X56758D01*
X56841Y89363D01*
D02*
G37*
G36*
X43545Y87000D02*
X42933D01*
Y87740D01*
X42651Y88039D01*
X42066Y87000D01*
X41407D01*
X42255Y88468D01*
X41462Y89316D01*
X42216D01*
X42933Y88499D01*
Y90194D01*
X43545D01*
Y87000D01*
D02*
G37*
G36*
X60872D02*
X60226D01*
Y87964D01*
X59706Y88499D01*
X58828Y87000D01*
X57994D01*
X59262Y88950D01*
X58060Y90194D01*
X58927D01*
X60226Y88776D01*
Y90194D01*
X60872D01*
Y87000D01*
D02*
G37*
G36*
X74777Y89626D02*
X74165D01*
Y90194D01*
X74777D01*
Y89626D01*
D02*
G37*
G36*
X44764D02*
X44152D01*
Y90194D01*
X44764D01*
Y89626D01*
D02*
G37*
G36*
X71060Y87000D02*
X70448D01*
Y88158D01*
Y88210D01*
X70445Y88260D01*
X70442Y88307D01*
X70439Y88349D01*
X70434Y88388D01*
X70431Y88424D01*
X70425Y88457D01*
X70420Y88487D01*
X70414Y88512D01*
X70409Y88535D01*
X70406Y88554D01*
X70401Y88571D01*
X70398Y88582D01*
X70395Y88593D01*
X70392Y88595D01*
Y88598D01*
X70370Y88651D01*
X70342Y88695D01*
X70312Y88734D01*
X70284Y88767D01*
X70259Y88792D01*
X70237Y88809D01*
X70223Y88820D01*
X70218Y88823D01*
X70171Y88848D01*
X70126Y88867D01*
X70079Y88878D01*
X70038Y88889D01*
X70002Y88895D01*
X69971Y88898D01*
X69946D01*
X69896Y88895D01*
X69855Y88889D01*
X69816Y88878D01*
X69786Y88870D01*
X69758Y88859D01*
X69741Y88848D01*
X69727Y88842D01*
X69725Y88839D01*
X69694Y88817D01*
X69666Y88789D01*
X69647Y88765D01*
X69628Y88740D01*
X69617Y88717D01*
X69605Y88698D01*
X69603Y88687D01*
X69600Y88681D01*
X69594Y88659D01*
X69589Y88634D01*
X69583Y88604D01*
X69578Y88568D01*
X69572Y88493D01*
X69569Y88415D01*
X69567Y88377D01*
Y88341D01*
X69564Y88307D01*
Y88280D01*
Y88255D01*
Y88238D01*
Y88227D01*
Y88222D01*
Y87000D01*
X68952D01*
Y88354D01*
Y88413D01*
Y88465D01*
X68955Y88512D01*
X68957Y88560D01*
X68960Y88601D01*
X68963Y88637D01*
X68966Y88670D01*
X68968Y88701D01*
X68971Y88728D01*
X68974Y88751D01*
X68977Y88770D01*
X68980Y88787D01*
X68982Y88798D01*
Y88809D01*
X68985Y88812D01*
Y88814D01*
X68999Y88870D01*
X69016Y88920D01*
X69035Y88967D01*
X69057Y89006D01*
X69074Y89039D01*
X69090Y89064D01*
X69101Y89080D01*
X69104Y89086D01*
X69140Y89130D01*
X69179Y89169D01*
X69223Y89202D01*
X69265Y89233D01*
X69301Y89255D01*
X69331Y89271D01*
X69342Y89277D01*
X69351Y89283D01*
X69356Y89285D01*
X69359D01*
X69423Y89313D01*
X69489Y89332D01*
X69553Y89346D01*
X69614Y89354D01*
X69664Y89363D01*
X69686D01*
X69705Y89366D01*
X69741D01*
X69816Y89363D01*
X69888Y89352D01*
X69957Y89332D01*
X70024Y89310D01*
X70087Y89285D01*
X70146Y89255D01*
X70198Y89222D01*
X70248Y89191D01*
X70293Y89158D01*
X70331Y89125D01*
X70367Y89094D01*
X70395Y89069D01*
X70417Y89047D01*
X70434Y89028D01*
X70445Y89017D01*
X70448Y89014D01*
Y90194D01*
X71060D01*
Y87000D01*
D02*
G37*
G36*
X72644Y89363D02*
X72733Y89352D01*
X72819Y89335D01*
X72896Y89316D01*
X72968Y89291D01*
X73038Y89263D01*
X73098Y89235D01*
X73154Y89205D01*
X73204Y89174D01*
X73248Y89147D01*
X73284Y89119D01*
X73315Y89094D01*
X73339Y89075D01*
X73356Y89058D01*
X73367Y89047D01*
X73370Y89044D01*
X73423Y88981D01*
X73470Y88914D01*
X73511Y88845D01*
X73545Y88770D01*
X73575Y88695D01*
X73597Y88623D01*
X73619Y88548D01*
X73633Y88479D01*
X73647Y88413D01*
X73655Y88352D01*
X73664Y88296D01*
X73666Y88247D01*
X73669Y88208D01*
X73672Y88177D01*
Y88166D01*
Y88158D01*
Y88155D01*
Y88152D01*
X73669Y88050D01*
X73658Y87953D01*
X73644Y87862D01*
X73625Y87776D01*
X73603Y87695D01*
X73578Y87623D01*
X73550Y87557D01*
X73522Y87499D01*
X73495Y87443D01*
X73467Y87396D01*
X73442Y87357D01*
X73420Y87324D01*
X73400Y87299D01*
X73387Y87280D01*
X73375Y87269D01*
X73373Y87266D01*
X73315Y87211D01*
X73251Y87161D01*
X73184Y87119D01*
X73118Y87083D01*
X73051Y87050D01*
X72982Y87025D01*
X72918Y87003D01*
X72855Y86986D01*
X72794Y86975D01*
X72738Y86964D01*
X72689Y86958D01*
X72644Y86953D01*
X72611Y86950D01*
X72583Y86947D01*
X72561D01*
X72481Y86950D01*
X72403Y86956D01*
X72328Y86967D01*
X72262Y86981D01*
X72198Y86997D01*
X72140Y87014D01*
X72088Y87033D01*
X72038Y87053D01*
X71993Y87072D01*
X71957Y87091D01*
X71924Y87108D01*
X71896Y87125D01*
X71877Y87138D01*
X71860Y87150D01*
X71852Y87155D01*
X71849Y87158D01*
X71802Y87199D01*
X71758Y87247D01*
X71716Y87294D01*
X71680Y87344D01*
X71647Y87396D01*
X71619Y87449D01*
X71592Y87501D01*
X71570Y87551D01*
X71550Y87598D01*
X71534Y87643D01*
X71520Y87681D01*
X71509Y87715D01*
X71500Y87745D01*
X71495Y87765D01*
X71489Y87778D01*
Y87784D01*
X72090Y87886D01*
X72098Y87842D01*
X72110Y87801D01*
X72123Y87765D01*
X72135Y87731D01*
X72148Y87698D01*
X72159Y87670D01*
X72173Y87645D01*
X72187Y87623D01*
X72198Y87604D01*
X72209Y87587D01*
X72229Y87562D01*
X72243Y87549D01*
X72248Y87543D01*
X72292Y87510D01*
X72339Y87488D01*
X72387Y87471D01*
X72431Y87457D01*
X72473Y87451D01*
X72503Y87449D01*
X72517Y87446D01*
X72533D01*
X72575Y87449D01*
X72616Y87454D01*
X72655Y87463D01*
X72691Y87474D01*
X72755Y87499D01*
X72808Y87532D01*
X72833Y87546D01*
X72852Y87562D01*
X72869Y87576D01*
X72882Y87590D01*
X72894Y87598D01*
X72902Y87607D01*
X72905Y87612D01*
X72907Y87615D01*
X72932Y87648D01*
X72952Y87690D01*
X72971Y87731D01*
X72985Y87778D01*
X73010Y87873D01*
X73027Y87969D01*
X73032Y88014D01*
X73035Y88058D01*
X73038Y88097D01*
X73040Y88130D01*
X73043Y88158D01*
Y88180D01*
Y88191D01*
Y88197D01*
X73040Y88263D01*
X73038Y88324D01*
X73029Y88382D01*
X73021Y88435D01*
X73013Y88482D01*
X72999Y88526D01*
X72988Y88565D01*
X72974Y88598D01*
X72963Y88629D01*
X72949Y88654D01*
X72938Y88676D01*
X72930Y88692D01*
X72918Y88706D01*
X72913Y88715D01*
X72910Y88720D01*
X72907Y88723D01*
X72880Y88751D01*
X72852Y88776D01*
X72824Y88798D01*
X72794Y88817D01*
X72763Y88831D01*
X72733Y88845D01*
X72675Y88864D01*
X72622Y88875D01*
X72600Y88878D01*
X72583Y88881D01*
X72567Y88884D01*
X72544D01*
X72484Y88881D01*
X72428Y88870D01*
X72378Y88856D01*
X72339Y88839D01*
X72306Y88820D01*
X72284Y88806D01*
X72270Y88795D01*
X72265Y88792D01*
X72229Y88753D01*
X72198Y88712D01*
X72173Y88668D01*
X72154Y88623D01*
X72140Y88582D01*
X72129Y88551D01*
X72126Y88537D01*
Y88529D01*
X72123Y88524D01*
Y88521D01*
X71520Y88629D01*
X71542Y88695D01*
X71567Y88759D01*
X71594Y88817D01*
X71622Y88872D01*
X71653Y88922D01*
X71683Y88967D01*
X71711Y89008D01*
X71741Y89044D01*
X71769Y89078D01*
X71794Y89105D01*
X71819Y89130D01*
X71838Y89149D01*
X71855Y89163D01*
X71869Y89174D01*
X71877Y89180D01*
X71880Y89183D01*
X71930Y89216D01*
X71979Y89244D01*
X72035Y89269D01*
X72090Y89288D01*
X72146Y89307D01*
X72201Y89321D01*
X72256Y89332D01*
X72309Y89343D01*
X72359Y89352D01*
X72403Y89357D01*
X72445Y89360D01*
X72481Y89363D01*
X72509Y89366D01*
X72550D01*
X72644Y89363D01*
D02*
G37*
G36*
X46354D02*
X46443Y89352D01*
X46529Y89335D01*
X46606Y89316D01*
X46678Y89291D01*
X46747Y89263D01*
X46808Y89235D01*
X46864Y89205D01*
X46914Y89174D01*
X46958Y89147D01*
X46994Y89119D01*
X47025Y89094D01*
X47049Y89075D01*
X47066Y89058D01*
X47077Y89047D01*
X47080Y89044D01*
X47133Y88981D01*
X47180Y88914D01*
X47221Y88845D01*
X47254Y88770D01*
X47285Y88695D01*
X47307Y88623D01*
X47329Y88548D01*
X47343Y88479D01*
X47357Y88413D01*
X47365Y88352D01*
X47374Y88296D01*
X47376Y88247D01*
X47379Y88208D01*
X47382Y88177D01*
Y88166D01*
Y88158D01*
Y88155D01*
Y88152D01*
X47379Y88050D01*
X47368Y87953D01*
X47354Y87862D01*
X47335Y87776D01*
X47313Y87695D01*
X47288Y87623D01*
X47260Y87557D01*
X47232Y87499D01*
X47205Y87443D01*
X47177Y87396D01*
X47152Y87357D01*
X47130Y87324D01*
X47110Y87299D01*
X47096Y87280D01*
X47085Y87269D01*
X47083Y87266D01*
X47025Y87211D01*
X46961Y87161D01*
X46894Y87119D01*
X46828Y87083D01*
X46761Y87050D01*
X46692Y87025D01*
X46628Y87003D01*
X46565Y86986D01*
X46504Y86975D01*
X46448Y86964D01*
X46398Y86958D01*
X46354Y86953D01*
X46321Y86950D01*
X46293Y86947D01*
X46271D01*
X46191Y86950D01*
X46113Y86956D01*
X46038Y86967D01*
X45972Y86981D01*
X45908Y86997D01*
X45850Y87014D01*
X45797Y87033D01*
X45748Y87053D01*
X45703Y87072D01*
X45667Y87091D01*
X45634Y87108D01*
X45606Y87125D01*
X45587Y87138D01*
X45570Y87150D01*
X45562Y87155D01*
X45559Y87158D01*
X45512Y87199D01*
X45468Y87247D01*
X45426Y87294D01*
X45390Y87344D01*
X45357Y87396D01*
X45329Y87449D01*
X45301Y87501D01*
X45279Y87551D01*
X45260Y87598D01*
X45243Y87643D01*
X45230Y87681D01*
X45219Y87715D01*
X45210Y87745D01*
X45205Y87765D01*
X45199Y87778D01*
Y87784D01*
X45800Y87886D01*
X45809Y87842D01*
X45820Y87801D01*
X45833Y87765D01*
X45845Y87731D01*
X45858Y87698D01*
X45869Y87670D01*
X45883Y87645D01*
X45897Y87623D01*
X45908Y87604D01*
X45919Y87587D01*
X45939Y87562D01*
X45952Y87549D01*
X45958Y87543D01*
X46002Y87510D01*
X46049Y87488D01*
X46097Y87471D01*
X46141Y87457D01*
X46182Y87451D01*
X46213Y87449D01*
X46227Y87446D01*
X46243D01*
X46285Y87449D01*
X46326Y87454D01*
X46365Y87463D01*
X46401Y87474D01*
X46465Y87499D01*
X46518Y87532D01*
X46543Y87546D01*
X46562Y87562D01*
X46578Y87576D01*
X46592Y87590D01*
X46603Y87598D01*
X46612Y87607D01*
X46615Y87612D01*
X46617Y87615D01*
X46642Y87648D01*
X46662Y87690D01*
X46681Y87731D01*
X46695Y87778D01*
X46720Y87873D01*
X46736Y87969D01*
X46742Y88014D01*
X46745Y88058D01*
X46747Y88097D01*
X46750Y88130D01*
X46753Y88158D01*
Y88180D01*
Y88191D01*
Y88197D01*
X46750Y88263D01*
X46747Y88324D01*
X46739Y88382D01*
X46731Y88435D01*
X46723Y88482D01*
X46709Y88526D01*
X46698Y88565D01*
X46684Y88598D01*
X46673Y88629D01*
X46659Y88654D01*
X46648Y88676D01*
X46639Y88692D01*
X46628Y88706D01*
X46623Y88715D01*
X46620Y88720D01*
X46617Y88723D01*
X46590Y88751D01*
X46562Y88776D01*
X46534Y88798D01*
X46504Y88817D01*
X46473Y88831D01*
X46443Y88845D01*
X46385Y88864D01*
X46332Y88875D01*
X46310Y88878D01*
X46293Y88881D01*
X46277Y88884D01*
X46254D01*
X46194Y88881D01*
X46138Y88870D01*
X46088Y88856D01*
X46049Y88839D01*
X46016Y88820D01*
X45994Y88806D01*
X45980Y88795D01*
X45975Y88792D01*
X45939Y88753D01*
X45908Y88712D01*
X45883Y88668D01*
X45864Y88623D01*
X45850Y88582D01*
X45839Y88551D01*
X45836Y88537D01*
Y88529D01*
X45833Y88524D01*
Y88521D01*
X45230Y88629D01*
X45252Y88695D01*
X45277Y88759D01*
X45304Y88817D01*
X45332Y88872D01*
X45362Y88922D01*
X45393Y88967D01*
X45421Y89008D01*
X45451Y89044D01*
X45479Y89078D01*
X45504Y89105D01*
X45529Y89130D01*
X45548Y89149D01*
X45565Y89163D01*
X45579Y89174D01*
X45587Y89180D01*
X45590Y89183D01*
X45640Y89216D01*
X45689Y89244D01*
X45745Y89269D01*
X45800Y89288D01*
X45856Y89307D01*
X45911Y89321D01*
X45966Y89332D01*
X46019Y89343D01*
X46069Y89352D01*
X46113Y89357D01*
X46155Y89360D01*
X46191Y89363D01*
X46218Y89366D01*
X46260D01*
X46354Y89363D01*
D02*
G37*
G36*
X78500Y87000D02*
X77902D01*
Y89512D01*
X77270Y87000D01*
X76650D01*
X76018Y89512D01*
X76015Y87000D01*
X75417D01*
Y90194D01*
X76386D01*
X76957Y88014D01*
X77536Y90194D01*
X78500D01*
Y87000D01*
D02*
G37*
%LPC*%
G36*
X64949Y88898D02*
X64930D01*
X64894Y88895D01*
X64863Y88892D01*
X64800Y88875D01*
X64747Y88853D01*
X64700Y88828D01*
X64661Y88803D01*
X64633Y88781D01*
X64625Y88773D01*
X64617Y88765D01*
X64614Y88762D01*
X64611Y88759D01*
X64589Y88731D01*
X64567Y88701D01*
X64534Y88637D01*
X64509Y88571D01*
X64492Y88504D01*
X64487Y88474D01*
X64481Y88446D01*
X64478Y88421D01*
X64476Y88399D01*
Y88380D01*
X64473Y88366D01*
Y88357D01*
Y88354D01*
X65390D01*
X65387Y88399D01*
X65384Y88443D01*
X65370Y88521D01*
X65359Y88557D01*
X65348Y88590D01*
X65337Y88621D01*
X65323Y88645D01*
X65312Y88670D01*
X65301Y88692D01*
X65290Y88709D01*
X65279Y88723D01*
X65271Y88737D01*
X65265Y88745D01*
X65259Y88748D01*
Y88751D01*
X65235Y88776D01*
X65207Y88801D01*
X65182Y88820D01*
X65154Y88836D01*
X65099Y88861D01*
X65046Y88878D01*
X64999Y88889D01*
X64980Y88892D01*
X64963Y88895D01*
X64949Y88898D01*
D02*
G37*
G36*
X95773Y31243D02*
X93966D01*
X93749Y31235D01*
X93557Y31226D01*
X93383Y31218D01*
X93224Y31210D01*
X93083Y31201D01*
X92958Y31185D01*
X92849Y31176D01*
X92758Y31160D01*
X92683Y31143D01*
X92624Y31135D01*
X92575Y31126D01*
X92533Y31118D01*
X92508Y31110D01*
X92500Y31101D01*
X92491D01*
X92350Y31043D01*
X92225Y30976D01*
X92125Y30902D01*
X92033Y30835D01*
X91966Y30768D01*
X91925Y30710D01*
X91891Y30677D01*
X91883Y30660D01*
X91808Y30543D01*
X91758Y30418D01*
X91716Y30293D01*
X91691Y30185D01*
X91675Y30077D01*
X91667Y30002D01*
Y29969D01*
Y29943D01*
Y29935D01*
Y29927D01*
X91675Y29744D01*
X91708Y29585D01*
X91750Y29444D01*
X91800Y29327D01*
X91858Y29236D01*
X91900Y29169D01*
X91933Y29127D01*
X91941Y29111D01*
X92050Y29011D01*
X92166Y28927D01*
X92283Y28861D01*
X92400Y28811D01*
X92500Y28777D01*
X92575Y28752D01*
X92608Y28744D01*
X92633Y28736D01*
X92650D01*
X92708Y28727D01*
X92791Y28719D01*
X92874Y28711D01*
X92974Y28702D01*
X93199Y28694D01*
X93424Y28686D01*
X93532D01*
X93632Y28677D01*
X95773D01*
Y31243D01*
D02*
G37*
G36*
Y35058D02*
X94007D01*
X93832Y35050D01*
X93541D01*
X93424Y35041D01*
X93241D01*
X93174Y35033D01*
X93074D01*
X93041Y35025D01*
X93008D01*
X92841Y34991D01*
X92691Y34950D01*
X92566Y34892D01*
X92466Y34833D01*
X92383Y34775D01*
X92325Y34725D01*
X92291Y34700D01*
X92283Y34683D01*
X92200Y34575D01*
X92141Y34458D01*
X92091Y34333D01*
X92066Y34217D01*
X92050Y34117D01*
X92033Y34034D01*
Y34000D01*
Y33975D01*
Y33967D01*
Y33959D01*
X92041Y33792D01*
X92075Y33650D01*
X92125Y33517D01*
X92175Y33409D01*
X92233Y33325D01*
X92275Y33259D01*
X92308Y33226D01*
X92325Y33209D01*
X92441Y33117D01*
X92566Y33034D01*
X92691Y32976D01*
X92816Y32934D01*
X92933Y32901D01*
X93016Y32884D01*
X93049Y32876D01*
X93074Y32867D01*
X93158D01*
X93241Y32859D01*
X93332D01*
X93432Y32851D01*
X93666D01*
X93907Y32842D01*
X95773D01*
Y35058D01*
D02*
G37*
G36*
X54096Y88881D02*
X54074D01*
X54033Y88878D01*
X53997Y88872D01*
X53958Y88864D01*
X53925Y88853D01*
X53861Y88825D01*
X53808Y88792D01*
X53786Y88776D01*
X53767Y88759D01*
X53750Y88745D01*
X53733Y88731D01*
X53722Y88720D01*
X53714Y88712D01*
X53711Y88706D01*
X53708Y88704D01*
X53684Y88668D01*
X53659Y88629D01*
X53639Y88587D01*
X53623Y88546D01*
X53598Y88454D01*
X53581Y88368D01*
X53573Y88327D01*
X53570Y88288D01*
X53567Y88252D01*
X53565Y88224D01*
X53562Y88199D01*
Y88180D01*
Y88169D01*
Y88163D01*
X53565Y88094D01*
X53567Y88028D01*
X53575Y87967D01*
X53584Y87911D01*
X53595Y87859D01*
X53606Y87814D01*
X53620Y87773D01*
X53634Y87737D01*
X53648Y87704D01*
X53661Y87676D01*
X53672Y87654D01*
X53684Y87634D01*
X53692Y87621D01*
X53700Y87609D01*
X53703Y87604D01*
X53706Y87601D01*
X53733Y87571D01*
X53761Y87546D01*
X53792Y87524D01*
X53822Y87504D01*
X53850Y87488D01*
X53880Y87474D01*
X53938Y87454D01*
X53988Y87440D01*
X54008Y87438D01*
X54027Y87435D01*
X54041Y87432D01*
X54063D01*
X54105Y87435D01*
X54143Y87440D01*
X54179Y87449D01*
X54215Y87463D01*
X54279Y87490D01*
X54334Y87526D01*
X54357Y87543D01*
X54379Y87559D01*
X54398Y87573D01*
X54412Y87590D01*
X54423Y87601D01*
X54431Y87609D01*
X54437Y87615D01*
X54440Y87618D01*
X54467Y87654D01*
X54490Y87695D01*
X54512Y87740D01*
X54528Y87787D01*
X54556Y87881D01*
X54576Y87975D01*
X54581Y88019D01*
X54587Y88061D01*
X54589Y88097D01*
X54592Y88130D01*
X54595Y88158D01*
Y88177D01*
Y88188D01*
Y88194D01*
X54592Y88255D01*
X54589Y88313D01*
X54581Y88366D01*
X54573Y88415D01*
X54562Y88463D01*
X54548Y88504D01*
X54534Y88543D01*
X54520Y88576D01*
X54509Y88607D01*
X54495Y88634D01*
X54481Y88657D01*
X54470Y88673D01*
X54462Y88687D01*
X54454Y88698D01*
X54451Y88704D01*
X54448Y88706D01*
X54420Y88737D01*
X54390Y88765D01*
X54357Y88787D01*
X54326Y88806D01*
X54296Y88825D01*
X54265Y88839D01*
X54204Y88859D01*
X54152Y88872D01*
X54129Y88875D01*
X54110Y88878D01*
X54096Y88881D01*
D02*
G37*
G36*
X67052Y88111D02*
Y87989D01*
Y87950D01*
Y87911D01*
X67054Y87878D01*
Y87848D01*
X67057Y87823D01*
X67060Y87798D01*
X67063Y87776D01*
Y87756D01*
X67068Y87726D01*
X67074Y87706D01*
X67076Y87692D01*
Y87690D01*
X67093Y87648D01*
X67115Y87607D01*
X67137Y87573D01*
X67162Y87543D01*
X67187Y87521D01*
X67207Y87501D01*
X67218Y87490D01*
X67223Y87488D01*
X67279Y87451D01*
X67337Y87424D01*
X67390Y87407D01*
X67437Y87393D01*
X67478Y87385D01*
X67495Y87382D01*
X67511D01*
X67523Y87379D01*
X67539D01*
X67592Y87382D01*
X67642Y87393D01*
X67683Y87407D01*
X67719Y87427D01*
X67747Y87443D01*
X67769Y87457D01*
X67780Y87468D01*
X67786Y87471D01*
X67816Y87507D01*
X67841Y87546D01*
X67858Y87582D01*
X67869Y87618D01*
X67874Y87648D01*
X67877Y87670D01*
X67880Y87687D01*
Y87692D01*
X67877Y87717D01*
X67874Y87740D01*
X67860Y87781D01*
X67841Y87820D01*
X67819Y87850D01*
X67800Y87875D01*
X67780Y87895D01*
X67766Y87906D01*
X67761Y87909D01*
X67744Y87920D01*
X67725Y87928D01*
X67700Y87939D01*
X67675Y87947D01*
X67622Y87964D01*
X67564Y87981D01*
X67514Y87994D01*
X67489Y88000D01*
X67470Y88006D01*
X67453Y88008D01*
X67439Y88011D01*
X67431Y88014D01*
X67428D01*
X67381Y88025D01*
X67337Y88033D01*
X67298Y88044D01*
X67259Y88053D01*
X67226Y88061D01*
X67196Y88069D01*
X67168Y88077D01*
X67143Y88083D01*
X67121Y88089D01*
X67101Y88094D01*
X67088Y88100D01*
X67074Y88103D01*
X67065Y88108D01*
X67057D01*
X67052Y88111D01*
D02*
G37*
G36*
X56384D02*
Y87989D01*
Y87950D01*
Y87911D01*
X56387Y87878D01*
Y87848D01*
X56390Y87823D01*
X56393Y87798D01*
X56395Y87776D01*
Y87756D01*
X56401Y87726D01*
X56406Y87706D01*
X56409Y87692D01*
Y87690D01*
X56426Y87648D01*
X56448Y87607D01*
X56470Y87573D01*
X56495Y87543D01*
X56520Y87521D01*
X56539Y87501D01*
X56551Y87490D01*
X56556Y87488D01*
X56612Y87451D01*
X56670Y87424D01*
X56722Y87407D01*
X56769Y87393D01*
X56811Y87385D01*
X56827Y87382D01*
X56844D01*
X56855Y87379D01*
X56872D01*
X56924Y87382D01*
X56974Y87393D01*
X57016Y87407D01*
X57052Y87427D01*
X57080Y87443D01*
X57102Y87457D01*
X57113Y87468D01*
X57118Y87471D01*
X57149Y87507D01*
X57174Y87546D01*
X57190Y87582D01*
X57201Y87618D01*
X57207Y87648D01*
X57210Y87670D01*
X57213Y87687D01*
Y87692D01*
X57210Y87717D01*
X57207Y87740D01*
X57193Y87781D01*
X57174Y87820D01*
X57152Y87850D01*
X57132Y87875D01*
X57113Y87895D01*
X57099Y87906D01*
X57093Y87909D01*
X57077Y87920D01*
X57057Y87928D01*
X57033Y87939D01*
X57008Y87947D01*
X56955Y87964D01*
X56897Y87981D01*
X56847Y87994D01*
X56822Y88000D01*
X56803Y88006D01*
X56786Y88008D01*
X56772Y88011D01*
X56764Y88014D01*
X56761D01*
X56714Y88025D01*
X56670Y88033D01*
X56631Y88044D01*
X56592Y88053D01*
X56559Y88061D01*
X56528Y88069D01*
X56501Y88077D01*
X56476Y88083D01*
X56454Y88089D01*
X56434Y88094D01*
X56420Y88100D01*
X56406Y88103D01*
X56398Y88108D01*
X56390D01*
X56384Y88111D01*
D02*
G37*
%LPD*%
D21*
X29500Y0D02*
X140500D01*
X170500D01*
Y48000D01*
Y95500D01*
X12500D02*
X170500D01*
X12500Y29500D02*
Y95500D01*
Y0D02*
X29500D01*
X12500D02*
Y29500D01*
M02*
