G04 Layer_Color=16711935*
%FSLAX25Y25*%
%MOIN*%
G70*
G01*
G75*
%ADD21C,0.01000*%
%ADD41C,0.00394*%
D21*
X29500Y0D02*
X140500D01*
X170500D01*
Y48000D01*
Y95500D01*
X12500D02*
X170500D01*
X12500Y29500D02*
Y95500D01*
Y0D02*
X29500D01*
X12500D02*
Y29500D01*
D41*
X73402Y60559D02*
G03*
X73402Y60559I-1969J0D01*
G01*
X52346Y56079D02*
Y62968D01*
X48606Y56079D02*
Y62968D01*
X52346D01*
X48606Y56079D02*
X52346D01*
X58346D02*
Y62968D01*
X54606Y56079D02*
Y62968D01*
X58346D01*
X54606Y56079D02*
X58346D01*
Y44177D02*
Y50870D01*
X54606Y44177D02*
Y50870D01*
X58346D01*
X54606Y44177D02*
X58346D01*
X67791Y49339D02*
Y63709D01*
X82161Y49339D02*
Y63709D01*
X67791Y49339D02*
X82161D01*
X67791Y63709D02*
X82161D01*
X68630Y73654D02*
X75323D01*
X68630Y77394D02*
X75323D01*
Y73654D02*
Y77394D01*
X68630Y73654D02*
Y77394D01*
X89031Y66154D02*
X95921D01*
X89031Y69894D02*
X95921D01*
Y66154D02*
Y69894D01*
X89031Y66154D02*
Y69894D01*
X88846Y39579D02*
Y46468D01*
X85106Y39579D02*
Y46468D01*
X88846D01*
X85106Y39579D02*
X88846D01*
X87846Y28579D02*
Y35469D01*
X84106Y28579D02*
Y35469D01*
X87846D01*
X84106Y28579D02*
X87846D01*
X82346Y36177D02*
Y42870D01*
X78606Y36177D02*
Y42870D01*
X82346D01*
X78606Y36177D02*
X82346D01*
X93130Y46894D02*
X99823D01*
X93130Y43154D02*
X99823D01*
X93130D02*
Y46894D01*
X99823Y43154D02*
Y46894D01*
X109153Y38130D02*
X115847D01*
X109153Y41870D02*
X115847D01*
Y38130D02*
Y41870D01*
X109153Y38130D02*
Y41870D01*
X120653Y38130D02*
X127347D01*
X120653Y41870D02*
X127347D01*
Y38130D02*
Y41870D01*
X120653Y38130D02*
Y41870D01*
X137130Y61555D02*
Y68445D01*
X140870Y61555D02*
Y68445D01*
X137130Y61555D02*
X140870D01*
X137130Y68445D02*
X140870D01*
X103996Y44764D02*
X131004D01*
X103996Y70236D02*
X131004D01*
Y44764D02*
Y70236D01*
X103996Y44764D02*
Y70236D01*
X21870Y27654D02*
Y34347D01*
X18130Y27654D02*
Y34347D01*
X21870D01*
X18130Y27654D02*
X21870D01*
X155130Y61654D02*
Y68347D01*
X158870Y61654D02*
Y68347D01*
X155130Y61654D02*
X158870D01*
X155130Y68347D02*
X158870D01*
M02*
