G04 Layer_Physical_Order=2*
G04 Layer_Color=16711680*
%FSLAX25Y25*%
%MOIN*%
G70*
G01*
G75*
%ADD20C,0.05000*%
%ADD21C,0.01000*%
%ADD22C,0.02500*%
%ADD26R,0.14500X0.10000*%
%ADD28C,0.10000*%
%ADD29R,0.15000X0.10000*%
%ADD30C,0.05906*%
%ADD31R,0.05906X0.05906*%
%ADD32C,0.02300*%
%ADD33C,0.02000*%
%ADD34C,0.01969*%
%ADD35C,0.00100*%
%ADD36R,0.09500X0.09500*%
%ADD37R,0.09500X0.07921*%
%ADD38R,0.13500X0.10000*%
G36*
X59378Y14810D02*
X59463Y14806D01*
X59626Y14779D01*
X59700Y14763D01*
X59773Y14748D01*
X59839Y14728D01*
X59901Y14709D01*
X59956Y14685D01*
X60006Y14666D01*
X60049Y14651D01*
X60084Y14635D01*
X60115Y14619D01*
X60134Y14608D01*
X60150Y14604D01*
X60154Y14600D01*
X60223Y14557D01*
X60289Y14515D01*
X60351Y14464D01*
X60410Y14418D01*
X60460Y14367D01*
X60510Y14317D01*
X60553Y14266D01*
X60596Y14216D01*
X60631Y14169D01*
X60662Y14127D01*
X60685Y14092D01*
X60708Y14057D01*
X60724Y14030D01*
X60736Y14010D01*
X60743Y13995D01*
X60747Y13991D01*
X60782Y13917D01*
X60817Y13840D01*
X60844Y13766D01*
X60868Y13692D01*
X60906Y13553D01*
X60918Y13490D01*
X60930Y13428D01*
X60937Y13370D01*
X60945Y13320D01*
X60949Y13277D01*
X60953Y13238D01*
X60957Y13207D01*
Y13184D01*
Y13168D01*
Y13164D01*
X60953Y13064D01*
X60949Y12963D01*
X60937Y12870D01*
X60926Y12780D01*
X60906Y12695D01*
X60891Y12617D01*
X60871Y12548D01*
X60852Y12482D01*
X60833Y12420D01*
X60813Y12369D01*
X60794Y12323D01*
X60778Y12284D01*
X60767Y12253D01*
X60755Y12233D01*
X60751Y12218D01*
X60747Y12214D01*
X60704Y12144D01*
X60662Y12078D01*
X60611Y12016D01*
X60561Y11958D01*
X60510Y11903D01*
X60460Y11857D01*
X60410Y11814D01*
X60363Y11776D01*
X60316Y11741D01*
X60274Y11710D01*
X60235Y11682D01*
X60200Y11663D01*
X60173Y11644D01*
X60154Y11632D01*
X60138Y11628D01*
X60134Y11624D01*
X60057Y11589D01*
X59983Y11558D01*
X59905Y11531D01*
X59832Y11512D01*
X59688Y11473D01*
X59622Y11461D01*
X59556Y11450D01*
X59498Y11442D01*
X59447Y11438D01*
X59401Y11434D01*
X59362Y11430D01*
X59327Y11426D01*
X59284D01*
X59153Y11430D01*
X59025Y11446D01*
X58904Y11469D01*
X58792Y11500D01*
X58687Y11539D01*
X58590Y11578D01*
X58497Y11620D01*
X58415Y11667D01*
X58342Y11713D01*
X58276Y11756D01*
X58221Y11795D01*
X58175Y11834D01*
X58136Y11865D01*
X58113Y11888D01*
X58093Y11903D01*
X58089Y11907D01*
X58004Y12000D01*
X57930Y12098D01*
X57868Y12198D01*
X57814Y12303D01*
X57767Y12404D01*
X57729Y12505D01*
X57697Y12606D01*
X57670Y12699D01*
X57651Y12788D01*
X57635Y12870D01*
X57628Y12939D01*
X57620Y13005D01*
X57616Y13056D01*
X57612Y13095D01*
Y13106D01*
Y13118D01*
Y13122D01*
Y13126D01*
X57616Y13262D01*
X57632Y13386D01*
X57655Y13510D01*
X57686Y13622D01*
X57721Y13727D01*
X57763Y13828D01*
X57806Y13921D01*
X57849Y14003D01*
X57891Y14076D01*
X57934Y14142D01*
X57977Y14200D01*
X58012Y14247D01*
X58043Y14282D01*
X58066Y14309D01*
X58082Y14329D01*
X58086Y14332D01*
X58175Y14418D01*
X58272Y14491D01*
X58373Y14557D01*
X58470Y14612D01*
X58570Y14658D01*
X58671Y14697D01*
X58768Y14728D01*
X58862Y14755D01*
X58951Y14775D01*
X59032Y14786D01*
X59102Y14798D01*
X59168Y14806D01*
X59219Y14810D01*
X59257Y14814D01*
X59288D01*
X59378Y14810D01*
D02*
G37*
G36*
X70831D02*
X70917Y14806D01*
X71080Y14779D01*
X71153Y14763D01*
X71227Y14748D01*
X71293Y14728D01*
X71355Y14709D01*
X71409Y14685D01*
X71460Y14666D01*
X71503Y14651D01*
X71538Y14635D01*
X71569Y14619D01*
X71588Y14608D01*
X71603Y14604D01*
X71607Y14600D01*
X71677Y14557D01*
X71743Y14515D01*
X71805Y14464D01*
X71863Y14418D01*
X71914Y14367D01*
X71964Y14317D01*
X72007Y14266D01*
X72050Y14216D01*
X72085Y14169D01*
X72116Y14127D01*
X72139Y14092D01*
X72162Y14057D01*
X72178Y14030D01*
X72189Y14010D01*
X72197Y13995D01*
X72201Y13991D01*
X72236Y13917D01*
X72271Y13840D01*
X72298Y13766D01*
X72321Y13692D01*
X72360Y13553D01*
X72372Y13490D01*
X72383Y13428D01*
X72391Y13370D01*
X72399Y13320D01*
X72403Y13277D01*
X72407Y13238D01*
X72411Y13207D01*
Y13184D01*
Y13168D01*
Y13164D01*
X72407Y13064D01*
X72403Y12963D01*
X72391Y12870D01*
X72379Y12780D01*
X72360Y12695D01*
X72344Y12617D01*
X72325Y12548D01*
X72306Y12482D01*
X72286Y12420D01*
X72267Y12369D01*
X72247Y12323D01*
X72232Y12284D01*
X72220Y12253D01*
X72209Y12233D01*
X72205Y12218D01*
X72201Y12214D01*
X72158Y12144D01*
X72116Y12078D01*
X72065Y12016D01*
X72015Y11958D01*
X71964Y11903D01*
X71914Y11857D01*
X71863Y11814D01*
X71817Y11776D01*
X71770Y11741D01*
X71728Y11710D01*
X71689Y11682D01*
X71654Y11663D01*
X71627Y11644D01*
X71607Y11632D01*
X71592Y11628D01*
X71588Y11624D01*
X71510Y11589D01*
X71437Y11558D01*
X71359Y11531D01*
X71285Y11512D01*
X71142Y11473D01*
X71076Y11461D01*
X71010Y11450D01*
X70952Y11442D01*
X70901Y11438D01*
X70855Y11434D01*
X70816Y11430D01*
X70781Y11426D01*
X70738D01*
X70606Y11430D01*
X70478Y11446D01*
X70358Y11469D01*
X70245Y11500D01*
X70141Y11539D01*
X70044Y11578D01*
X69951Y11620D01*
X69869Y11667D01*
X69795Y11713D01*
X69729Y11756D01*
X69675Y11795D01*
X69629Y11834D01*
X69590Y11865D01*
X69566Y11888D01*
X69547Y11903D01*
X69543Y11907D01*
X69458Y12000D01*
X69384Y12098D01*
X69322Y12198D01*
X69268Y12303D01*
X69221Y12404D01*
X69182Y12505D01*
X69151Y12606D01*
X69124Y12699D01*
X69105Y12788D01*
X69089Y12870D01*
X69081Y12939D01*
X69074Y13005D01*
X69070Y13056D01*
X69066Y13095D01*
Y13106D01*
Y13118D01*
Y13122D01*
Y13126D01*
X69070Y13262D01*
X69085Y13386D01*
X69109Y13510D01*
X69140Y13622D01*
X69175Y13727D01*
X69217Y13828D01*
X69260Y13921D01*
X69303Y14003D01*
X69345Y14076D01*
X69388Y14142D01*
X69431Y14200D01*
X69466Y14247D01*
X69497Y14282D01*
X69520Y14309D01*
X69535Y14329D01*
X69539Y14332D01*
X69629Y14418D01*
X69726Y14491D01*
X69826Y14557D01*
X69923Y14612D01*
X70024Y14658D01*
X70125Y14697D01*
X70222Y14728D01*
X70315Y14755D01*
X70404Y14775D01*
X70486Y14786D01*
X70556Y14798D01*
X70622Y14806D01*
X70672Y14810D01*
X70711Y14814D01*
X70742D01*
X70831Y14810D01*
D02*
G37*
G36*
X84023D02*
X84109Y14806D01*
X84272Y14779D01*
X84345Y14763D01*
X84419Y14748D01*
X84485Y14728D01*
X84547Y14709D01*
X84601Y14685D01*
X84652Y14666D01*
X84695Y14651D01*
X84729Y14635D01*
X84760Y14619D01*
X84780Y14608D01*
X84795Y14604D01*
X84799Y14600D01*
X84869Y14557D01*
X84935Y14515D01*
X84997Y14464D01*
X85055Y14418D01*
X85106Y14367D01*
X85156Y14317D01*
X85199Y14266D01*
X85242Y14216D01*
X85277Y14169D01*
X85308Y14127D01*
X85331Y14092D01*
X85354Y14057D01*
X85370Y14030D01*
X85381Y14010D01*
X85389Y13995D01*
X85393Y13991D01*
X85428Y13917D01*
X85463Y13840D01*
X85490Y13766D01*
X85513Y13692D01*
X85552Y13553D01*
X85564Y13490D01*
X85575Y13428D01*
X85583Y13370D01*
X85591Y13320D01*
X85595Y13277D01*
X85599Y13238D01*
X85602Y13207D01*
Y13184D01*
Y13168D01*
Y13164D01*
X85599Y13064D01*
X85595Y12963D01*
X85583Y12870D01*
X85571Y12780D01*
X85552Y12695D01*
X85536Y12617D01*
X85517Y12548D01*
X85498Y12482D01*
X85478Y12420D01*
X85459Y12369D01*
X85439Y12323D01*
X85424Y12284D01*
X85412Y12253D01*
X85401Y12233D01*
X85397Y12218D01*
X85393Y12214D01*
X85350Y12144D01*
X85308Y12078D01*
X85257Y12016D01*
X85207Y11958D01*
X85156Y11903D01*
X85106Y11857D01*
X85055Y11814D01*
X85009Y11776D01*
X84962Y11741D01*
X84920Y11710D01*
X84881Y11682D01*
X84846Y11663D01*
X84819Y11644D01*
X84799Y11632D01*
X84784Y11628D01*
X84780Y11624D01*
X84702Y11589D01*
X84629Y11558D01*
X84551Y11531D01*
X84477Y11512D01*
X84334Y11473D01*
X84268Y11461D01*
X84202Y11450D01*
X84144Y11442D01*
X84093Y11438D01*
X84047Y11434D01*
X84008Y11430D01*
X83973Y11426D01*
X83930D01*
X83798Y11430D01*
X83670Y11446D01*
X83550Y11469D01*
X83437Y11500D01*
X83333Y11539D01*
X83236Y11578D01*
X83143Y11620D01*
X83061Y11667D01*
X82987Y11713D01*
X82921Y11756D01*
X82867Y11795D01*
X82820Y11834D01*
X82782Y11865D01*
X82758Y11888D01*
X82739Y11903D01*
X82735Y11907D01*
X82650Y12000D01*
X82576Y12098D01*
X82514Y12198D01*
X82460Y12303D01*
X82413Y12404D01*
X82374Y12505D01*
X82343Y12606D01*
X82316Y12699D01*
X82297Y12788D01*
X82281Y12870D01*
X82273Y12939D01*
X82266Y13005D01*
X82262Y13056D01*
X82258Y13095D01*
Y13106D01*
Y13118D01*
Y13122D01*
Y13126D01*
X82262Y13262D01*
X82277Y13386D01*
X82301Y13510D01*
X82332Y13622D01*
X82367Y13727D01*
X82409Y13828D01*
X82452Y13921D01*
X82495Y14003D01*
X82537Y14076D01*
X82580Y14142D01*
X82623Y14200D01*
X82658Y14247D01*
X82689Y14282D01*
X82712Y14309D01*
X82727Y14329D01*
X82731Y14332D01*
X82820Y14418D01*
X82917Y14491D01*
X83018Y14557D01*
X83115Y14612D01*
X83216Y14658D01*
X83317Y14697D01*
X83414Y14728D01*
X83507Y14755D01*
X83596Y14775D01*
X83678Y14786D01*
X83748Y14798D01*
X83814Y14806D01*
X83864Y14810D01*
X83903Y14814D01*
X83934D01*
X84023Y14810D01*
D02*
G37*
G36*
X51350Y14360D02*
X51427Y14441D01*
X51505Y14511D01*
X51587Y14569D01*
X51664Y14623D01*
X51746Y14666D01*
X51823Y14701D01*
X51901Y14732D01*
X51971Y14755D01*
X52037Y14775D01*
X52099Y14790D01*
X52153Y14798D01*
X52200Y14806D01*
X52238Y14810D01*
X52269Y14814D01*
X52293D01*
X52401Y14810D01*
X52506Y14794D01*
X52603Y14775D01*
X52696Y14748D01*
X52782Y14713D01*
X52863Y14678D01*
X52937Y14639D01*
X53007Y14600D01*
X53065Y14557D01*
X53119Y14519D01*
X53166Y14484D01*
X53205Y14449D01*
X53236Y14422D01*
X53255Y14402D01*
X53270Y14387D01*
X53274Y14383D01*
X53340Y14298D01*
X53402Y14208D01*
X53453Y14107D01*
X53496Y14006D01*
X53534Y13902D01*
X53565Y13797D01*
X53589Y13696D01*
X53612Y13595D01*
X53627Y13502D01*
X53639Y13413D01*
X53647Y13335D01*
X53651Y13265D01*
X53655Y13207D01*
X53658Y13184D01*
Y13164D01*
Y13149D01*
Y13137D01*
Y13134D01*
Y13130D01*
X53655Y12982D01*
X53643Y12846D01*
X53623Y12714D01*
X53596Y12594D01*
X53565Y12482D01*
X53534Y12381D01*
X53496Y12288D01*
X53461Y12202D01*
X53422Y12129D01*
X53387Y12063D01*
X53356Y12004D01*
X53325Y11958D01*
X53298Y11923D01*
X53278Y11896D01*
X53267Y11880D01*
X53263Y11876D01*
X53185Y11799D01*
X53108Y11729D01*
X53026Y11667D01*
X52944Y11616D01*
X52863Y11574D01*
X52785Y11535D01*
X52708Y11508D01*
X52634Y11485D01*
X52564Y11465D01*
X52502Y11450D01*
X52448Y11442D01*
X52397Y11434D01*
X52359Y11430D01*
X52328Y11426D01*
X52304D01*
X52203Y11434D01*
X52103Y11450D01*
X52009Y11469D01*
X51928Y11496D01*
X51893Y11508D01*
X51862Y11519D01*
X51831Y11531D01*
X51808Y11543D01*
X51788Y11550D01*
X51773Y11558D01*
X51765Y11562D01*
X51761D01*
X51664Y11620D01*
X51571Y11682D01*
X51493Y11752D01*
X51424Y11818D01*
X51365Y11880D01*
X51342Y11903D01*
X51323Y11927D01*
X51307Y11946D01*
X51296Y11962D01*
X51292Y11970D01*
X51288Y11973D01*
Y11500D01*
X50492D01*
Y15974D01*
X51350D01*
Y14360D01*
D02*
G37*
G36*
X82313Y5500D02*
X81475D01*
Y8422D01*
X79675Y5500D01*
X78767D01*
Y9974D01*
X79605D01*
Y6982D01*
X81436Y9974D01*
X82313D01*
Y5500D01*
D02*
G37*
G36*
X59514Y9915D02*
X59549Y9846D01*
X59588Y9776D01*
X59631Y9706D01*
X59674Y9644D01*
X59720Y9586D01*
X59767Y9531D01*
X59809Y9481D01*
X59852Y9434D01*
X59895Y9396D01*
X59930Y9361D01*
X59961Y9330D01*
X59988Y9306D01*
X60011Y9291D01*
X60023Y9279D01*
X60027Y9275D01*
X60100Y9221D01*
X60170Y9171D01*
X60240Y9124D01*
X60306Y9081D01*
X60368Y9042D01*
X60430Y9008D01*
X60484Y8980D01*
X60535Y8953D01*
X60585Y8930D01*
X60624Y8911D01*
X60663Y8895D01*
X60694Y8883D01*
X60717Y8872D01*
X60737Y8864D01*
X60748Y8860D01*
X60752D01*
Y8080D01*
X60636Y8123D01*
X60523Y8169D01*
X60415Y8216D01*
X60310Y8270D01*
X60213Y8325D01*
X60120Y8379D01*
X60038Y8429D01*
X59957Y8484D01*
X59887Y8534D01*
X59825Y8577D01*
X59771Y8619D01*
X59728Y8658D01*
X59689Y8686D01*
X59666Y8709D01*
X59646Y8724D01*
X59642Y8728D01*
Y5500D01*
X58785D01*
Y9993D01*
X59483D01*
X59514Y9915D01*
D02*
G37*
G36*
X99005Y5500D02*
X98148D01*
Y7122D01*
Y7196D01*
X98144Y7265D01*
X98140Y7331D01*
X98136Y7390D01*
X98128Y7444D01*
X98124Y7494D01*
X98116Y7541D01*
X98109Y7584D01*
X98101Y7619D01*
X98093Y7649D01*
X98089Y7677D01*
X98082Y7700D01*
X98078Y7716D01*
X98074Y7731D01*
X98070Y7735D01*
Y7739D01*
X98039Y7812D01*
X98000Y7875D01*
X97957Y7929D01*
X97919Y7975D01*
X97884Y8010D01*
X97853Y8034D01*
X97833Y8049D01*
X97825Y8053D01*
X97760Y8088D01*
X97698Y8115D01*
X97632Y8131D01*
X97573Y8146D01*
X97523Y8154D01*
X97480Y8158D01*
X97445D01*
X97375Y8154D01*
X97317Y8146D01*
X97263Y8131D01*
X97220Y8119D01*
X97181Y8104D01*
X97158Y8088D01*
X97139Y8080D01*
X97135Y8076D01*
X97092Y8045D01*
X97053Y8006D01*
X97026Y7972D01*
X96999Y7937D01*
X96984Y7906D01*
X96968Y7878D01*
X96964Y7863D01*
X96960Y7855D01*
X96952Y7824D01*
X96945Y7789D01*
X96937Y7746D01*
X96929Y7696D01*
X96921Y7591D01*
X96918Y7483D01*
X96914Y7428D01*
Y7378D01*
X96910Y7331D01*
Y7293D01*
Y7258D01*
Y7234D01*
Y7219D01*
Y7211D01*
Y5500D01*
X96052D01*
Y7397D01*
Y7479D01*
Y7553D01*
X96056Y7619D01*
X96060Y7684D01*
X96064Y7743D01*
X96068Y7793D01*
X96072Y7840D01*
X96076Y7882D01*
X96079Y7921D01*
X96083Y7952D01*
X96087Y7979D01*
X96091Y8003D01*
X96095Y8018D01*
Y8034D01*
X96099Y8038D01*
Y8041D01*
X96118Y8119D01*
X96142Y8189D01*
X96169Y8255D01*
X96200Y8309D01*
X96223Y8356D01*
X96246Y8391D01*
X96262Y8414D01*
X96266Y8422D01*
X96316Y8484D01*
X96371Y8538D01*
X96433Y8585D01*
X96491Y8627D01*
X96541Y8658D01*
X96584Y8682D01*
X96599Y8689D01*
X96611Y8697D01*
X96619Y8701D01*
X96623D01*
X96712Y8740D01*
X96805Y8767D01*
X96894Y8786D01*
X96980Y8798D01*
X97049Y8810D01*
X97081D01*
X97108Y8813D01*
X97158D01*
X97263Y8810D01*
X97364Y8794D01*
X97461Y8767D01*
X97554Y8736D01*
X97643Y8701D01*
X97725Y8658D01*
X97798Y8612D01*
X97868Y8569D01*
X97930Y8523D01*
X97985Y8476D01*
X98035Y8433D01*
X98074Y8398D01*
X98105Y8367D01*
X98128Y8340D01*
X98144Y8325D01*
X98148Y8321D01*
Y9974D01*
X99005D01*
Y5500D01*
D02*
G37*
G36*
X96494Y14360D02*
X96571Y14441D01*
X96649Y14511D01*
X96730Y14569D01*
X96808Y14623D01*
X96889Y14666D01*
X96967Y14701D01*
X97045Y14732D01*
X97114Y14755D01*
X97180Y14775D01*
X97242Y14790D01*
X97297Y14798D01*
X97343Y14806D01*
X97382Y14810D01*
X97413Y14814D01*
X97436D01*
X97545Y14810D01*
X97650Y14794D01*
X97747Y14775D01*
X97840Y14748D01*
X97925Y14713D01*
X98007Y14678D01*
X98081Y14639D01*
X98150Y14600D01*
X98209Y14557D01*
X98263Y14519D01*
X98309Y14484D01*
X98348Y14449D01*
X98379Y14422D01*
X98399Y14402D01*
X98414Y14387D01*
X98418Y14383D01*
X98484Y14298D01*
X98546Y14208D01*
X98597Y14107D01*
X98639Y14006D01*
X98678Y13902D01*
X98709Y13797D01*
X98732Y13696D01*
X98756Y13595D01*
X98771Y13502D01*
X98783Y13413D01*
X98791Y13335D01*
X98795Y13265D01*
X98798Y13207D01*
X98802Y13184D01*
Y13164D01*
Y13149D01*
Y13137D01*
Y13134D01*
Y13130D01*
X98798Y12982D01*
X98787Y12846D01*
X98767Y12714D01*
X98740Y12594D01*
X98709Y12482D01*
X98678Y12381D01*
X98639Y12288D01*
X98604Y12202D01*
X98566Y12129D01*
X98531Y12063D01*
X98500Y12004D01*
X98469Y11958D01*
X98441Y11923D01*
X98422Y11896D01*
X98410Y11880D01*
X98406Y11876D01*
X98329Y11799D01*
X98251Y11729D01*
X98170Y11667D01*
X98088Y11616D01*
X98007Y11574D01*
X97929Y11535D01*
X97852Y11508D01*
X97778Y11485D01*
X97708Y11465D01*
X97646Y11450D01*
X97592Y11442D01*
X97541Y11434D01*
X97502Y11430D01*
X97471Y11426D01*
X97448D01*
X97347Y11434D01*
X97246Y11450D01*
X97153Y11469D01*
X97072Y11496D01*
X97037Y11508D01*
X97006Y11519D01*
X96975Y11531D01*
X96952Y11543D01*
X96932Y11550D01*
X96917Y11558D01*
X96909Y11562D01*
X96905D01*
X96808Y11620D01*
X96715Y11682D01*
X96637Y11752D01*
X96567Y11818D01*
X96509Y11880D01*
X96486Y11903D01*
X96466Y11927D01*
X96451Y11946D01*
X96439Y11962D01*
X96435Y11970D01*
X96432Y11973D01*
Y11500D01*
X95636D01*
Y15974D01*
X96494D01*
Y14360D01*
D02*
G37*
G36*
X81587Y11500D02*
X80729D01*
Y14744D01*
X81587D01*
Y11500D01*
D02*
G37*
G36*
X89568D02*
X88664D01*
Y13188D01*
X87965D01*
X87861Y13192D01*
X87764Y13196D01*
X87674Y13199D01*
X87589Y13203D01*
X87511Y13207D01*
X87442Y13215D01*
X87379Y13219D01*
X87325Y13227D01*
X87279Y13230D01*
X87236Y13234D01*
X87201Y13242D01*
X87178Y13246D01*
X87158D01*
X87147Y13250D01*
X87143D01*
X87054Y13273D01*
X86968Y13304D01*
X86887Y13339D01*
X86817Y13374D01*
X86759Y13405D01*
X86735Y13421D01*
X86712Y13432D01*
X86697Y13444D01*
X86685Y13452D01*
X86677Y13459D01*
X86673D01*
X86592Y13525D01*
X86518Y13599D01*
X86452Y13673D01*
X86398Y13743D01*
X86351Y13805D01*
X86336Y13832D01*
X86320Y13855D01*
X86309Y13875D01*
X86301Y13890D01*
X86293Y13898D01*
Y13902D01*
X86243Y14014D01*
X86204Y14131D01*
X86177Y14247D01*
X86161Y14356D01*
X86153Y14406D01*
X86150Y14453D01*
X86146Y14491D01*
Y14526D01*
X86142Y14557D01*
Y14577D01*
Y14592D01*
Y14596D01*
X86146Y14693D01*
X86153Y14786D01*
X86165Y14876D01*
X86181Y14957D01*
X86204Y15035D01*
X86223Y15104D01*
X86247Y15170D01*
X86270Y15229D01*
X86297Y15283D01*
X86320Y15330D01*
X86340Y15372D01*
X86359Y15403D01*
X86379Y15430D01*
X86390Y15450D01*
X86398Y15461D01*
X86402Y15465D01*
X86452Y15527D01*
X86503Y15582D01*
X86557Y15632D01*
X86611Y15675D01*
X86666Y15718D01*
X86720Y15753D01*
X86770Y15784D01*
X86821Y15811D01*
X86867Y15834D01*
X86910Y15853D01*
X86949Y15869D01*
X86980Y15884D01*
X87007Y15892D01*
X87030Y15900D01*
X87042Y15904D01*
X87046D01*
X87100Y15915D01*
X87166Y15927D01*
X87240Y15935D01*
X87321Y15943D01*
X87407Y15950D01*
X87496Y15958D01*
X87678Y15966D01*
X87764Y15970D01*
X87923D01*
X87989Y15974D01*
X89568D01*
Y11500D01*
D02*
G37*
G36*
X115944Y14810D02*
X116014Y14798D01*
X116076Y14779D01*
X116130Y14763D01*
X116177Y14744D01*
X116212Y14724D01*
X116231Y14713D01*
X116239Y14709D01*
X116270Y14689D01*
X116301Y14662D01*
X116363Y14600D01*
X116425Y14530D01*
X116483Y14457D01*
X116530Y14391D01*
X116553Y14360D01*
X116569Y14336D01*
X116584Y14313D01*
X116596Y14298D01*
X116600Y14286D01*
X116604Y14282D01*
Y14744D01*
X117399D01*
Y11500D01*
X116542D01*
Y12501D01*
Y12649D01*
X116538Y12784D01*
X116534Y12908D01*
X116530Y13017D01*
X116526Y13118D01*
X116518Y13207D01*
X116514Y13285D01*
X116507Y13351D01*
X116499Y13409D01*
X116495Y13459D01*
X116487Y13498D01*
X116483Y13529D01*
X116480Y13556D01*
X116476Y13572D01*
X116472Y13580D01*
Y13584D01*
X116445Y13673D01*
X116414Y13750D01*
X116379Y13813D01*
X116348Y13863D01*
X116320Y13898D01*
X116297Y13925D01*
X116282Y13940D01*
X116278Y13944D01*
X116227Y13979D01*
X116177Y14003D01*
X116123Y14022D01*
X116076Y14034D01*
X116033Y14041D01*
X116002Y14045D01*
X115971D01*
X115901Y14038D01*
X115828Y14022D01*
X115762Y13999D01*
X115700Y13975D01*
X115645Y13948D01*
X115603Y13925D01*
X115587Y13913D01*
X115576Y13909D01*
X115572Y13902D01*
X115568D01*
X115300Y14651D01*
X115405Y14705D01*
X115506Y14744D01*
X115599Y14775D01*
X115688Y14794D01*
X115727Y14802D01*
X115758Y14806D01*
X115789Y14810D01*
X115816D01*
X115839Y14814D01*
X115866D01*
X115944Y14810D01*
D02*
G37*
G36*
X78110Y14806D02*
X78223Y14790D01*
X78331Y14763D01*
X78432Y14728D01*
X78525Y14685D01*
X78615Y14639D01*
X78696Y14592D01*
X78770Y14542D01*
X78836Y14488D01*
X78894Y14441D01*
X78944Y14394D01*
X78983Y14352D01*
X79018Y14317D01*
X79041Y14290D01*
X79057Y14274D01*
X79061Y14266D01*
Y14744D01*
X79856D01*
Y11500D01*
X78999D01*
Y12967D01*
Y13064D01*
X78995Y13153D01*
X78991Y13238D01*
X78987Y13312D01*
X78983Y13382D01*
X78979Y13440D01*
X78972Y13494D01*
X78968Y13545D01*
X78960Y13584D01*
X78956Y13619D01*
X78952Y13649D01*
X78944Y13673D01*
X78940Y13688D01*
Y13704D01*
X78937Y13708D01*
Y13712D01*
X78906Y13785D01*
X78871Y13847D01*
X78832Y13902D01*
X78793Y13948D01*
X78754Y13983D01*
X78723Y14010D01*
X78704Y14030D01*
X78696Y14034D01*
X78626Y14076D01*
X78556Y14107D01*
X78490Y14127D01*
X78428Y14142D01*
X78374Y14150D01*
X78331Y14158D01*
X78293D01*
X78231Y14154D01*
X78172Y14142D01*
X78122Y14131D01*
X78079Y14115D01*
X78044Y14096D01*
X78021Y14084D01*
X78002Y14072D01*
X77998Y14069D01*
X77955Y14034D01*
X77916Y13995D01*
X77885Y13956D01*
X77862Y13917D01*
X77842Y13882D01*
X77831Y13855D01*
X77823Y13836D01*
X77819Y13828D01*
X77808Y13797D01*
X77800Y13754D01*
X77792Y13708D01*
X77784Y13657D01*
X77776Y13549D01*
X77769Y13432D01*
X77765Y13378D01*
Y13328D01*
X77761Y13281D01*
Y13238D01*
Y13203D01*
Y13176D01*
Y13161D01*
Y13153D01*
Y11500D01*
X76903D01*
Y13514D01*
Y13584D01*
X76907Y13646D01*
Y13704D01*
X76911Y13762D01*
X76915Y13813D01*
X76919Y13859D01*
X76923Y13902D01*
X76927Y13940D01*
X76935Y13975D01*
X76938Y14006D01*
X76942Y14030D01*
X76946Y14049D01*
X76950Y14069D01*
Y14080D01*
X76954Y14084D01*
Y14088D01*
X76973Y14162D01*
X77000Y14232D01*
X77028Y14290D01*
X77055Y14344D01*
X77082Y14387D01*
X77101Y14422D01*
X77117Y14441D01*
X77121Y14449D01*
X77171Y14507D01*
X77226Y14557D01*
X77288Y14600D01*
X77346Y14639D01*
X77396Y14670D01*
X77439Y14689D01*
X77455Y14697D01*
X77466Y14705D01*
X77474Y14709D01*
X77478D01*
X77567Y14744D01*
X77656Y14771D01*
X77742Y14786D01*
X77823Y14802D01*
X77893Y14810D01*
X77920D01*
X77947Y14814D01*
X77994D01*
X78110Y14806D01*
D02*
G37*
G36*
X101045Y14810D02*
X101130Y14806D01*
X101293Y14779D01*
X101367Y14763D01*
X101441Y14748D01*
X101507Y14728D01*
X101569Y14709D01*
X101623Y14685D01*
X101673Y14666D01*
X101716Y14651D01*
X101751Y14635D01*
X101782Y14619D01*
X101802Y14608D01*
X101817Y14604D01*
X101821Y14600D01*
X101891Y14557D01*
X101957Y14515D01*
X102019Y14464D01*
X102077Y14418D01*
X102127Y14367D01*
X102178Y14317D01*
X102220Y14266D01*
X102263Y14216D01*
X102298Y14169D01*
X102329Y14127D01*
X102352Y14092D01*
X102376Y14057D01*
X102391Y14030D01*
X102403Y14010D01*
X102411Y13995D01*
X102415Y13991D01*
X102449Y13917D01*
X102484Y13840D01*
X102512Y13766D01*
X102535Y13692D01*
X102574Y13553D01*
X102585Y13490D01*
X102597Y13428D01*
X102605Y13370D01*
X102612Y13320D01*
X102616Y13277D01*
X102620Y13238D01*
X102624Y13207D01*
Y13184D01*
Y13168D01*
Y13164D01*
X102620Y13064D01*
X102616Y12963D01*
X102605Y12870D01*
X102593Y12780D01*
X102574Y12695D01*
X102558Y12617D01*
X102539Y12548D01*
X102519Y12482D01*
X102500Y12420D01*
X102480Y12369D01*
X102461Y12323D01*
X102446Y12284D01*
X102434Y12253D01*
X102422Y12233D01*
X102418Y12218D01*
X102415Y12214D01*
X102372Y12144D01*
X102329Y12078D01*
X102279Y12016D01*
X102228Y11958D01*
X102178Y11903D01*
X102127Y11857D01*
X102077Y11814D01*
X102030Y11776D01*
X101984Y11741D01*
X101941Y11710D01*
X101902Y11682D01*
X101867Y11663D01*
X101840Y11644D01*
X101821Y11632D01*
X101805Y11628D01*
X101802Y11624D01*
X101724Y11589D01*
X101650Y11558D01*
X101573Y11531D01*
X101499Y11512D01*
X101355Y11473D01*
X101289Y11461D01*
X101223Y11450D01*
X101165Y11442D01*
X101115Y11438D01*
X101068Y11434D01*
X101029Y11430D01*
X100994Y11426D01*
X100952D01*
X100820Y11430D01*
X100692Y11446D01*
X100572Y11469D01*
X100459Y11500D01*
X100354Y11539D01*
X100257Y11578D01*
X100164Y11620D01*
X100083Y11667D01*
X100009Y11713D01*
X99943Y11756D01*
X99889Y11795D01*
X99842Y11834D01*
X99803Y11865D01*
X99780Y11888D01*
X99761Y11903D01*
X99757Y11907D01*
X99671Y12000D01*
X99598Y12098D01*
X99536Y12198D01*
X99481Y12303D01*
X99435Y12404D01*
X99396Y12505D01*
X99365Y12606D01*
X99338Y12699D01*
X99318Y12788D01*
X99303Y12870D01*
X99295Y12939D01*
X99287Y13005D01*
X99283Y13056D01*
X99279Y13095D01*
Y13106D01*
Y13118D01*
Y13122D01*
Y13126D01*
X99283Y13262D01*
X99299Y13386D01*
X99322Y13510D01*
X99353Y13622D01*
X99388Y13727D01*
X99431Y13828D01*
X99474Y13921D01*
X99516Y14003D01*
X99559Y14076D01*
X99602Y14142D01*
X99644Y14200D01*
X99679Y14247D01*
X99710Y14282D01*
X99733Y14309D01*
X99749Y14329D01*
X99753Y14332D01*
X99842Y14418D01*
X99939Y14491D01*
X100040Y14557D01*
X100137Y14612D01*
X100238Y14658D01*
X100339Y14697D01*
X100436Y14728D01*
X100529Y14755D01*
X100618Y14775D01*
X100700Y14786D01*
X100769Y14798D01*
X100835Y14806D01*
X100886Y14810D01*
X100925Y14814D01*
X100956D01*
X101045Y14810D01*
D02*
G37*
G36*
X64546Y11500D02*
X61399D01*
Y12257D01*
X63642D01*
Y15939D01*
X64546D01*
Y11500D01*
D02*
G37*
G36*
X67425Y16047D02*
X67541Y16032D01*
X67642Y16012D01*
X67685Y16001D01*
X67727Y15989D01*
X67762Y15974D01*
X67797Y15962D01*
X67824Y15954D01*
X67848Y15943D01*
X67867Y15935D01*
X67879Y15927D01*
X67886Y15923D01*
X67890D01*
X67972Y15873D01*
X68038Y15818D01*
X68092Y15764D01*
X68135Y15710D01*
X68170Y15663D01*
X68193Y15628D01*
X68201Y15613D01*
X68205Y15601D01*
X68208Y15597D01*
Y15593D01*
X68224Y15555D01*
X68236Y15512D01*
X68259Y15415D01*
X68274Y15314D01*
X68282Y15213D01*
X68286Y15167D01*
X68290Y15124D01*
Y15085D01*
X68294Y15050D01*
Y15023D01*
Y15004D01*
Y14988D01*
Y14984D01*
Y14744D01*
X68771D01*
Y14069D01*
X68294D01*
Y11500D01*
X67436D01*
Y14069D01*
X66796D01*
Y14744D01*
X67436D01*
Y14973D01*
X67432Y15058D01*
X67425Y15128D01*
X67413Y15186D01*
X67397Y15233D01*
X67382Y15268D01*
X67370Y15291D01*
X67363Y15302D01*
X67359Y15306D01*
X67324Y15337D01*
X67281Y15357D01*
X67238Y15372D01*
X67196Y15384D01*
X67153Y15392D01*
X67122Y15395D01*
X67091D01*
X67021Y15392D01*
X66947Y15388D01*
X66882Y15380D01*
X66823Y15372D01*
X66769Y15361D01*
X66730Y15353D01*
X66715Y15349D01*
X66703D01*
X66699Y15345D01*
X66695D01*
X66579Y15939D01*
X66711Y15978D01*
X66839Y16005D01*
X66959Y16024D01*
X67017Y16032D01*
X67072Y16036D01*
X67118Y16044D01*
X67161Y16047D01*
X67200D01*
X67235Y16051D01*
X67297D01*
X67425Y16047D01*
D02*
G37*
G36*
X93798Y8810D02*
X93883Y8806D01*
X94046Y8779D01*
X94120Y8763D01*
X94194Y8748D01*
X94260Y8728D01*
X94322Y8709D01*
X94376Y8686D01*
X94427Y8666D01*
X94469Y8651D01*
X94504Y8635D01*
X94535Y8619D01*
X94555Y8608D01*
X94570Y8604D01*
X94574Y8600D01*
X94644Y8557D01*
X94710Y8515D01*
X94772Y8464D01*
X94830Y8418D01*
X94881Y8367D01*
X94931Y8317D01*
X94974Y8266D01*
X95016Y8216D01*
X95051Y8169D01*
X95082Y8127D01*
X95106Y8092D01*
X95129Y8057D01*
X95144Y8030D01*
X95156Y8010D01*
X95164Y7995D01*
X95168Y7991D01*
X95203Y7917D01*
X95238Y7840D01*
X95265Y7766D01*
X95288Y7692D01*
X95327Y7553D01*
X95338Y7490D01*
X95350Y7428D01*
X95358Y7370D01*
X95366Y7320D01*
X95369Y7277D01*
X95373Y7238D01*
X95377Y7207D01*
Y7184D01*
Y7168D01*
Y7164D01*
X95373Y7064D01*
X95369Y6963D01*
X95358Y6870D01*
X95346Y6780D01*
X95327Y6695D01*
X95311Y6617D01*
X95292Y6548D01*
X95272Y6482D01*
X95253Y6420D01*
X95234Y6369D01*
X95214Y6323D01*
X95199Y6284D01*
X95187Y6253D01*
X95175Y6233D01*
X95172Y6218D01*
X95168Y6214D01*
X95125Y6144D01*
X95082Y6078D01*
X95032Y6016D01*
X94981Y5958D01*
X94931Y5903D01*
X94881Y5857D01*
X94830Y5814D01*
X94784Y5776D01*
X94737Y5741D01*
X94694Y5709D01*
X94656Y5682D01*
X94621Y5663D01*
X94594Y5644D01*
X94574Y5632D01*
X94559Y5628D01*
X94555Y5624D01*
X94477Y5589D01*
X94403Y5558D01*
X94326Y5531D01*
X94252Y5512D01*
X94108Y5473D01*
X94042Y5461D01*
X93977Y5450D01*
X93918Y5442D01*
X93868Y5438D01*
X93821Y5434D01*
X93783Y5430D01*
X93748Y5426D01*
X93705D01*
X93573Y5430D01*
X93445Y5446D01*
X93325Y5469D01*
X93212Y5500D01*
X93107Y5539D01*
X93010Y5578D01*
X92917Y5620D01*
X92836Y5667D01*
X92762Y5713D01*
X92696Y5756D01*
X92642Y5795D01*
X92595Y5834D01*
X92557Y5865D01*
X92533Y5888D01*
X92514Y5903D01*
X92510Y5907D01*
X92425Y6001D01*
X92351Y6098D01*
X92289Y6198D01*
X92234Y6303D01*
X92188Y6404D01*
X92149Y6505D01*
X92118Y6606D01*
X92091Y6699D01*
X92071Y6788D01*
X92056Y6870D01*
X92048Y6939D01*
X92040Y7005D01*
X92037Y7056D01*
X92033Y7095D01*
Y7106D01*
Y7118D01*
Y7122D01*
Y7126D01*
X92037Y7261D01*
X92052Y7386D01*
X92075Y7510D01*
X92106Y7622D01*
X92141Y7727D01*
X92184Y7828D01*
X92227Y7921D01*
X92269Y8003D01*
X92312Y8076D01*
X92355Y8142D01*
X92397Y8201D01*
X92432Y8247D01*
X92463Y8282D01*
X92487Y8309D01*
X92502Y8328D01*
X92506Y8332D01*
X92595Y8418D01*
X92692Y8491D01*
X92793Y8557D01*
X92890Y8612D01*
X92991Y8658D01*
X93092Y8697D01*
X93189Y8728D01*
X93282Y8755D01*
X93371Y8775D01*
X93453Y8786D01*
X93523Y8798D01*
X93589Y8806D01*
X93639Y8810D01*
X93678Y8813D01*
X93709D01*
X93798Y8810D01*
D02*
G37*
G36*
X118456D02*
X118541Y8806D01*
X118704Y8779D01*
X118778Y8763D01*
X118851Y8748D01*
X118917Y8728D01*
X118979Y8709D01*
X119034Y8686D01*
X119084Y8666D01*
X119127Y8651D01*
X119162Y8635D01*
X119193Y8619D01*
X119212Y8608D01*
X119228Y8604D01*
X119231Y8600D01*
X119301Y8557D01*
X119367Y8515D01*
X119429Y8464D01*
X119488Y8418D01*
X119538Y8367D01*
X119588Y8317D01*
X119631Y8266D01*
X119674Y8216D01*
X119709Y8169D01*
X119740Y8127D01*
X119763Y8092D01*
X119786Y8057D01*
X119802Y8030D01*
X119814Y8010D01*
X119821Y7995D01*
X119825Y7991D01*
X119860Y7917D01*
X119895Y7840D01*
X119922Y7766D01*
X119945Y7692D01*
X119984Y7553D01*
X119996Y7490D01*
X120008Y7428D01*
X120015Y7370D01*
X120023Y7320D01*
X120027Y7277D01*
X120031Y7238D01*
X120035Y7207D01*
Y7184D01*
Y7168D01*
Y7164D01*
X120031Y7064D01*
X120027Y6963D01*
X120015Y6870D01*
X120004Y6780D01*
X119984Y6695D01*
X119969Y6617D01*
X119949Y6548D01*
X119930Y6482D01*
X119911Y6420D01*
X119891Y6369D01*
X119872Y6323D01*
X119856Y6284D01*
X119844Y6253D01*
X119833Y6233D01*
X119829Y6218D01*
X119825Y6214D01*
X119782Y6144D01*
X119740Y6078D01*
X119689Y6016D01*
X119639Y5958D01*
X119588Y5903D01*
X119538Y5857D01*
X119488Y5814D01*
X119441Y5776D01*
X119394Y5741D01*
X119352Y5709D01*
X119313Y5682D01*
X119278Y5663D01*
X119251Y5644D01*
X119231Y5632D01*
X119216Y5628D01*
X119212Y5624D01*
X119134Y5589D01*
X119061Y5558D01*
X118983Y5531D01*
X118909Y5512D01*
X118766Y5473D01*
X118700Y5461D01*
X118634Y5450D01*
X118576Y5442D01*
X118525Y5438D01*
X118479Y5434D01*
X118440Y5430D01*
X118405Y5426D01*
X118362D01*
X118230Y5430D01*
X118102Y5446D01*
X117982Y5469D01*
X117870Y5500D01*
X117765Y5539D01*
X117668Y5578D01*
X117575Y5620D01*
X117493Y5667D01*
X117420Y5713D01*
X117354Y5756D01*
X117299Y5795D01*
X117253Y5834D01*
X117214Y5865D01*
X117191Y5888D01*
X117171Y5903D01*
X117167Y5907D01*
X117082Y6001D01*
X117008Y6098D01*
X116946Y6198D01*
X116892Y6303D01*
X116845Y6404D01*
X116806Y6505D01*
X116775Y6606D01*
X116748Y6699D01*
X116729Y6788D01*
X116713Y6870D01*
X116706Y6939D01*
X116698Y7005D01*
X116694Y7056D01*
X116690Y7095D01*
Y7106D01*
Y7118D01*
Y7122D01*
Y7126D01*
X116694Y7261D01*
X116709Y7386D01*
X116733Y7510D01*
X116764Y7622D01*
X116799Y7727D01*
X116841Y7828D01*
X116884Y7921D01*
X116927Y8003D01*
X116969Y8076D01*
X117012Y8142D01*
X117055Y8201D01*
X117090Y8247D01*
X117121Y8282D01*
X117144Y8309D01*
X117160Y8328D01*
X117163Y8332D01*
X117253Y8418D01*
X117350Y8491D01*
X117451Y8557D01*
X117548Y8612D01*
X117648Y8658D01*
X117749Y8697D01*
X117846Y8728D01*
X117939Y8755D01*
X118029Y8775D01*
X118110Y8786D01*
X118180Y8798D01*
X118246Y8806D01*
X118296Y8810D01*
X118335Y8813D01*
X118366D01*
X118456Y8810D01*
D02*
G37*
G36*
X57322Y5500D02*
X56465D01*
Y6357D01*
X57322D01*
Y5500D01*
D02*
G37*
G36*
X89247Y8360D02*
X89324Y8441D01*
X89402Y8511D01*
X89483Y8569D01*
X89561Y8623D01*
X89643Y8666D01*
X89720Y8701D01*
X89798Y8732D01*
X89868Y8755D01*
X89934Y8775D01*
X89996Y8790D01*
X90050Y8798D01*
X90097Y8806D01*
X90135Y8810D01*
X90166Y8813D01*
X90190D01*
X90298Y8810D01*
X90403Y8794D01*
X90500Y8775D01*
X90593Y8748D01*
X90679Y8713D01*
X90760Y8678D01*
X90834Y8639D01*
X90904Y8600D01*
X90962Y8557D01*
X91016Y8519D01*
X91063Y8484D01*
X91101Y8449D01*
X91132Y8422D01*
X91152Y8402D01*
X91167Y8387D01*
X91171Y8383D01*
X91237Y8298D01*
X91299Y8208D01*
X91350Y8107D01*
X91392Y8006D01*
X91431Y7902D01*
X91462Y7797D01*
X91486Y7696D01*
X91509Y7595D01*
X91524Y7502D01*
X91536Y7413D01*
X91544Y7335D01*
X91548Y7265D01*
X91552Y7207D01*
X91555Y7184D01*
Y7164D01*
Y7149D01*
Y7137D01*
Y7134D01*
Y7130D01*
X91552Y6982D01*
X91540Y6846D01*
X91521Y6714D01*
X91493Y6594D01*
X91462Y6482D01*
X91431Y6381D01*
X91392Y6288D01*
X91358Y6202D01*
X91319Y6129D01*
X91284Y6063D01*
X91253Y6004D01*
X91222Y5958D01*
X91195Y5923D01*
X91175Y5896D01*
X91164Y5880D01*
X91160Y5876D01*
X91082Y5799D01*
X91005Y5729D01*
X90923Y5667D01*
X90842Y5616D01*
X90760Y5574D01*
X90682Y5535D01*
X90605Y5508D01*
X90531Y5485D01*
X90461Y5465D01*
X90399Y5450D01*
X90345Y5442D01*
X90294Y5434D01*
X90256Y5430D01*
X90225Y5426D01*
X90201D01*
X90100Y5434D01*
X90000Y5450D01*
X89906Y5469D01*
X89825Y5496D01*
X89790Y5508D01*
X89759Y5519D01*
X89728Y5531D01*
X89705Y5543D01*
X89685Y5550D01*
X89670Y5558D01*
X89662Y5562D01*
X89658D01*
X89561Y5620D01*
X89468Y5682D01*
X89390Y5752D01*
X89321Y5818D01*
X89262Y5880D01*
X89239Y5903D01*
X89220Y5927D01*
X89204Y5946D01*
X89192Y5962D01*
X89189Y5970D01*
X89185Y5973D01*
Y5500D01*
X88389D01*
Y9974D01*
X89247D01*
Y8360D01*
D02*
G37*
G36*
X54435Y9989D02*
X54544Y9974D01*
X54649Y9950D01*
X54750Y9919D01*
X54839Y9884D01*
X54921Y9846D01*
X54998Y9807D01*
X55064Y9764D01*
X55126Y9718D01*
X55180Y9679D01*
X55223Y9640D01*
X55262Y9605D01*
X55289Y9574D01*
X55312Y9551D01*
X55324Y9535D01*
X55328Y9531D01*
X55367Y9477D01*
X55405Y9419D01*
X55471Y9295D01*
X55530Y9159D01*
X55580Y9011D01*
X55623Y8864D01*
X55658Y8713D01*
X55689Y8561D01*
X55712Y8414D01*
X55731Y8274D01*
X55743Y8142D01*
X55755Y8022D01*
Y7968D01*
X55759Y7917D01*
X55762Y7875D01*
Y7832D01*
X55766Y7797D01*
Y7766D01*
Y7743D01*
Y7727D01*
Y7716D01*
Y7712D01*
Y7591D01*
X55762Y7479D01*
X55755Y7370D01*
X55751Y7265D01*
X55739Y7164D01*
X55727Y7068D01*
X55716Y6978D01*
X55704Y6889D01*
X55689Y6804D01*
X55673Y6726D01*
X55658Y6652D01*
X55638Y6579D01*
X55623Y6513D01*
X55603Y6451D01*
X55584Y6389D01*
X55565Y6334D01*
X55530Y6233D01*
X55495Y6148D01*
X55460Y6078D01*
X55429Y6020D01*
X55402Y5977D01*
X55382Y5946D01*
X55371Y5931D01*
X55367Y5923D01*
X55289Y5834D01*
X55208Y5756D01*
X55122Y5690D01*
X55033Y5632D01*
X54944Y5585D01*
X54858Y5547D01*
X54773Y5512D01*
X54692Y5485D01*
X54614Y5465D01*
X54544Y5450D01*
X54478Y5438D01*
X54424Y5430D01*
X54377Y5426D01*
X54342Y5422D01*
X54315D01*
X54195Y5426D01*
X54086Y5442D01*
X53978Y5465D01*
X53881Y5492D01*
X53791Y5527D01*
X53710Y5566D01*
X53632Y5609D01*
X53562Y5651D01*
X53504Y5694D01*
X53450Y5737D01*
X53407Y5776D01*
X53369Y5810D01*
X53341Y5838D01*
X53318Y5861D01*
X53306Y5876D01*
X53303Y5880D01*
X53264Y5935D01*
X53225Y5993D01*
X53155Y6117D01*
X53097Y6257D01*
X53046Y6400D01*
X53004Y6548D01*
X52969Y6703D01*
X52938Y6854D01*
X52915Y7002D01*
X52899Y7141D01*
X52883Y7273D01*
X52872Y7393D01*
Y7448D01*
X52868Y7498D01*
X52864Y7541D01*
Y7584D01*
X52860Y7619D01*
Y7649D01*
Y7673D01*
Y7688D01*
Y7700D01*
Y7704D01*
Y7820D01*
X52864Y7933D01*
X52872Y8041D01*
X52880Y8146D01*
X52887Y8247D01*
X52899Y8344D01*
X52915Y8437D01*
X52930Y8526D01*
X52946Y8612D01*
X52961Y8689D01*
X52981Y8767D01*
X53000Y8841D01*
X53039Y8973D01*
X53078Y9093D01*
X53120Y9198D01*
X53159Y9287D01*
X53198Y9361D01*
X53229Y9423D01*
X53260Y9469D01*
X53279Y9500D01*
X53295Y9520D01*
X53299Y9527D01*
X53369Y9609D01*
X53446Y9683D01*
X53528Y9745D01*
X53613Y9795D01*
X53694Y9842D01*
X53780Y9881D01*
X53865Y9912D01*
X53943Y9935D01*
X54020Y9954D01*
X54090Y9970D01*
X54152Y9978D01*
X54207Y9985D01*
X54253Y9989D01*
X54288Y9993D01*
X54315D01*
X54435Y9989D01*
D02*
G37*
G36*
X71884Y8360D02*
X71961Y8441D01*
X72039Y8511D01*
X72120Y8569D01*
X72198Y8623D01*
X72280Y8666D01*
X72357Y8701D01*
X72435Y8732D01*
X72505Y8755D01*
X72571Y8775D01*
X72633Y8790D01*
X72687Y8798D01*
X72734Y8806D01*
X72772Y8810D01*
X72803Y8813D01*
X72827D01*
X72935Y8810D01*
X73040Y8794D01*
X73137Y8775D01*
X73230Y8748D01*
X73316Y8713D01*
X73397Y8678D01*
X73471Y8639D01*
X73541Y8600D01*
X73599Y8557D01*
X73653Y8519D01*
X73700Y8484D01*
X73738Y8449D01*
X73769Y8422D01*
X73789Y8402D01*
X73804Y8387D01*
X73808Y8383D01*
X73874Y8298D01*
X73936Y8208D01*
X73987Y8107D01*
X74029Y8006D01*
X74068Y7902D01*
X74099Y7797D01*
X74123Y7696D01*
X74146Y7595D01*
X74161Y7502D01*
X74173Y7413D01*
X74181Y7335D01*
X74185Y7265D01*
X74189Y7207D01*
X74192Y7184D01*
Y7164D01*
Y7149D01*
Y7137D01*
Y7134D01*
Y7130D01*
X74189Y6982D01*
X74177Y6846D01*
X74158Y6714D01*
X74130Y6594D01*
X74099Y6482D01*
X74068Y6381D01*
X74029Y6288D01*
X73995Y6202D01*
X73956Y6129D01*
X73921Y6063D01*
X73890Y6004D01*
X73859Y5958D01*
X73832Y5923D01*
X73812Y5896D01*
X73801Y5880D01*
X73797Y5876D01*
X73719Y5799D01*
X73642Y5729D01*
X73560Y5667D01*
X73479Y5616D01*
X73397Y5574D01*
X73319Y5535D01*
X73242Y5508D01*
X73168Y5485D01*
X73098Y5465D01*
X73036Y5450D01*
X72982Y5442D01*
X72931Y5434D01*
X72893Y5430D01*
X72862Y5426D01*
X72838D01*
X72737Y5434D01*
X72637Y5450D01*
X72543Y5469D01*
X72462Y5496D01*
X72427Y5508D01*
X72396Y5519D01*
X72365Y5531D01*
X72342Y5543D01*
X72322Y5550D01*
X72307Y5558D01*
X72299Y5562D01*
X72295D01*
X72198Y5620D01*
X72105Y5682D01*
X72027Y5752D01*
X71958Y5818D01*
X71899Y5880D01*
X71876Y5903D01*
X71857Y5927D01*
X71841Y5946D01*
X71829Y5962D01*
X71826Y5970D01*
X71822Y5973D01*
Y5500D01*
X71026D01*
Y9974D01*
X71884D01*
Y8360D01*
D02*
G37*
G36*
X76435Y8810D02*
X76520Y8806D01*
X76683Y8779D01*
X76757Y8763D01*
X76831Y8748D01*
X76897Y8728D01*
X76959Y8709D01*
X77013Y8686D01*
X77064Y8666D01*
X77106Y8651D01*
X77141Y8635D01*
X77172Y8619D01*
X77192Y8608D01*
X77207Y8604D01*
X77211Y8600D01*
X77281Y8557D01*
X77347Y8515D01*
X77409Y8464D01*
X77467Y8418D01*
X77518Y8367D01*
X77568Y8317D01*
X77611Y8266D01*
X77653Y8216D01*
X77688Y8169D01*
X77719Y8127D01*
X77743Y8092D01*
X77766Y8057D01*
X77781Y8030D01*
X77793Y8010D01*
X77801Y7995D01*
X77805Y7991D01*
X77840Y7917D01*
X77875Y7840D01*
X77902Y7766D01*
X77925Y7692D01*
X77964Y7553D01*
X77975Y7490D01*
X77987Y7428D01*
X77995Y7370D01*
X78003Y7320D01*
X78007Y7277D01*
X78010Y7238D01*
X78014Y7207D01*
Y7184D01*
Y7168D01*
Y7164D01*
X78010Y7064D01*
X78007Y6963D01*
X77995Y6870D01*
X77983Y6780D01*
X77964Y6695D01*
X77948Y6617D01*
X77929Y6548D01*
X77909Y6482D01*
X77890Y6420D01*
X77871Y6369D01*
X77851Y6323D01*
X77836Y6284D01*
X77824Y6253D01*
X77812Y6233D01*
X77809Y6218D01*
X77805Y6214D01*
X77762Y6144D01*
X77719Y6078D01*
X77669Y6016D01*
X77618Y5958D01*
X77568Y5903D01*
X77518Y5857D01*
X77467Y5814D01*
X77421Y5776D01*
X77374Y5741D01*
X77331Y5709D01*
X77293Y5682D01*
X77258Y5663D01*
X77231Y5644D01*
X77211Y5632D01*
X77196Y5628D01*
X77192Y5624D01*
X77114Y5589D01*
X77040Y5558D01*
X76963Y5531D01*
X76889Y5512D01*
X76745Y5473D01*
X76679Y5461D01*
X76614Y5450D01*
X76555Y5442D01*
X76505Y5438D01*
X76458Y5434D01*
X76420Y5430D01*
X76385Y5426D01*
X76342D01*
X76210Y5430D01*
X76082Y5446D01*
X75962Y5469D01*
X75849Y5500D01*
X75744Y5539D01*
X75647Y5578D01*
X75554Y5620D01*
X75473Y5667D01*
X75399Y5713D01*
X75333Y5756D01*
X75279Y5795D01*
X75232Y5834D01*
X75194Y5865D01*
X75170Y5888D01*
X75151Y5903D01*
X75147Y5907D01*
X75062Y6001D01*
X74988Y6098D01*
X74926Y6198D01*
X74871Y6303D01*
X74825Y6404D01*
X74786Y6505D01*
X74755Y6606D01*
X74728Y6699D01*
X74708Y6788D01*
X74693Y6870D01*
X74685Y6939D01*
X74677Y7005D01*
X74674Y7056D01*
X74670Y7095D01*
Y7106D01*
Y7118D01*
Y7122D01*
Y7126D01*
X74674Y7261D01*
X74689Y7386D01*
X74712Y7510D01*
X74743Y7622D01*
X74778Y7727D01*
X74821Y7828D01*
X74864Y7921D01*
X74906Y8003D01*
X74949Y8076D01*
X74992Y8142D01*
X75034Y8201D01*
X75069Y8247D01*
X75100Y8282D01*
X75124Y8309D01*
X75139Y8328D01*
X75143Y8332D01*
X75232Y8418D01*
X75329Y8491D01*
X75430Y8557D01*
X75527Y8612D01*
X75628Y8658D01*
X75729Y8697D01*
X75826Y8728D01*
X75919Y8755D01*
X76008Y8775D01*
X76090Y8786D01*
X76160Y8798D01*
X76226Y8806D01*
X76276Y8810D01*
X76315Y8813D01*
X76346D01*
X76435Y8810D01*
D02*
G37*
G36*
X106264D02*
X106334Y8798D01*
X106396Y8779D01*
X106451Y8763D01*
X106497Y8744D01*
X106532Y8724D01*
X106552Y8713D01*
X106559Y8709D01*
X106590Y8689D01*
X106622Y8662D01*
X106684Y8600D01*
X106746Y8530D01*
X106804Y8457D01*
X106850Y8391D01*
X106874Y8360D01*
X106889Y8336D01*
X106905Y8313D01*
X106916Y8298D01*
X106920Y8286D01*
X106924Y8282D01*
Y8744D01*
X107720D01*
Y5500D01*
X106862D01*
Y6501D01*
Y6649D01*
X106858Y6784D01*
X106854Y6908D01*
X106850Y7017D01*
X106846Y7118D01*
X106839Y7207D01*
X106835Y7285D01*
X106827Y7351D01*
X106819Y7409D01*
X106816Y7459D01*
X106808Y7498D01*
X106804Y7529D01*
X106800Y7556D01*
X106796Y7572D01*
X106792Y7580D01*
Y7584D01*
X106765Y7673D01*
X106734Y7750D01*
X106699Y7812D01*
X106668Y7863D01*
X106641Y7898D01*
X106618Y7925D01*
X106602Y7941D01*
X106598Y7944D01*
X106548Y7979D01*
X106497Y8003D01*
X106443Y8022D01*
X106396Y8034D01*
X106354Y8041D01*
X106323Y8045D01*
X106292D01*
X106222Y8038D01*
X106148Y8022D01*
X106082Y7999D01*
X106020Y7975D01*
X105966Y7948D01*
X105923Y7925D01*
X105908Y7913D01*
X105896Y7909D01*
X105892Y7902D01*
X105888D01*
X105620Y8651D01*
X105725Y8705D01*
X105826Y8744D01*
X105919Y8775D01*
X106008Y8794D01*
X106047Y8802D01*
X106078Y8806D01*
X106109Y8810D01*
X106137D01*
X106160Y8813D01*
X106187D01*
X106264Y8810D01*
D02*
G37*
G36*
X101744Y10044D02*
X101907Y10024D01*
X102062Y9993D01*
X102206Y9954D01*
X102342Y9908D01*
X102466Y9853D01*
X102582Y9799D01*
X102683Y9741D01*
X102776Y9683D01*
X102858Y9628D01*
X102928Y9574D01*
X102986Y9527D01*
X103033Y9489D01*
X103063Y9458D01*
X103083Y9438D01*
X103091Y9430D01*
X103192Y9310D01*
X103281Y9178D01*
X103358Y9042D01*
X103424Y8899D01*
X103479Y8755D01*
X103525Y8612D01*
X103564Y8468D01*
X103591Y8332D01*
X103618Y8201D01*
X103634Y8084D01*
X103646Y7975D01*
X103653Y7925D01*
X103657Y7882D01*
Y7840D01*
X103661Y7805D01*
Y7774D01*
X103665Y7746D01*
Y7723D01*
Y7708D01*
Y7700D01*
Y7696D01*
X103657Y7502D01*
X103642Y7320D01*
X103611Y7149D01*
X103576Y6990D01*
X103533Y6839D01*
X103483Y6703D01*
X103432Y6579D01*
X103378Y6466D01*
X103327Y6365D01*
X103273Y6276D01*
X103226Y6202D01*
X103184Y6140D01*
X103149Y6090D01*
X103118Y6055D01*
X103102Y6035D01*
X103095Y6028D01*
X102982Y5923D01*
X102866Y5830D01*
X102745Y5748D01*
X102621Y5678D01*
X102501Y5620D01*
X102377Y5570D01*
X102260Y5531D01*
X102144Y5500D01*
X102039Y5473D01*
X101942Y5453D01*
X101853Y5442D01*
X101775Y5430D01*
X101744D01*
X101713Y5426D01*
X101690D01*
X101667Y5422D01*
X101628D01*
X101496Y5426D01*
X101372Y5438D01*
X101252Y5453D01*
X101139Y5477D01*
X101034Y5504D01*
X100937Y5535D01*
X100848Y5566D01*
X100767Y5601D01*
X100693Y5632D01*
X100627Y5663D01*
X100573Y5694D01*
X100526Y5721D01*
X100487Y5744D01*
X100464Y5760D01*
X100444Y5772D01*
X100441Y5776D01*
X100355Y5845D01*
X100278Y5927D01*
X100204Y6008D01*
X100138Y6098D01*
X100076Y6187D01*
X100022Y6276D01*
X99971Y6369D01*
X99928Y6454D01*
X99890Y6536D01*
X99859Y6614D01*
X99831Y6683D01*
X99808Y6746D01*
X99793Y6796D01*
X99777Y6835D01*
X99773Y6846D01*
Y6858D01*
X99769Y6862D01*
Y6866D01*
X100646Y7145D01*
X100670Y7056D01*
X100697Y6974D01*
X100724Y6897D01*
X100755Y6823D01*
X100786Y6761D01*
X100817Y6699D01*
X100848Y6649D01*
X100879Y6598D01*
X100906Y6559D01*
X100933Y6520D01*
X100961Y6493D01*
X100980Y6466D01*
X100999Y6447D01*
X101011Y6435D01*
X101019Y6427D01*
X101023Y6423D01*
X101073Y6385D01*
X101123Y6350D01*
X101174Y6319D01*
X101228Y6291D01*
X101279Y6268D01*
X101329Y6249D01*
X101426Y6222D01*
X101473Y6214D01*
X101512Y6206D01*
X101546Y6202D01*
X101577Y6198D01*
X101605Y6194D01*
X101640D01*
X101729Y6198D01*
X101814Y6210D01*
X101892Y6229D01*
X101969Y6249D01*
X102039Y6276D01*
X102101Y6307D01*
X102163Y6338D01*
X102218Y6373D01*
X102264Y6408D01*
X102307Y6439D01*
X102346Y6470D01*
X102377Y6497D01*
X102400Y6520D01*
X102416Y6536D01*
X102427Y6548D01*
X102431Y6551D01*
X102485Y6625D01*
X102532Y6707D01*
X102571Y6796D01*
X102606Y6893D01*
X102637Y6994D01*
X102660Y7095D01*
X102679Y7196D01*
X102695Y7293D01*
X102707Y7386D01*
X102718Y7475D01*
X102726Y7553D01*
X102730Y7622D01*
Y7681D01*
X102734Y7704D01*
Y7723D01*
Y7743D01*
Y7754D01*
Y7758D01*
Y7762D01*
X102730Y7906D01*
X102722Y8041D01*
X102707Y8166D01*
X102687Y8282D01*
X102664Y8383D01*
X102637Y8480D01*
X102610Y8565D01*
X102578Y8639D01*
X102551Y8705D01*
X102524Y8763D01*
X102497Y8810D01*
X102474Y8848D01*
X102454Y8879D01*
X102439Y8903D01*
X102431Y8914D01*
X102427Y8918D01*
X102365Y8980D01*
X102303Y9039D01*
X102237Y9085D01*
X102171Y9128D01*
X102101Y9163D01*
X102035Y9190D01*
X101969Y9213D01*
X101907Y9233D01*
X101849Y9248D01*
X101795Y9260D01*
X101744Y9268D01*
X101702Y9275D01*
X101667D01*
X101643Y9279D01*
X101620D01*
X101554Y9275D01*
X101488Y9271D01*
X101372Y9248D01*
X101267Y9213D01*
X101221Y9194D01*
X101178Y9178D01*
X101139Y9159D01*
X101104Y9139D01*
X101077Y9120D01*
X101054Y9104D01*
X101034Y9093D01*
X101019Y9081D01*
X101011Y9077D01*
X101007Y9074D01*
X100961Y9035D01*
X100922Y8992D01*
X100848Y8903D01*
X100790Y8813D01*
X100747Y8724D01*
X100712Y8647D01*
X100701Y8612D01*
X100689Y8585D01*
X100681Y8561D01*
X100677Y8542D01*
X100673Y8530D01*
Y8526D01*
X99781Y8740D01*
X99812Y8837D01*
X99847Y8930D01*
X99882Y9015D01*
X99917Y9093D01*
X99956Y9167D01*
X99994Y9236D01*
X100033Y9298D01*
X100068Y9353D01*
X100103Y9399D01*
X100134Y9442D01*
X100165Y9481D01*
X100188Y9508D01*
X100212Y9531D01*
X100227Y9551D01*
X100235Y9559D01*
X100239Y9562D01*
X100340Y9648D01*
X100444Y9725D01*
X100553Y9787D01*
X100666Y9846D01*
X100778Y9892D01*
X100887Y9931D01*
X100996Y9966D01*
X101100Y9989D01*
X101197Y10009D01*
X101286Y10024D01*
X101368Y10036D01*
X101438Y10044D01*
X101496Y10047D01*
X101519Y10051D01*
X101574D01*
X101744Y10044D01*
D02*
G37*
G36*
X115417Y5500D02*
X114583D01*
X114036Y7584D01*
X113477Y5500D01*
X112655D01*
X111611Y8744D01*
X112457D01*
X113078Y6617D01*
X113617Y8744D01*
X114444D01*
X115002Y6617D01*
X115611Y8744D01*
X116442D01*
X115417Y5500D01*
D02*
G37*
G36*
X63817D02*
X62847D01*
X61249Y9974D01*
X62211D01*
X63305Y6664D01*
X64438Y9974D01*
X65416D01*
X63817Y5500D01*
D02*
G37*
G36*
X110044Y8810D02*
X110156Y8794D01*
X110265Y8771D01*
X110362Y8744D01*
X110459Y8709D01*
X110544Y8670D01*
X110626Y8627D01*
X110699Y8585D01*
X110765Y8542D01*
X110824Y8499D01*
X110874Y8460D01*
X110913Y8426D01*
X110948Y8398D01*
X110971Y8375D01*
X110986Y8360D01*
X110990Y8356D01*
X111064Y8266D01*
X111130Y8169D01*
X111184Y8069D01*
X111231Y7964D01*
X111274Y7859D01*
X111309Y7754D01*
X111336Y7653D01*
X111355Y7553D01*
X111374Y7459D01*
X111386Y7374D01*
X111398Y7296D01*
X111402Y7227D01*
X111406Y7172D01*
X111409Y7130D01*
Y7114D01*
Y7102D01*
Y7099D01*
Y7095D01*
X111406Y6971D01*
X111394Y6854D01*
X111378Y6742D01*
X111359Y6637D01*
X111336Y6536D01*
X111309Y6443D01*
X111281Y6361D01*
X111250Y6284D01*
X111219Y6214D01*
X111192Y6152D01*
X111165Y6101D01*
X111142Y6059D01*
X111122Y6024D01*
X111103Y5997D01*
X111095Y5981D01*
X111091Y5977D01*
X111010Y5880D01*
X110921Y5795D01*
X110824Y5721D01*
X110723Y5659D01*
X110622Y5605D01*
X110517Y5562D01*
X110412Y5523D01*
X110315Y5496D01*
X110218Y5473D01*
X110129Y5457D01*
X110051Y5442D01*
X109982Y5434D01*
X109923Y5430D01*
X109900D01*
X109877Y5426D01*
X109842D01*
X109745Y5430D01*
X109652Y5438D01*
X109563Y5450D01*
X109477Y5465D01*
X109400Y5485D01*
X109326Y5504D01*
X109260Y5527D01*
X109198Y5550D01*
X109143Y5570D01*
X109093Y5593D01*
X109050Y5613D01*
X109015Y5632D01*
X108988Y5647D01*
X108969Y5659D01*
X108957Y5667D01*
X108953Y5671D01*
X108887Y5717D01*
X108829Y5772D01*
X108771Y5826D01*
X108721Y5888D01*
X108674Y5946D01*
X108631Y6004D01*
X108592Y6063D01*
X108558Y6121D01*
X108527Y6175D01*
X108499Y6226D01*
X108480Y6272D01*
X108461Y6311D01*
X108449Y6342D01*
X108437Y6369D01*
X108430Y6385D01*
Y6389D01*
X109283Y6532D01*
X109314Y6447D01*
X109345Y6373D01*
X109380Y6311D01*
X109415Y6261D01*
X109446Y6222D01*
X109469Y6194D01*
X109485Y6179D01*
X109493Y6175D01*
X109547Y6140D01*
X109601Y6113D01*
X109660Y6094D01*
X109714Y6082D01*
X109760Y6074D01*
X109795Y6067D01*
X109830D01*
X109885Y6070D01*
X109935Y6074D01*
X110032Y6098D01*
X110117Y6132D01*
X110187Y6171D01*
X110245Y6210D01*
X110269Y6229D01*
X110288Y6245D01*
X110304Y6257D01*
X110315Y6268D01*
X110319Y6272D01*
X110323Y6276D01*
X110358Y6319D01*
X110389Y6361D01*
X110416Y6412D01*
X110439Y6458D01*
X110474Y6559D01*
X110502Y6656D01*
X110509Y6699D01*
X110517Y6742D01*
X110521Y6776D01*
X110525Y6811D01*
Y6839D01*
X110529Y6858D01*
Y6870D01*
Y6874D01*
X108383D01*
Y7052D01*
X108395Y7219D01*
X108414Y7374D01*
X108441Y7518D01*
X108468Y7646D01*
X108503Y7766D01*
X108542Y7875D01*
X108577Y7972D01*
X108616Y8057D01*
X108655Y8131D01*
X108689Y8193D01*
X108721Y8243D01*
X108748Y8282D01*
X108767Y8309D01*
X108783Y8328D01*
X108786Y8332D01*
X108868Y8418D01*
X108953Y8491D01*
X109046Y8557D01*
X109140Y8612D01*
X109237Y8658D01*
X109330Y8697D01*
X109423Y8728D01*
X109512Y8755D01*
X109597Y8775D01*
X109675Y8786D01*
X109745Y8798D01*
X109807Y8806D01*
X109857Y8810D01*
X109896Y8813D01*
X109927D01*
X110044Y8810D01*
D02*
G37*
G36*
X124000Y5500D02*
X123096D01*
Y7188D01*
X122398D01*
X122293Y7192D01*
X122196Y7196D01*
X122107Y7199D01*
X122021Y7203D01*
X121944Y7207D01*
X121874Y7215D01*
X121812Y7219D01*
X121757Y7227D01*
X121711Y7231D01*
X121668Y7234D01*
X121633Y7242D01*
X121610Y7246D01*
X121590D01*
X121579Y7250D01*
X121575D01*
X121486Y7273D01*
X121400Y7304D01*
X121319Y7339D01*
X121249Y7374D01*
X121191Y7405D01*
X121168Y7421D01*
X121144Y7432D01*
X121129Y7444D01*
X121117Y7452D01*
X121109Y7459D01*
X121106D01*
X121024Y7525D01*
X120950Y7599D01*
X120884Y7673D01*
X120830Y7743D01*
X120783Y7805D01*
X120768Y7832D01*
X120752Y7855D01*
X120741Y7875D01*
X120733Y7890D01*
X120725Y7898D01*
Y7902D01*
X120675Y8014D01*
X120636Y8131D01*
X120609Y8247D01*
X120593Y8356D01*
X120586Y8406D01*
X120582Y8453D01*
X120578Y8491D01*
Y8526D01*
X120574Y8557D01*
Y8577D01*
Y8592D01*
Y8596D01*
X120578Y8693D01*
X120586Y8786D01*
X120597Y8876D01*
X120613Y8957D01*
X120636Y9035D01*
X120655Y9104D01*
X120679Y9171D01*
X120702Y9229D01*
X120729Y9283D01*
X120752Y9330D01*
X120772Y9372D01*
X120791Y9403D01*
X120811Y9430D01*
X120822Y9450D01*
X120830Y9461D01*
X120834Y9465D01*
X120884Y9527D01*
X120935Y9582D01*
X120989Y9632D01*
X121043Y9675D01*
X121098Y9718D01*
X121152Y9753D01*
X121203Y9783D01*
X121253Y9811D01*
X121300Y9834D01*
X121342Y9853D01*
X121381Y9869D01*
X121412Y9884D01*
X121439Y9892D01*
X121463Y9900D01*
X121474Y9904D01*
X121478D01*
X121532Y9915D01*
X121598Y9927D01*
X121672Y9935D01*
X121754Y9943D01*
X121839Y9950D01*
X121928Y9958D01*
X122110Y9966D01*
X122196Y9970D01*
X122355D01*
X122421Y9974D01*
X124000D01*
Y5500D01*
D02*
G37*
G36*
X69067Y8810D02*
X69179Y8794D01*
X69288Y8771D01*
X69385Y8744D01*
X69482Y8709D01*
X69568Y8670D01*
X69649Y8627D01*
X69723Y8585D01*
X69789Y8542D01*
X69847Y8499D01*
X69897Y8460D01*
X69936Y8426D01*
X69971Y8398D01*
X69994Y8375D01*
X70010Y8360D01*
X70014Y8356D01*
X70087Y8266D01*
X70153Y8169D01*
X70208Y8069D01*
X70254Y7964D01*
X70297Y7859D01*
X70332Y7754D01*
X70359Y7653D01*
X70378Y7553D01*
X70398Y7459D01*
X70409Y7374D01*
X70421Y7296D01*
X70425Y7227D01*
X70429Y7172D01*
X70433Y7130D01*
Y7114D01*
Y7102D01*
Y7099D01*
Y7095D01*
X70429Y6971D01*
X70417Y6854D01*
X70402Y6742D01*
X70382Y6637D01*
X70359Y6536D01*
X70332Y6443D01*
X70305Y6361D01*
X70274Y6284D01*
X70243Y6214D01*
X70215Y6152D01*
X70188Y6101D01*
X70165Y6059D01*
X70146Y6024D01*
X70126Y5997D01*
X70118Y5981D01*
X70115Y5977D01*
X70033Y5880D01*
X69944Y5795D01*
X69847Y5721D01*
X69746Y5659D01*
X69645Y5605D01*
X69540Y5562D01*
X69436Y5523D01*
X69339Y5496D01*
X69242Y5473D01*
X69152Y5457D01*
X69075Y5442D01*
X69005Y5434D01*
X68947Y5430D01*
X68923D01*
X68900Y5426D01*
X68865D01*
X68768Y5430D01*
X68675Y5438D01*
X68586Y5450D01*
X68501Y5465D01*
X68423Y5485D01*
X68349Y5504D01*
X68283Y5527D01*
X68221Y5550D01*
X68167Y5570D01*
X68116Y5593D01*
X68074Y5613D01*
X68039Y5632D01*
X68012Y5647D01*
X67992Y5659D01*
X67981Y5667D01*
X67977Y5671D01*
X67911Y5717D01*
X67852Y5772D01*
X67794Y5826D01*
X67744Y5888D01*
X67697Y5946D01*
X67655Y6004D01*
X67616Y6063D01*
X67581Y6121D01*
X67550Y6175D01*
X67523Y6226D01*
X67503Y6272D01*
X67484Y6311D01*
X67472Y6342D01*
X67461Y6369D01*
X67453Y6385D01*
Y6389D01*
X68306Y6532D01*
X68338Y6447D01*
X68369Y6373D01*
X68404Y6311D01*
X68438Y6261D01*
X68469Y6222D01*
X68493Y6194D01*
X68508Y6179D01*
X68516Y6175D01*
X68570Y6140D01*
X68625Y6113D01*
X68683Y6094D01*
X68737Y6082D01*
X68784Y6074D01*
X68819Y6067D01*
X68854D01*
X68908Y6070D01*
X68958Y6074D01*
X69055Y6098D01*
X69141Y6132D01*
X69210Y6171D01*
X69269Y6210D01*
X69292Y6229D01*
X69311Y6245D01*
X69327Y6257D01*
X69339Y6268D01*
X69342Y6272D01*
X69346Y6276D01*
X69381Y6319D01*
X69412Y6361D01*
X69439Y6412D01*
X69463Y6458D01*
X69498Y6559D01*
X69525Y6656D01*
X69533Y6699D01*
X69540Y6742D01*
X69544Y6776D01*
X69548Y6811D01*
Y6839D01*
X69552Y6858D01*
Y6870D01*
Y6874D01*
X67406D01*
Y7052D01*
X67418Y7219D01*
X67437Y7374D01*
X67465Y7518D01*
X67492Y7646D01*
X67527Y7766D01*
X67565Y7875D01*
X67600Y7972D01*
X67639Y8057D01*
X67678Y8131D01*
X67713Y8193D01*
X67744Y8243D01*
X67771Y8282D01*
X67790Y8309D01*
X67806Y8328D01*
X67810Y8332D01*
X67891Y8418D01*
X67977Y8491D01*
X68070Y8557D01*
X68163Y8612D01*
X68260Y8658D01*
X68353Y8697D01*
X68446Y8728D01*
X68535Y8755D01*
X68621Y8775D01*
X68698Y8786D01*
X68768Y8798D01*
X68830Y8806D01*
X68881Y8810D01*
X68919Y8813D01*
X68951D01*
X69067Y8810D01*
D02*
G37*
G36*
X86430D02*
X86542Y8794D01*
X86651Y8771D01*
X86748Y8744D01*
X86845Y8709D01*
X86931Y8670D01*
X87012Y8627D01*
X87086Y8585D01*
X87152Y8542D01*
X87210Y8499D01*
X87260Y8460D01*
X87299Y8426D01*
X87334Y8398D01*
X87357Y8375D01*
X87373Y8360D01*
X87377Y8356D01*
X87450Y8266D01*
X87516Y8169D01*
X87571Y8069D01*
X87617Y7964D01*
X87660Y7859D01*
X87695Y7754D01*
X87722Y7653D01*
X87741Y7553D01*
X87761Y7459D01*
X87772Y7374D01*
X87784Y7296D01*
X87788Y7227D01*
X87792Y7172D01*
X87796Y7130D01*
Y7114D01*
Y7102D01*
Y7099D01*
Y7095D01*
X87792Y6971D01*
X87780Y6854D01*
X87765Y6742D01*
X87745Y6637D01*
X87722Y6536D01*
X87695Y6443D01*
X87668Y6361D01*
X87637Y6284D01*
X87606Y6214D01*
X87578Y6152D01*
X87551Y6101D01*
X87528Y6059D01*
X87509Y6024D01*
X87489Y5997D01*
X87481Y5981D01*
X87478Y5977D01*
X87396Y5880D01*
X87307Y5795D01*
X87210Y5721D01*
X87109Y5659D01*
X87008Y5605D01*
X86903Y5562D01*
X86799Y5523D01*
X86702Y5496D01*
X86605Y5473D01*
X86515Y5457D01*
X86438Y5442D01*
X86368Y5434D01*
X86310Y5430D01*
X86286D01*
X86263Y5426D01*
X86228D01*
X86131Y5430D01*
X86038Y5438D01*
X85949Y5450D01*
X85864Y5465D01*
X85786Y5485D01*
X85712Y5504D01*
X85646Y5527D01*
X85584Y5550D01*
X85530Y5570D01*
X85479Y5593D01*
X85437Y5613D01*
X85402Y5632D01*
X85375Y5647D01*
X85355Y5659D01*
X85344Y5667D01*
X85340Y5671D01*
X85274Y5717D01*
X85216Y5772D01*
X85157Y5826D01*
X85107Y5888D01*
X85060Y5946D01*
X85018Y6004D01*
X84979Y6063D01*
X84944Y6121D01*
X84913Y6175D01*
X84886Y6226D01*
X84866Y6272D01*
X84847Y6311D01*
X84835Y6342D01*
X84824Y6369D01*
X84816Y6385D01*
Y6389D01*
X85669Y6532D01*
X85701Y6447D01*
X85732Y6373D01*
X85767Y6311D01*
X85801Y6261D01*
X85832Y6222D01*
X85856Y6194D01*
X85871Y6179D01*
X85879Y6175D01*
X85933Y6140D01*
X85988Y6113D01*
X86046Y6094D01*
X86100Y6082D01*
X86147Y6074D01*
X86182Y6067D01*
X86217D01*
X86271Y6070D01*
X86321Y6074D01*
X86418Y6098D01*
X86504Y6132D01*
X86573Y6171D01*
X86632Y6210D01*
X86655Y6229D01*
X86674Y6245D01*
X86690Y6257D01*
X86702Y6268D01*
X86705Y6272D01*
X86709Y6276D01*
X86744Y6319D01*
X86775Y6361D01*
X86802Y6412D01*
X86826Y6458D01*
X86861Y6559D01*
X86888Y6656D01*
X86896Y6699D01*
X86903Y6742D01*
X86907Y6776D01*
X86911Y6811D01*
Y6839D01*
X86915Y6858D01*
Y6870D01*
Y6874D01*
X84769D01*
Y7052D01*
X84781Y7219D01*
X84800Y7374D01*
X84828Y7518D01*
X84855Y7646D01*
X84890Y7766D01*
X84928Y7875D01*
X84963Y7972D01*
X85002Y8057D01*
X85041Y8131D01*
X85076Y8193D01*
X85107Y8243D01*
X85134Y8282D01*
X85153Y8309D01*
X85169Y8328D01*
X85173Y8332D01*
X85254Y8418D01*
X85340Y8491D01*
X85433Y8557D01*
X85526Y8612D01*
X85623Y8658D01*
X85716Y8697D01*
X85809Y8728D01*
X85898Y8755D01*
X85984Y8775D01*
X86061Y8786D01*
X86131Y8798D01*
X86193Y8806D01*
X86244Y8810D01*
X86282Y8813D01*
X86314D01*
X86430Y8810D01*
D02*
G37*
G36*
X112025Y11492D02*
X112056Y11395D01*
X112091Y11310D01*
X112130Y11232D01*
X112165Y11166D01*
X112196Y11116D01*
X112223Y11077D01*
X112239Y11054D01*
X112246Y11050D01*
Y11046D01*
X112274Y11015D01*
X112305Y10988D01*
X112374Y10941D01*
X112448Y10910D01*
X112522Y10891D01*
X112588Y10875D01*
X112615Y10871D01*
X112638D01*
X112662Y10868D01*
X112689D01*
X112751Y10871D01*
X112813Y10875D01*
X112875Y10883D01*
X112929Y10891D01*
X112980Y10899D01*
X113015Y10903D01*
X113030Y10906D01*
X113042Y10910D01*
X113050D01*
X112972Y10239D01*
X112883Y10220D01*
X112797Y10208D01*
X112716Y10196D01*
X112642Y10192D01*
X112576Y10189D01*
X112553Y10185D01*
X112487D01*
X112398Y10189D01*
X112316Y10192D01*
X112243Y10200D01*
X112180Y10212D01*
X112126Y10223D01*
X112087Y10231D01*
X112072Y10235D01*
X112060D01*
X112056Y10239D01*
X112052D01*
X111983Y10258D01*
X111920Y10282D01*
X111862Y10305D01*
X111816Y10328D01*
X111777Y10351D01*
X111750Y10367D01*
X111734Y10379D01*
X111726Y10383D01*
X111676Y10421D01*
X111633Y10460D01*
X111591Y10503D01*
X111556Y10542D01*
X111529Y10573D01*
X111509Y10604D01*
X111494Y10619D01*
X111490Y10627D01*
X111451Y10689D01*
X111412Y10755D01*
X111377Y10829D01*
X111346Y10899D01*
X111319Y10961D01*
X111304Y10988D01*
X111296Y11011D01*
X111288Y11030D01*
X111280Y11046D01*
X111276Y11054D01*
Y11058D01*
X111067Y11620D01*
X109922Y14744D01*
X110811D01*
X111571Y12439D01*
X112343Y14744D01*
X113255D01*
X112025Y11492D01*
D02*
G37*
G36*
X107641Y11500D02*
X106803D01*
Y15019D01*
X105918Y11500D01*
X105049D01*
X104164Y15019D01*
X104160Y11500D01*
X103322D01*
Y15974D01*
X104680D01*
X105480Y12920D01*
X106291Y15974D01*
X107641D01*
Y11500D01*
D02*
G37*
G36*
X75996Y15388D02*
Y14744D01*
X76388D01*
Y14061D01*
X75996D01*
Y12645D01*
Y12563D01*
Y12485D01*
X75992Y12420D01*
Y12358D01*
X75988Y12303D01*
Y12253D01*
X75984Y12210D01*
X75980Y12171D01*
Y12136D01*
X75976Y12109D01*
Y12086D01*
X75972Y12070D01*
Y12055D01*
X75968Y12047D01*
Y12039D01*
X75953Y11966D01*
X75937Y11896D01*
X75918Y11838D01*
X75899Y11791D01*
X75879Y11752D01*
X75868Y11725D01*
X75856Y11710D01*
X75852Y11702D01*
X75813Y11659D01*
X75771Y11620D01*
X75724Y11585D01*
X75681Y11558D01*
X75639Y11535D01*
X75608Y11519D01*
X75584Y11508D01*
X75580Y11504D01*
X75577D01*
X75507Y11477D01*
X75433Y11457D01*
X75363Y11446D01*
X75297Y11438D01*
X75243Y11430D01*
X75200Y11426D01*
X75161D01*
X75022Y11430D01*
X74894Y11446D01*
X74781Y11465D01*
X74727Y11477D01*
X74680Y11488D01*
X74634Y11500D01*
X74595Y11512D01*
X74564Y11523D01*
X74537Y11531D01*
X74513Y11539D01*
X74494Y11547D01*
X74486Y11550D01*
X74482D01*
X74556Y12218D01*
X74634Y12191D01*
X74704Y12171D01*
X74766Y12156D01*
X74812Y12148D01*
X74851Y12140D01*
X74878Y12136D01*
X74901D01*
X74932Y12140D01*
X74960Y12144D01*
X74987Y12152D01*
X75006Y12160D01*
X75026Y12167D01*
X75037Y12171D01*
X75045Y12179D01*
X75049D01*
X75068Y12195D01*
X75084Y12214D01*
X75107Y12249D01*
X75115Y12261D01*
X75119Y12272D01*
X75123Y12280D01*
Y12284D01*
X75126Y12299D01*
Y12323D01*
X75130Y12350D01*
Y12385D01*
X75134Y12458D01*
Y12540D01*
X75138Y12621D01*
Y12656D01*
Y12687D01*
Y12711D01*
Y12734D01*
Y12745D01*
Y12749D01*
Y14061D01*
X74552D01*
Y14744D01*
X75138D01*
Y15892D01*
X75996Y15388D01*
D02*
G37*
G36*
X114893D02*
Y14744D01*
X115285D01*
Y14061D01*
X114893D01*
Y12645D01*
Y12563D01*
Y12485D01*
X114889Y12420D01*
Y12358D01*
X114885Y12303D01*
Y12253D01*
X114881Y12210D01*
X114877Y12171D01*
Y12136D01*
X114873Y12109D01*
Y12086D01*
X114869Y12070D01*
Y12055D01*
X114865Y12047D01*
Y12039D01*
X114850Y11966D01*
X114834Y11896D01*
X114815Y11838D01*
X114796Y11791D01*
X114776Y11752D01*
X114765Y11725D01*
X114753Y11710D01*
X114749Y11702D01*
X114710Y11659D01*
X114668Y11620D01*
X114621Y11585D01*
X114578Y11558D01*
X114536Y11535D01*
X114505Y11519D01*
X114481Y11508D01*
X114477Y11504D01*
X114474D01*
X114404Y11477D01*
X114330Y11457D01*
X114260Y11446D01*
X114194Y11438D01*
X114140Y11430D01*
X114097Y11426D01*
X114058D01*
X113919Y11430D01*
X113791Y11446D01*
X113678Y11465D01*
X113624Y11477D01*
X113577Y11488D01*
X113531Y11500D01*
X113492Y11512D01*
X113461Y11523D01*
X113434Y11531D01*
X113410Y11539D01*
X113391Y11547D01*
X113383Y11550D01*
X113379D01*
X113453Y12218D01*
X113531Y12191D01*
X113601Y12171D01*
X113663Y12156D01*
X113709Y12148D01*
X113748Y12140D01*
X113775Y12136D01*
X113798D01*
X113830Y12140D01*
X113857Y12144D01*
X113884Y12152D01*
X113903Y12160D01*
X113923Y12167D01*
X113934Y12171D01*
X113942Y12179D01*
X113946D01*
X113965Y12195D01*
X113981Y12214D01*
X114004Y12249D01*
X114012Y12261D01*
X114016Y12272D01*
X114020Y12280D01*
Y12284D01*
X114023Y12299D01*
Y12323D01*
X114027Y12350D01*
Y12385D01*
X114031Y12458D01*
Y12540D01*
X114035Y12621D01*
Y12656D01*
Y12687D01*
Y12711D01*
Y12734D01*
Y12745D01*
Y12749D01*
Y14061D01*
X113449D01*
Y14744D01*
X114035D01*
Y15892D01*
X114893Y15388D01*
D02*
G37*
G36*
X81587Y15178D02*
X80729D01*
Y15974D01*
X81587D01*
Y15178D01*
D02*
G37*
G36*
X151976Y87569D02*
Y47520D01*
X142500D01*
X142110Y47442D01*
X141779Y47221D01*
X141558Y46890D01*
X141480Y46500D01*
Y36500D01*
X141558Y36110D01*
X141779Y35779D01*
X142110Y35558D01*
X142500Y35480D01*
X151976D01*
Y4524D01*
X125500D01*
Y8683D01*
X126500D01*
Y17559D01*
X48845D01*
Y8683D01*
X51214D01*
Y4524D01*
X31476D01*
X30976Y5314D01*
Y21133D01*
Y52096D01*
X31460Y52572D01*
X31524Y52571D01*
Y52571D01*
X39429D01*
Y59755D01*
X39891Y59946D01*
X56895Y42942D01*
X57391Y42611D01*
X57976Y42494D01*
X63165D01*
X63696Y42140D01*
X64476Y41984D01*
X65257Y42140D01*
X65787Y42494D01*
X72343D01*
X75395Y39442D01*
X75891Y39111D01*
X76476Y38994D01*
X95165D01*
X95696Y38640D01*
X96476Y38484D01*
X97257Y38640D01*
X97918Y39082D01*
X98360Y39743D01*
X98516Y40524D01*
X98360Y41304D01*
X97918Y41965D01*
X97257Y42408D01*
X96476Y42563D01*
X95696Y42408D01*
X95165Y42053D01*
X77110D01*
X74058Y45105D01*
X73562Y45437D01*
X72976Y45553D01*
X65787D01*
X65257Y45908D01*
X64476Y46063D01*
X63696Y45908D01*
X63165Y45553D01*
X58610D01*
X39135Y65028D01*
X39327Y65492D01*
X39463Y66524D01*
X39327Y67555D01*
X38929Y68517D01*
X38296Y69343D01*
X37470Y69976D01*
X36508Y70375D01*
X35476Y70511D01*
X34444Y70375D01*
X33483Y69976D01*
X32657Y69343D01*
X32024Y68517D01*
X31625Y67555D01*
X31490Y66524D01*
X31625Y65492D01*
X32024Y64530D01*
X32657Y63705D01*
X33483Y63071D01*
X34444Y62673D01*
X35476Y62537D01*
X36508Y62673D01*
X36972Y62865D01*
X38899Y60938D01*
X38708Y60476D01*
X31524D01*
Y60054D01*
X30976D01*
Y91524D01*
X149476D01*
X151976Y87569D01*
D02*
G37*
G36*
X55792Y14810D02*
X55897Y14802D01*
X55998Y14794D01*
X56091Y14779D01*
X56177Y14759D01*
X56254Y14740D01*
X56328Y14720D01*
X56390Y14701D01*
X56448Y14678D01*
X56495Y14658D01*
X56537Y14639D01*
X56568Y14619D01*
X56596Y14604D01*
X56615Y14596D01*
X56627Y14589D01*
X56630Y14585D01*
X56689Y14538D01*
X56743Y14491D01*
X56790Y14437D01*
X56836Y14383D01*
X56879Y14325D01*
X56914Y14266D01*
X56949Y14208D01*
X56976Y14154D01*
X57003Y14100D01*
X57022Y14049D01*
X57042Y14006D01*
X57057Y13968D01*
X57065Y13937D01*
X57073Y13909D01*
X57081Y13894D01*
Y13890D01*
X56301Y13750D01*
X56270Y13828D01*
X56235Y13894D01*
X56200Y13948D01*
X56169Y13991D01*
X56138Y14026D01*
X56115Y14049D01*
X56099Y14061D01*
X56095Y14065D01*
X56045Y14096D01*
X55986Y14119D01*
X55924Y14134D01*
X55870Y14146D01*
X55816Y14154D01*
X55777Y14158D01*
X55676D01*
X55622Y14154D01*
X55567Y14146D01*
X55521Y14142D01*
X55478Y14134D01*
X55443Y14123D01*
X55408Y14115D01*
X55377Y14104D01*
X55354Y14092D01*
X55331Y14084D01*
X55300Y14065D01*
X55280Y14053D01*
X55276Y14049D01*
X55234Y14003D01*
X55203Y13952D01*
X55183Y13894D01*
X55168Y13836D01*
X55160Y13781D01*
X55152Y13739D01*
Y13723D01*
Y13712D01*
Y13704D01*
Y13700D01*
Y13615D01*
X55199Y13595D01*
X55253Y13576D01*
X55315Y13556D01*
X55381Y13537D01*
X55521Y13502D01*
X55657Y13471D01*
X55723Y13455D01*
X55785Y13444D01*
X55843Y13432D01*
X55893Y13421D01*
X55932Y13413D01*
X55963Y13405D01*
X55983Y13401D01*
X55990D01*
X56072Y13386D01*
X56149Y13366D01*
X56219Y13351D01*
X56285Y13335D01*
X56347Y13316D01*
X56402Y13300D01*
X56452Y13285D01*
X56499Y13269D01*
X56541Y13254D01*
X56576Y13242D01*
X56603Y13230D01*
X56630Y13219D01*
X56650Y13211D01*
X56662Y13203D01*
X56669Y13199D01*
X56673D01*
X56759Y13153D01*
X56832Y13102D01*
X56894Y13044D01*
X56945Y12994D01*
X56988Y12943D01*
X57019Y12905D01*
X57026Y12889D01*
X57034Y12877D01*
X57042Y12874D01*
Y12870D01*
X57085Y12788D01*
X57116Y12703D01*
X57139Y12621D01*
X57154Y12548D01*
X57162Y12482D01*
X57166Y12455D01*
Y12431D01*
X57170Y12412D01*
Y12396D01*
Y12388D01*
Y12385D01*
X57166Y12307D01*
X57158Y12237D01*
X57143Y12167D01*
X57123Y12101D01*
X57104Y12043D01*
X57081Y11985D01*
X57053Y11935D01*
X57026Y11884D01*
X56999Y11841D01*
X56972Y11806D01*
X56949Y11776D01*
X56929Y11748D01*
X56910Y11725D01*
X56894Y11710D01*
X56887Y11702D01*
X56883Y11698D01*
X56824Y11651D01*
X56766Y11609D01*
X56704Y11574D01*
X56638Y11543D01*
X56572Y11515D01*
X56506Y11492D01*
X56444Y11473D01*
X56382Y11461D01*
X56324Y11450D01*
X56270Y11442D01*
X56219Y11434D01*
X56177Y11430D01*
X56142Y11426D01*
X56095D01*
X55990Y11430D01*
X55889Y11442D01*
X55800Y11461D01*
X55719Y11481D01*
X55684Y11488D01*
X55653Y11496D01*
X55626Y11508D01*
X55602Y11515D01*
X55583Y11523D01*
X55571Y11527D01*
X55563Y11531D01*
X55560D01*
X55467Y11578D01*
X55381Y11628D01*
X55300Y11682D01*
X55230Y11733D01*
X55172Y11779D01*
X55148Y11799D01*
X55129Y11818D01*
X55113Y11834D01*
X55102Y11845D01*
X55094Y11849D01*
X55090Y11853D01*
X55086Y11841D01*
X55079Y11826D01*
X55071Y11795D01*
X55067Y11779D01*
X55063Y11764D01*
X55059Y11756D01*
Y11752D01*
X55040Y11694D01*
X55024Y11644D01*
X55009Y11601D01*
X54997Y11562D01*
X54989Y11535D01*
X54981Y11515D01*
X54974Y11504D01*
Y11500D01*
X54124D01*
X54163Y11585D01*
X54194Y11663D01*
X54221Y11737D01*
X54244Y11803D01*
X54260Y11853D01*
X54272Y11896D01*
X54275Y11911D01*
Y11923D01*
X54279Y11927D01*
Y11931D01*
X54287Y11973D01*
X54291Y12016D01*
X54303Y12117D01*
X54310Y12222D01*
X54314Y12323D01*
Y12373D01*
Y12416D01*
X54318Y12458D01*
Y12493D01*
Y12524D01*
Y12544D01*
Y12559D01*
Y12563D01*
X54306Y13564D01*
Y13665D01*
X54310Y13758D01*
X54318Y13844D01*
X54326Y13921D01*
X54334Y13991D01*
X54341Y14053D01*
X54353Y14107D01*
X54365Y14158D01*
X54376Y14200D01*
X54384Y14235D01*
X54396Y14266D01*
X54403Y14290D01*
X54411Y14309D01*
X54419Y14321D01*
X54423Y14329D01*
Y14332D01*
X54446Y14371D01*
X54473Y14406D01*
X54535Y14476D01*
X54601Y14534D01*
X54667Y14585D01*
X54725Y14623D01*
X54753Y14639D01*
X54776Y14654D01*
X54795Y14662D01*
X54811Y14670D01*
X54819Y14678D01*
X54822D01*
X54877Y14701D01*
X54939Y14724D01*
X55005Y14740D01*
X55075Y14755D01*
X55214Y14779D01*
X55354Y14798D01*
X55420Y14802D01*
X55478Y14806D01*
X55532Y14810D01*
X55583D01*
X55622Y14814D01*
X55676D01*
X55792Y14810D01*
D02*
G37*
G36*
X119688D02*
X119793Y14802D01*
X119894Y14794D01*
X119987Y14779D01*
X120072Y14759D01*
X120150Y14740D01*
X120224Y14720D01*
X120286Y14701D01*
X120344Y14678D01*
X120391Y14658D01*
X120433Y14639D01*
X120464Y14619D01*
X120491Y14604D01*
X120511Y14596D01*
X120522Y14589D01*
X120526Y14585D01*
X120585Y14538D01*
X120639Y14491D01*
X120685Y14437D01*
X120732Y14383D01*
X120775Y14325D01*
X120810Y14266D01*
X120844Y14208D01*
X120872Y14154D01*
X120899Y14100D01*
X120918Y14049D01*
X120938Y14006D01*
X120953Y13968D01*
X120961Y13937D01*
X120969Y13909D01*
X120976Y13894D01*
Y13890D01*
X120197Y13750D01*
X120166Y13828D01*
X120131Y13894D01*
X120096Y13948D01*
X120065Y13991D01*
X120034Y14026D01*
X120010Y14049D01*
X119995Y14061D01*
X119991Y14065D01*
X119940Y14096D01*
X119882Y14119D01*
X119820Y14134D01*
X119766Y14146D01*
X119712Y14154D01*
X119673Y14158D01*
X119572D01*
X119518Y14154D01*
X119463Y14146D01*
X119417Y14142D01*
X119374Y14134D01*
X119339Y14123D01*
X119304Y14115D01*
X119273Y14104D01*
X119250Y14092D01*
X119227Y14084D01*
X119195Y14065D01*
X119176Y14053D01*
X119172Y14049D01*
X119130Y14003D01*
X119098Y13952D01*
X119079Y13894D01*
X119064Y13836D01*
X119056Y13781D01*
X119048Y13739D01*
Y13723D01*
Y13712D01*
Y13704D01*
Y13700D01*
Y13615D01*
X119095Y13595D01*
X119149Y13576D01*
X119211Y13556D01*
X119277Y13537D01*
X119417Y13502D01*
X119553Y13471D01*
X119618Y13455D01*
X119681Y13444D01*
X119739Y13432D01*
X119789Y13421D01*
X119828Y13413D01*
X119859Y13405D01*
X119878Y13401D01*
X119886D01*
X119968Y13386D01*
X120045Y13366D01*
X120115Y13351D01*
X120181Y13335D01*
X120243Y13316D01*
X120297Y13300D01*
X120348Y13285D01*
X120394Y13269D01*
X120437Y13254D01*
X120472Y13242D01*
X120499Y13230D01*
X120526Y13219D01*
X120546Y13211D01*
X120557Y13203D01*
X120565Y13199D01*
X120569D01*
X120654Y13153D01*
X120728Y13102D01*
X120790Y13044D01*
X120841Y12994D01*
X120883Y12943D01*
X120914Y12905D01*
X120922Y12889D01*
X120930Y12877D01*
X120938Y12874D01*
Y12870D01*
X120980Y12788D01*
X121011Y12703D01*
X121035Y12621D01*
X121050Y12548D01*
X121058Y12482D01*
X121062Y12455D01*
Y12431D01*
X121066Y12412D01*
Y12396D01*
Y12388D01*
Y12385D01*
X121062Y12307D01*
X121054Y12237D01*
X121038Y12167D01*
X121019Y12101D01*
X121000Y12043D01*
X120976Y11985D01*
X120949Y11935D01*
X120922Y11884D01*
X120895Y11841D01*
X120868Y11806D01*
X120844Y11776D01*
X120825Y11748D01*
X120806Y11725D01*
X120790Y11710D01*
X120782Y11702D01*
X120779Y11698D01*
X120720Y11651D01*
X120662Y11609D01*
X120600Y11574D01*
X120534Y11543D01*
X120468Y11515D01*
X120402Y11492D01*
X120340Y11473D01*
X120278Y11461D01*
X120220Y11450D01*
X120166Y11442D01*
X120115Y11434D01*
X120072Y11430D01*
X120037Y11426D01*
X119991D01*
X119886Y11430D01*
X119785Y11442D01*
X119696Y11461D01*
X119615Y11481D01*
X119580Y11488D01*
X119549Y11496D01*
X119521Y11508D01*
X119498Y11515D01*
X119479Y11523D01*
X119467Y11527D01*
X119459Y11531D01*
X119456D01*
X119362Y11578D01*
X119277Y11628D01*
X119195Y11682D01*
X119126Y11733D01*
X119068Y11779D01*
X119044Y11799D01*
X119025Y11818D01*
X119009Y11834D01*
X118998Y11845D01*
X118990Y11849D01*
X118986Y11853D01*
X118982Y11841D01*
X118974Y11826D01*
X118967Y11795D01*
X118963Y11779D01*
X118959Y11764D01*
X118955Y11756D01*
Y11752D01*
X118936Y11694D01*
X118920Y11644D01*
X118904Y11601D01*
X118893Y11562D01*
X118885Y11535D01*
X118877Y11515D01*
X118870Y11504D01*
Y11500D01*
X118020D01*
X118059Y11585D01*
X118090Y11663D01*
X118117Y11737D01*
X118140Y11803D01*
X118156Y11853D01*
X118167Y11896D01*
X118171Y11911D01*
Y11923D01*
X118175Y11927D01*
Y11931D01*
X118183Y11973D01*
X118187Y12016D01*
X118198Y12117D01*
X118206Y12222D01*
X118210Y12323D01*
Y12373D01*
Y12416D01*
X118214Y12458D01*
Y12493D01*
Y12524D01*
Y12544D01*
Y12559D01*
Y12563D01*
X118202Y13564D01*
Y13665D01*
X118206Y13758D01*
X118214Y13844D01*
X118222Y13921D01*
X118229Y13991D01*
X118237Y14053D01*
X118249Y14107D01*
X118260Y14158D01*
X118272Y14200D01*
X118280Y14235D01*
X118291Y14266D01*
X118299Y14290D01*
X118307Y14309D01*
X118315Y14321D01*
X118319Y14329D01*
Y14332D01*
X118342Y14371D01*
X118369Y14406D01*
X118431Y14476D01*
X118497Y14534D01*
X118563Y14585D01*
X118621Y14623D01*
X118648Y14639D01*
X118672Y14654D01*
X118691Y14662D01*
X118707Y14670D01*
X118714Y14678D01*
X118718D01*
X118773Y14701D01*
X118835Y14724D01*
X118901Y14740D01*
X118971Y14755D01*
X119110Y14779D01*
X119250Y14798D01*
X119316Y14802D01*
X119374Y14806D01*
X119428Y14810D01*
X119479D01*
X119518Y14814D01*
X119572D01*
X119688Y14810D01*
D02*
G37*
G36*
X125000Y11500D02*
X124096D01*
Y13188D01*
X123398D01*
X123293Y13192D01*
X123196Y13196D01*
X123107Y13199D01*
X123021Y13203D01*
X122944Y13207D01*
X122874Y13215D01*
X122812Y13219D01*
X122757Y13227D01*
X122711Y13230D01*
X122668Y13234D01*
X122633Y13242D01*
X122610Y13246D01*
X122590D01*
X122579Y13250D01*
X122575D01*
X122486Y13273D01*
X122400Y13304D01*
X122319Y13339D01*
X122249Y13374D01*
X122191Y13405D01*
X122168Y13421D01*
X122144Y13432D01*
X122129Y13444D01*
X122117Y13452D01*
X122109Y13459D01*
X122106D01*
X122024Y13525D01*
X121950Y13599D01*
X121884Y13673D01*
X121830Y13743D01*
X121783Y13805D01*
X121768Y13832D01*
X121752Y13855D01*
X121741Y13875D01*
X121733Y13890D01*
X121725Y13898D01*
Y13902D01*
X121675Y14014D01*
X121636Y14131D01*
X121609Y14247D01*
X121593Y14356D01*
X121586Y14406D01*
X121582Y14453D01*
X121578Y14491D01*
Y14526D01*
X121574Y14557D01*
Y14577D01*
Y14592D01*
Y14596D01*
X121578Y14693D01*
X121586Y14786D01*
X121597Y14876D01*
X121613Y14957D01*
X121636Y15035D01*
X121655Y15104D01*
X121679Y15170D01*
X121702Y15229D01*
X121729Y15283D01*
X121752Y15330D01*
X121772Y15372D01*
X121791Y15403D01*
X121811Y15430D01*
X121822Y15450D01*
X121830Y15461D01*
X121834Y15465D01*
X121884Y15527D01*
X121935Y15582D01*
X121989Y15632D01*
X122043Y15675D01*
X122098Y15718D01*
X122152Y15753D01*
X122203Y15784D01*
X122253Y15811D01*
X122300Y15834D01*
X122342Y15853D01*
X122381Y15869D01*
X122412Y15884D01*
X122439Y15892D01*
X122462Y15900D01*
X122474Y15904D01*
X122478D01*
X122532Y15915D01*
X122598Y15927D01*
X122672Y15935D01*
X122754Y15943D01*
X122839Y15950D01*
X122928Y15958D01*
X123110Y15966D01*
X123196Y15970D01*
X123355D01*
X123421Y15974D01*
X125000D01*
Y11500D01*
D02*
G37*
G36*
X93677Y14810D02*
X93789Y14794D01*
X93898Y14771D01*
X93995Y14744D01*
X94092Y14709D01*
X94177Y14670D01*
X94259Y14627D01*
X94332Y14585D01*
X94398Y14542D01*
X94457Y14499D01*
X94507Y14460D01*
X94546Y14425D01*
X94581Y14398D01*
X94604Y14375D01*
X94620Y14360D01*
X94624Y14356D01*
X94697Y14266D01*
X94763Y14169D01*
X94818Y14069D01*
X94864Y13964D01*
X94907Y13859D01*
X94942Y13754D01*
X94969Y13653D01*
X94988Y13553D01*
X95008Y13459D01*
X95019Y13374D01*
X95031Y13296D01*
X95035Y13227D01*
X95039Y13172D01*
X95043Y13130D01*
Y13114D01*
Y13102D01*
Y13099D01*
Y13095D01*
X95039Y12970D01*
X95027Y12854D01*
X95012Y12742D01*
X94992Y12637D01*
X94969Y12536D01*
X94942Y12443D01*
X94915Y12361D01*
X94883Y12284D01*
X94852Y12214D01*
X94825Y12152D01*
X94798Y12101D01*
X94775Y12059D01*
X94755Y12024D01*
X94736Y11997D01*
X94728Y11981D01*
X94724Y11977D01*
X94643Y11880D01*
X94554Y11795D01*
X94457Y11721D01*
X94356Y11659D01*
X94255Y11605D01*
X94150Y11562D01*
X94045Y11523D01*
X93948Y11496D01*
X93851Y11473D01*
X93762Y11457D01*
X93685Y11442D01*
X93615Y11434D01*
X93556Y11430D01*
X93533D01*
X93510Y11426D01*
X93475D01*
X93378Y11430D01*
X93285Y11438D01*
X93196Y11450D01*
X93110Y11465D01*
X93033Y11485D01*
X92959Y11504D01*
X92893Y11527D01*
X92831Y11550D01*
X92777Y11570D01*
X92726Y11593D01*
X92684Y11613D01*
X92649Y11632D01*
X92621Y11647D01*
X92602Y11659D01*
X92590Y11667D01*
X92586Y11671D01*
X92520Y11717D01*
X92462Y11772D01*
X92404Y11826D01*
X92354Y11888D01*
X92307Y11946D01*
X92264Y12004D01*
X92226Y12063D01*
X92191Y12121D01*
X92160Y12175D01*
X92133Y12226D01*
X92113Y12272D01*
X92094Y12311D01*
X92082Y12342D01*
X92070Y12369D01*
X92063Y12385D01*
Y12388D01*
X92916Y12532D01*
X92947Y12447D01*
X92978Y12373D01*
X93013Y12311D01*
X93048Y12261D01*
X93079Y12222D01*
X93103Y12195D01*
X93118Y12179D01*
X93126Y12175D01*
X93180Y12140D01*
X93234Y12113D01*
X93293Y12094D01*
X93347Y12082D01*
X93393Y12074D01*
X93428Y12066D01*
X93463D01*
X93518Y12070D01*
X93568Y12074D01*
X93665Y12098D01*
X93751Y12132D01*
X93820Y12171D01*
X93879Y12210D01*
X93902Y12229D01*
X93921Y12245D01*
X93937Y12257D01*
X93948Y12268D01*
X93952Y12272D01*
X93956Y12276D01*
X93991Y12319D01*
X94022Y12361D01*
X94049Y12412D01*
X94073Y12458D01*
X94107Y12559D01*
X94135Y12656D01*
X94142Y12699D01*
X94150Y12742D01*
X94154Y12776D01*
X94158Y12811D01*
Y12839D01*
X94162Y12858D01*
Y12870D01*
Y12874D01*
X92016D01*
Y13052D01*
X92028Y13219D01*
X92047Y13374D01*
X92074Y13518D01*
X92102Y13646D01*
X92136Y13766D01*
X92175Y13875D01*
X92210Y13972D01*
X92249Y14057D01*
X92288Y14131D01*
X92323Y14193D01*
X92354Y14243D01*
X92381Y14282D01*
X92400Y14309D01*
X92416Y14329D01*
X92420Y14332D01*
X92501Y14418D01*
X92586Y14491D01*
X92680Y14557D01*
X92773Y14612D01*
X92870Y14658D01*
X92963Y14697D01*
X93056Y14728D01*
X93145Y14755D01*
X93231Y14775D01*
X93308Y14786D01*
X93378Y14798D01*
X93440Y14806D01*
X93490Y14810D01*
X93529Y14814D01*
X93560D01*
X93677Y14810D01*
D02*
G37*
%LPC*%
G36*
X59316Y14115D02*
X59284D01*
X59222Y14111D01*
X59164Y14104D01*
X59110Y14092D01*
X59056Y14076D01*
X58959Y14034D01*
X58916Y14010D01*
X58877Y13987D01*
X58842Y13960D01*
X58811Y13937D01*
X58784Y13917D01*
X58764Y13898D01*
X58745Y13878D01*
X58733Y13867D01*
X58726Y13859D01*
X58722Y13855D01*
X58683Y13805D01*
X58644Y13750D01*
X58617Y13692D01*
X58590Y13634D01*
X58567Y13572D01*
X58547Y13514D01*
X58520Y13393D01*
X58512Y13339D01*
X58505Y13289D01*
X58501Y13242D01*
X58497Y13203D01*
X58493Y13172D01*
Y13145D01*
Y13130D01*
Y13126D01*
X58497Y13036D01*
X58505Y12955D01*
X58512Y12877D01*
X58528Y12804D01*
X58547Y12738D01*
X58567Y12676D01*
X58586Y12621D01*
X58605Y12571D01*
X58629Y12524D01*
X58648Y12489D01*
X58667Y12455D01*
X58687Y12427D01*
X58702Y12408D01*
X58710Y12392D01*
X58718Y12385D01*
X58722Y12381D01*
X58764Y12334D01*
X58811Y12295D01*
X58858Y12261D01*
X58908Y12233D01*
X58955Y12206D01*
X59001Y12187D01*
X59090Y12156D01*
X59129Y12148D01*
X59168Y12140D01*
X59199Y12132D01*
X59230Y12129D01*
X59253Y12125D01*
X59284D01*
X59346Y12129D01*
X59405Y12136D01*
X59463Y12148D01*
X59513Y12163D01*
X59610Y12206D01*
X59653Y12229D01*
X59696Y12253D01*
X59731Y12276D01*
X59762Y12299D01*
X59789Y12323D01*
X59808Y12342D01*
X59828Y12358D01*
X59839Y12369D01*
X59847Y12377D01*
X59851Y12381D01*
X59890Y12431D01*
X59925Y12485D01*
X59956Y12544D01*
X59979Y12606D01*
X60002Y12664D01*
X60022Y12726D01*
X60049Y12846D01*
X60057Y12901D01*
X60064Y12951D01*
X60068Y12998D01*
X60072Y13040D01*
X60076Y13071D01*
Y13099D01*
Y13114D01*
Y13118D01*
X60072Y13207D01*
X60064Y13289D01*
X60057Y13366D01*
X60041Y13436D01*
X60026Y13502D01*
X60006Y13564D01*
X59983Y13619D01*
X59963Y13669D01*
X59944Y13712D01*
X59921Y13750D01*
X59901Y13781D01*
X59886Y13809D01*
X59870Y13828D01*
X59859Y13844D01*
X59855Y13851D01*
X59851Y13855D01*
X59808Y13902D01*
X59762Y13940D01*
X59715Y13975D01*
X59665Y14006D01*
X59618Y14030D01*
X59572Y14053D01*
X59482Y14084D01*
X59440Y14092D01*
X59405Y14100D01*
X59370Y14107D01*
X59339Y14111D01*
X59316Y14115D01*
D02*
G37*
G36*
X70769D02*
X70738D01*
X70676Y14111D01*
X70618Y14104D01*
X70564Y14092D01*
X70509Y14076D01*
X70412Y14034D01*
X70370Y14010D01*
X70331Y13987D01*
X70296Y13960D01*
X70265Y13937D01*
X70238Y13917D01*
X70218Y13898D01*
X70199Y13878D01*
X70187Y13867D01*
X70179Y13859D01*
X70176Y13855D01*
X70137Y13805D01*
X70098Y13750D01*
X70071Y13692D01*
X70044Y13634D01*
X70020Y13572D01*
X70001Y13514D01*
X69974Y13393D01*
X69966Y13339D01*
X69958Y13289D01*
X69954Y13242D01*
X69951Y13203D01*
X69947Y13172D01*
Y13145D01*
Y13130D01*
Y13126D01*
X69951Y13036D01*
X69958Y12955D01*
X69966Y12877D01*
X69982Y12804D01*
X70001Y12738D01*
X70020Y12676D01*
X70040Y12621D01*
X70059Y12571D01*
X70082Y12524D01*
X70102Y12489D01*
X70121Y12455D01*
X70141Y12427D01*
X70156Y12408D01*
X70164Y12392D01*
X70172Y12385D01*
X70176Y12381D01*
X70218Y12334D01*
X70265Y12295D01*
X70311Y12261D01*
X70362Y12233D01*
X70408Y12206D01*
X70455Y12187D01*
X70544Y12156D01*
X70583Y12148D01*
X70622Y12140D01*
X70653Y12132D01*
X70684Y12129D01*
X70707Y12125D01*
X70738D01*
X70800Y12129D01*
X70859Y12136D01*
X70917Y12148D01*
X70967Y12163D01*
X71064Y12206D01*
X71107Y12229D01*
X71149Y12253D01*
X71184Y12276D01*
X71215Y12299D01*
X71243Y12323D01*
X71262Y12342D01*
X71281Y12358D01*
X71293Y12369D01*
X71301Y12377D01*
X71305Y12381D01*
X71343Y12431D01*
X71378Y12485D01*
X71409Y12544D01*
X71433Y12606D01*
X71456Y12664D01*
X71475Y12726D01*
X71503Y12846D01*
X71510Y12901D01*
X71518Y12951D01*
X71522Y12998D01*
X71526Y13040D01*
X71530Y13071D01*
Y13099D01*
Y13114D01*
Y13118D01*
X71526Y13207D01*
X71518Y13289D01*
X71510Y13366D01*
X71495Y13436D01*
X71479Y13502D01*
X71460Y13564D01*
X71437Y13619D01*
X71417Y13669D01*
X71398Y13712D01*
X71374Y13750D01*
X71355Y13781D01*
X71340Y13809D01*
X71324Y13828D01*
X71312Y13844D01*
X71309Y13851D01*
X71305Y13855D01*
X71262Y13902D01*
X71215Y13940D01*
X71169Y13975D01*
X71118Y14006D01*
X71072Y14030D01*
X71025Y14053D01*
X70936Y14084D01*
X70893Y14092D01*
X70859Y14100D01*
X70824Y14107D01*
X70793Y14111D01*
X70769Y14115D01*
D02*
G37*
G36*
X83961D02*
X83930D01*
X83868Y14111D01*
X83810Y14104D01*
X83756Y14092D01*
X83701Y14076D01*
X83604Y14034D01*
X83562Y14010D01*
X83523Y13987D01*
X83488Y13960D01*
X83457Y13937D01*
X83430Y13917D01*
X83410Y13898D01*
X83391Y13878D01*
X83379Y13867D01*
X83372Y13859D01*
X83368Y13855D01*
X83329Y13805D01*
X83290Y13750D01*
X83263Y13692D01*
X83236Y13634D01*
X83212Y13572D01*
X83193Y13514D01*
X83166Y13393D01*
X83158Y13339D01*
X83150Y13289D01*
X83146Y13242D01*
X83143Y13203D01*
X83139Y13172D01*
Y13145D01*
Y13130D01*
Y13126D01*
X83143Y13036D01*
X83150Y12955D01*
X83158Y12877D01*
X83174Y12804D01*
X83193Y12738D01*
X83212Y12676D01*
X83232Y12621D01*
X83251Y12571D01*
X83275Y12524D01*
X83294Y12489D01*
X83313Y12455D01*
X83333Y12427D01*
X83348Y12408D01*
X83356Y12392D01*
X83364Y12385D01*
X83368Y12381D01*
X83410Y12334D01*
X83457Y12295D01*
X83503Y12261D01*
X83554Y12233D01*
X83600Y12206D01*
X83647Y12187D01*
X83736Y12156D01*
X83775Y12148D01*
X83814Y12140D01*
X83845Y12132D01*
X83876Y12129D01*
X83899Y12125D01*
X83930D01*
X83992Y12129D01*
X84051Y12136D01*
X84109Y12148D01*
X84159Y12163D01*
X84256Y12206D01*
X84299Y12229D01*
X84342Y12253D01*
X84376Y12276D01*
X84407Y12299D01*
X84435Y12323D01*
X84454Y12342D01*
X84473Y12358D01*
X84485Y12369D01*
X84493Y12377D01*
X84497Y12381D01*
X84535Y12431D01*
X84570Y12485D01*
X84601Y12544D01*
X84625Y12606D01*
X84648Y12664D01*
X84667Y12726D01*
X84695Y12846D01*
X84702Y12901D01*
X84710Y12951D01*
X84714Y12998D01*
X84718Y13040D01*
X84722Y13071D01*
Y13099D01*
Y13114D01*
Y13118D01*
X84718Y13207D01*
X84710Y13289D01*
X84702Y13366D01*
X84687Y13436D01*
X84671Y13502D01*
X84652Y13564D01*
X84629Y13619D01*
X84609Y13669D01*
X84590Y13712D01*
X84566Y13750D01*
X84547Y13781D01*
X84532Y13809D01*
X84516Y13828D01*
X84504Y13844D01*
X84501Y13851D01*
X84497Y13855D01*
X84454Y13902D01*
X84407Y13940D01*
X84361Y13975D01*
X84310Y14006D01*
X84264Y14030D01*
X84217Y14053D01*
X84128Y14084D01*
X84085Y14092D01*
X84051Y14100D01*
X84016Y14107D01*
X83985Y14111D01*
X83961Y14115D01*
D02*
G37*
G36*
X52095Y14158D02*
X52064D01*
X52006Y14154D01*
X51951Y14146D01*
X51901Y14134D01*
X51850Y14119D01*
X51761Y14080D01*
X51687Y14034D01*
X51656Y14010D01*
X51629Y13987D01*
X51606Y13968D01*
X51583Y13948D01*
X51567Y13933D01*
X51556Y13921D01*
X51552Y13913D01*
X51548Y13909D01*
X51513Y13859D01*
X51482Y13805D01*
X51455Y13747D01*
X51431Y13681D01*
X51396Y13549D01*
X51369Y13417D01*
X51362Y13355D01*
X51358Y13296D01*
X51354Y13242D01*
X51350Y13199D01*
X51346Y13161D01*
Y13130D01*
Y13114D01*
Y13106D01*
X51350Y13017D01*
X51354Y12932D01*
X51365Y12850D01*
X51377Y12776D01*
X51393Y12711D01*
X51412Y12649D01*
X51431Y12594D01*
X51451Y12544D01*
X51470Y12497D01*
X51490Y12458D01*
X51505Y12427D01*
X51524Y12400D01*
X51536Y12381D01*
X51548Y12365D01*
X51552Y12358D01*
X51556Y12354D01*
X51594Y12311D01*
X51637Y12272D01*
X51680Y12237D01*
X51718Y12210D01*
X51761Y12187D01*
X51804Y12167D01*
X51881Y12136D01*
X51951Y12117D01*
X51982Y12113D01*
X52006Y12109D01*
X52029Y12105D01*
X52056D01*
X52122Y12109D01*
X52188Y12121D01*
X52246Y12136D01*
X52304Y12156D01*
X52355Y12183D01*
X52405Y12210D01*
X52448Y12241D01*
X52487Y12272D01*
X52522Y12303D01*
X52553Y12334D01*
X52580Y12361D01*
X52599Y12388D01*
X52615Y12408D01*
X52626Y12423D01*
X52634Y12435D01*
X52638Y12439D01*
X52661Y12485D01*
X52685Y12540D01*
X52704Y12594D01*
X52719Y12656D01*
X52743Y12776D01*
X52758Y12901D01*
X52766Y12959D01*
X52770Y13013D01*
X52774Y13060D01*
Y13102D01*
X52778Y13137D01*
Y13164D01*
Y13184D01*
Y13188D01*
X52774Y13277D01*
X52770Y13359D01*
X52758Y13436D01*
X52747Y13506D01*
X52731Y13572D01*
X52716Y13630D01*
X52696Y13684D01*
X52677Y13731D01*
X52657Y13774D01*
X52638Y13813D01*
X52622Y13844D01*
X52607Y13867D01*
X52595Y13886D01*
X52584Y13902D01*
X52580Y13909D01*
X52576Y13913D01*
X52537Y13956D01*
X52494Y13995D01*
X52452Y14026D01*
X52409Y14053D01*
X52366Y14080D01*
X52324Y14100D01*
X52242Y14127D01*
X52172Y14146D01*
X52141Y14150D01*
X52114Y14154D01*
X52095Y14158D01*
D02*
G37*
G36*
X97239D02*
X97208D01*
X97149Y14154D01*
X97095Y14146D01*
X97045Y14134D01*
X96994Y14119D01*
X96905Y14080D01*
X96831Y14034D01*
X96800Y14010D01*
X96773Y13987D01*
X96750Y13968D01*
X96726Y13948D01*
X96711Y13933D01*
X96699Y13921D01*
X96695Y13913D01*
X96692Y13909D01*
X96657Y13859D01*
X96626Y13805D01*
X96598Y13747D01*
X96575Y13681D01*
X96540Y13549D01*
X96513Y13417D01*
X96505Y13355D01*
X96501Y13296D01*
X96497Y13242D01*
X96494Y13199D01*
X96490Y13161D01*
Y13130D01*
Y13114D01*
Y13106D01*
X96494Y13017D01*
X96497Y12932D01*
X96509Y12850D01*
X96521Y12776D01*
X96536Y12711D01*
X96556Y12649D01*
X96575Y12594D01*
X96595Y12544D01*
X96614Y12497D01*
X96633Y12458D01*
X96649Y12427D01*
X96668Y12400D01*
X96680Y12381D01*
X96692Y12365D01*
X96695Y12358D01*
X96699Y12354D01*
X96738Y12311D01*
X96781Y12272D01*
X96823Y12237D01*
X96862Y12210D01*
X96905Y12187D01*
X96948Y12167D01*
X97025Y12136D01*
X97095Y12117D01*
X97126Y12113D01*
X97149Y12109D01*
X97173Y12105D01*
X97200D01*
X97266Y12109D01*
X97332Y12121D01*
X97390Y12136D01*
X97448Y12156D01*
X97499Y12183D01*
X97549Y12210D01*
X97592Y12241D01*
X97631Y12272D01*
X97665Y12303D01*
X97696Y12334D01*
X97724Y12361D01*
X97743Y12388D01*
X97759Y12408D01*
X97770Y12423D01*
X97778Y12435D01*
X97782Y12439D01*
X97805Y12485D01*
X97828Y12540D01*
X97848Y12594D01*
X97863Y12656D01*
X97887Y12776D01*
X97902Y12901D01*
X97910Y12959D01*
X97914Y13013D01*
X97918Y13060D01*
Y13102D01*
X97922Y13137D01*
Y13164D01*
Y13184D01*
Y13188D01*
X97918Y13277D01*
X97914Y13359D01*
X97902Y13436D01*
X97890Y13506D01*
X97875Y13572D01*
X97859Y13630D01*
X97840Y13684D01*
X97821Y13731D01*
X97801Y13774D01*
X97782Y13813D01*
X97766Y13844D01*
X97751Y13867D01*
X97739Y13886D01*
X97728Y13902D01*
X97724Y13909D01*
X97720Y13913D01*
X97681Y13956D01*
X97638Y13995D01*
X97596Y14026D01*
X97553Y14053D01*
X97510Y14080D01*
X97467Y14100D01*
X97386Y14127D01*
X97316Y14146D01*
X97285Y14150D01*
X97258Y14154D01*
X97239Y14158D01*
D02*
G37*
G36*
X88664Y15217D02*
X88062D01*
X87989Y15213D01*
X87923D01*
X87865Y15209D01*
X87810D01*
X87764Y15205D01*
X87725Y15202D01*
X87690Y15198D01*
X87659D01*
X87636Y15194D01*
X87612Y15190D01*
X87601D01*
X87589Y15186D01*
X87581D01*
X87504Y15167D01*
X87430Y15136D01*
X87368Y15104D01*
X87317Y15070D01*
X87275Y15039D01*
X87244Y15011D01*
X87224Y14992D01*
X87217Y14984D01*
X87170Y14922D01*
X87135Y14852D01*
X87108Y14786D01*
X87092Y14724D01*
X87081Y14666D01*
X87077Y14623D01*
X87073Y14604D01*
Y14592D01*
Y14585D01*
Y14581D01*
X87077Y14511D01*
X87089Y14441D01*
X87108Y14383D01*
X87123Y14332D01*
X87143Y14290D01*
X87162Y14259D01*
X87174Y14239D01*
X87178Y14232D01*
X87220Y14181D01*
X87263Y14134D01*
X87310Y14100D01*
X87356Y14069D01*
X87399Y14045D01*
X87430Y14026D01*
X87453Y14018D01*
X87457Y14014D01*
X87461D01*
X87500Y14003D01*
X87542Y13991D01*
X87593Y13983D01*
X87647Y13975D01*
X87764Y13960D01*
X87884Y13952D01*
X87938D01*
X87993Y13948D01*
X88043D01*
X88086Y13944D01*
X88664D01*
Y15217D01*
D02*
G37*
G36*
X100983Y14115D02*
X100952D01*
X100890Y14111D01*
X100831Y14104D01*
X100777Y14092D01*
X100723Y14076D01*
X100626Y14034D01*
X100583Y14010D01*
X100544Y13987D01*
X100509Y13960D01*
X100478Y13937D01*
X100451Y13917D01*
X100432Y13898D01*
X100412Y13878D01*
X100401Y13867D01*
X100393Y13859D01*
X100389Y13855D01*
X100350Y13805D01*
X100312Y13750D01*
X100284Y13692D01*
X100257Y13634D01*
X100234Y13572D01*
X100215Y13514D01*
X100187Y13393D01*
X100180Y13339D01*
X100172Y13289D01*
X100168Y13242D01*
X100164Y13203D01*
X100160Y13172D01*
Y13145D01*
Y13130D01*
Y13126D01*
X100164Y13036D01*
X100172Y12955D01*
X100180Y12877D01*
X100195Y12804D01*
X100215Y12738D01*
X100234Y12676D01*
X100253Y12621D01*
X100273Y12571D01*
X100296Y12524D01*
X100315Y12489D01*
X100335Y12455D01*
X100354Y12427D01*
X100370Y12408D01*
X100378Y12392D01*
X100385Y12385D01*
X100389Y12381D01*
X100432Y12334D01*
X100478Y12295D01*
X100525Y12261D01*
X100575Y12233D01*
X100622Y12206D01*
X100669Y12187D01*
X100758Y12156D01*
X100797Y12148D01*
X100835Y12140D01*
X100866Y12132D01*
X100897Y12129D01*
X100921Y12125D01*
X100952D01*
X101014Y12129D01*
X101072Y12136D01*
X101130Y12148D01*
X101181Y12163D01*
X101278Y12206D01*
X101320Y12229D01*
X101363Y12253D01*
X101398Y12276D01*
X101429Y12299D01*
X101456Y12323D01*
X101476Y12342D01*
X101495Y12358D01*
X101507Y12369D01*
X101514Y12377D01*
X101518Y12381D01*
X101557Y12431D01*
X101592Y12485D01*
X101623Y12544D01*
X101646Y12606D01*
X101670Y12664D01*
X101689Y12726D01*
X101716Y12846D01*
X101724Y12901D01*
X101732Y12951D01*
X101735Y12998D01*
X101739Y13040D01*
X101743Y13071D01*
Y13099D01*
Y13114D01*
Y13118D01*
X101739Y13207D01*
X101732Y13289D01*
X101724Y13366D01*
X101708Y13436D01*
X101693Y13502D01*
X101673Y13564D01*
X101650Y13619D01*
X101631Y13669D01*
X101611Y13712D01*
X101588Y13750D01*
X101569Y13781D01*
X101553Y13809D01*
X101538Y13828D01*
X101526Y13844D01*
X101522Y13851D01*
X101518Y13855D01*
X101476Y13902D01*
X101429Y13940D01*
X101382Y13975D01*
X101332Y14006D01*
X101285Y14030D01*
X101239Y14053D01*
X101150Y14084D01*
X101107Y14092D01*
X101072Y14100D01*
X101037Y14107D01*
X101006Y14111D01*
X100983Y14115D01*
D02*
G37*
G36*
X93736Y8115D02*
X93705D01*
X93643Y8111D01*
X93585Y8104D01*
X93530Y8092D01*
X93476Y8076D01*
X93379Y8034D01*
X93336Y8010D01*
X93298Y7987D01*
X93263Y7960D01*
X93232Y7937D01*
X93204Y7917D01*
X93185Y7898D01*
X93166Y7878D01*
X93154Y7867D01*
X93146Y7859D01*
X93142Y7855D01*
X93104Y7805D01*
X93065Y7750D01*
X93038Y7692D01*
X93010Y7634D01*
X92987Y7572D01*
X92968Y7514D01*
X92941Y7393D01*
X92933Y7339D01*
X92925Y7289D01*
X92921Y7242D01*
X92917Y7203D01*
X92913Y7172D01*
Y7145D01*
Y7130D01*
Y7126D01*
X92917Y7036D01*
X92925Y6955D01*
X92933Y6877D01*
X92948Y6804D01*
X92968Y6738D01*
X92987Y6676D01*
X93007Y6621D01*
X93026Y6571D01*
X93049Y6524D01*
X93069Y6489D01*
X93088Y6454D01*
X93107Y6427D01*
X93123Y6408D01*
X93131Y6392D01*
X93138Y6385D01*
X93142Y6381D01*
X93185Y6334D01*
X93232Y6295D01*
X93278Y6261D01*
X93329Y6233D01*
X93375Y6206D01*
X93422Y6187D01*
X93511Y6156D01*
X93550Y6148D01*
X93589Y6140D01*
X93620Y6132D01*
X93651Y6129D01*
X93674Y6125D01*
X93705D01*
X93767Y6129D01*
X93825Y6136D01*
X93883Y6148D01*
X93934Y6163D01*
X94031Y6206D01*
X94074Y6229D01*
X94116Y6253D01*
X94151Y6276D01*
X94182Y6299D01*
X94209Y6323D01*
X94229Y6342D01*
X94248Y6357D01*
X94260Y6369D01*
X94268Y6377D01*
X94271Y6381D01*
X94310Y6431D01*
X94345Y6486D01*
X94376Y6544D01*
X94399Y6606D01*
X94423Y6664D01*
X94442Y6726D01*
X94469Y6846D01*
X94477Y6901D01*
X94485Y6951D01*
X94489Y6998D01*
X94493Y7040D01*
X94497Y7071D01*
Y7099D01*
Y7114D01*
Y7118D01*
X94493Y7207D01*
X94485Y7289D01*
X94477Y7366D01*
X94462Y7436D01*
X94446Y7502D01*
X94427Y7564D01*
X94403Y7619D01*
X94384Y7669D01*
X94365Y7712D01*
X94341Y7750D01*
X94322Y7781D01*
X94306Y7809D01*
X94291Y7828D01*
X94279Y7843D01*
X94275Y7851D01*
X94271Y7855D01*
X94229Y7902D01*
X94182Y7941D01*
X94136Y7975D01*
X94085Y8006D01*
X94039Y8030D01*
X93992Y8053D01*
X93903Y8084D01*
X93860Y8092D01*
X93825Y8100D01*
X93790Y8107D01*
X93759Y8111D01*
X93736Y8115D01*
D02*
G37*
G36*
X118393D02*
X118362D01*
X118300Y8111D01*
X118242Y8104D01*
X118188Y8092D01*
X118133Y8076D01*
X118036Y8034D01*
X117994Y8010D01*
X117955Y7987D01*
X117920Y7960D01*
X117889Y7937D01*
X117862Y7917D01*
X117842Y7898D01*
X117823Y7878D01*
X117811Y7867D01*
X117804Y7859D01*
X117800Y7855D01*
X117761Y7805D01*
X117722Y7750D01*
X117695Y7692D01*
X117668Y7634D01*
X117645Y7572D01*
X117625Y7514D01*
X117598Y7393D01*
X117590Y7339D01*
X117582Y7289D01*
X117579Y7242D01*
X117575Y7203D01*
X117571Y7172D01*
Y7145D01*
Y7130D01*
Y7126D01*
X117575Y7036D01*
X117582Y6955D01*
X117590Y6877D01*
X117606Y6804D01*
X117625Y6738D01*
X117645Y6676D01*
X117664Y6621D01*
X117683Y6571D01*
X117707Y6524D01*
X117726Y6489D01*
X117745Y6454D01*
X117765Y6427D01*
X117780Y6408D01*
X117788Y6392D01*
X117796Y6385D01*
X117800Y6381D01*
X117842Y6334D01*
X117889Y6295D01*
X117936Y6261D01*
X117986Y6233D01*
X118033Y6206D01*
X118079Y6187D01*
X118168Y6156D01*
X118207Y6148D01*
X118246Y6140D01*
X118277Y6132D01*
X118308Y6129D01*
X118331Y6125D01*
X118362D01*
X118424Y6129D01*
X118483Y6136D01*
X118541Y6148D01*
X118591Y6163D01*
X118688Y6206D01*
X118731Y6229D01*
X118774Y6253D01*
X118809Y6276D01*
X118840Y6299D01*
X118867Y6323D01*
X118886Y6342D01*
X118906Y6357D01*
X118917Y6369D01*
X118925Y6377D01*
X118929Y6381D01*
X118968Y6431D01*
X119003Y6486D01*
X119034Y6544D01*
X119057Y6606D01*
X119080Y6664D01*
X119100Y6726D01*
X119127Y6846D01*
X119134Y6901D01*
X119142Y6951D01*
X119146Y6998D01*
X119150Y7040D01*
X119154Y7071D01*
Y7099D01*
Y7114D01*
Y7118D01*
X119150Y7207D01*
X119142Y7289D01*
X119134Y7366D01*
X119119Y7436D01*
X119103Y7502D01*
X119084Y7564D01*
X119061Y7619D01*
X119041Y7669D01*
X119022Y7712D01*
X118999Y7750D01*
X118979Y7781D01*
X118964Y7809D01*
X118948Y7828D01*
X118937Y7843D01*
X118933Y7851D01*
X118929Y7855D01*
X118886Y7902D01*
X118840Y7941D01*
X118793Y7975D01*
X118743Y8006D01*
X118696Y8030D01*
X118649Y8053D01*
X118560Y8084D01*
X118518Y8092D01*
X118483Y8100D01*
X118448Y8107D01*
X118417Y8111D01*
X118393Y8115D01*
D02*
G37*
G36*
X89992Y8158D02*
X89961D01*
X89903Y8154D01*
X89848Y8146D01*
X89798Y8134D01*
X89747Y8119D01*
X89658Y8080D01*
X89584Y8034D01*
X89553Y8010D01*
X89526Y7987D01*
X89503Y7968D01*
X89480Y7948D01*
X89464Y7933D01*
X89452Y7921D01*
X89449Y7913D01*
X89445Y7909D01*
X89410Y7859D01*
X89379Y7805D01*
X89352Y7746D01*
X89328Y7681D01*
X89293Y7549D01*
X89266Y7417D01*
X89258Y7355D01*
X89255Y7296D01*
X89251Y7242D01*
X89247Y7199D01*
X89243Y7161D01*
Y7130D01*
Y7114D01*
Y7106D01*
X89247Y7017D01*
X89251Y6932D01*
X89262Y6850D01*
X89274Y6776D01*
X89289Y6711D01*
X89309Y6649D01*
X89328Y6594D01*
X89348Y6544D01*
X89367Y6497D01*
X89386Y6458D01*
X89402Y6427D01*
X89421Y6400D01*
X89433Y6381D01*
X89445Y6365D01*
X89449Y6357D01*
X89452Y6354D01*
X89491Y6311D01*
X89534Y6272D01*
X89577Y6237D01*
X89615Y6210D01*
X89658Y6187D01*
X89701Y6167D01*
X89778Y6136D01*
X89848Y6117D01*
X89879Y6113D01*
X89903Y6109D01*
X89926Y6105D01*
X89953D01*
X90019Y6109D01*
X90085Y6121D01*
X90143Y6136D01*
X90201Y6156D01*
X90252Y6183D01*
X90302Y6210D01*
X90345Y6241D01*
X90384Y6272D01*
X90419Y6303D01*
X90450Y6334D01*
X90477Y6361D01*
X90496Y6389D01*
X90512Y6408D01*
X90523Y6423D01*
X90531Y6435D01*
X90535Y6439D01*
X90558Y6486D01*
X90582Y6540D01*
X90601Y6594D01*
X90617Y6656D01*
X90640Y6776D01*
X90655Y6901D01*
X90663Y6959D01*
X90667Y7013D01*
X90671Y7060D01*
Y7102D01*
X90675Y7137D01*
Y7164D01*
Y7184D01*
Y7188D01*
X90671Y7277D01*
X90667Y7359D01*
X90655Y7436D01*
X90644Y7506D01*
X90628Y7572D01*
X90613Y7630D01*
X90593Y7684D01*
X90574Y7731D01*
X90554Y7774D01*
X90535Y7812D01*
X90519Y7843D01*
X90504Y7867D01*
X90492Y7886D01*
X90481Y7902D01*
X90477Y7909D01*
X90473Y7913D01*
X90434Y7956D01*
X90391Y7995D01*
X90349Y8026D01*
X90306Y8053D01*
X90263Y8080D01*
X90221Y8100D01*
X90139Y8127D01*
X90069Y8146D01*
X90038Y8150D01*
X90011Y8154D01*
X89992Y8158D01*
D02*
G37*
G36*
X54342Y9283D02*
X54315D01*
X54257Y9279D01*
X54207Y9268D01*
X54160Y9252D01*
X54117Y9233D01*
X54086Y9213D01*
X54059Y9198D01*
X54044Y9186D01*
X54040Y9182D01*
X54016Y9163D01*
X53997Y9136D01*
X53954Y9077D01*
X53919Y9011D01*
X53892Y8945D01*
X53869Y8883D01*
X53861Y8856D01*
X53853Y8833D01*
X53846Y8813D01*
X53842Y8798D01*
X53838Y8790D01*
Y8786D01*
X53822Y8724D01*
X53811Y8654D01*
X53799Y8577D01*
X53791Y8491D01*
X53784Y8406D01*
X53776Y8313D01*
X53768Y8134D01*
X53764Y8049D01*
X53760Y7968D01*
Y7894D01*
X53756Y7832D01*
Y7778D01*
Y7739D01*
Y7723D01*
Y7712D01*
Y7708D01*
Y7704D01*
Y7560D01*
X53760Y7428D01*
X53764Y7308D01*
X53772Y7196D01*
X53776Y7095D01*
X53784Y7005D01*
X53791Y6924D01*
X53799Y6850D01*
X53811Y6788D01*
X53819Y6734D01*
X53826Y6687D01*
X53830Y6649D01*
X53838Y6621D01*
X53842Y6602D01*
X53846Y6590D01*
Y6586D01*
X53873Y6497D01*
X53904Y6423D01*
X53939Y6361D01*
X53970Y6311D01*
X53997Y6276D01*
X54020Y6249D01*
X54036Y6233D01*
X54040Y6229D01*
X54086Y6198D01*
X54133Y6175D01*
X54179Y6156D01*
X54222Y6144D01*
X54261Y6136D01*
X54288Y6132D01*
X54315D01*
X54373Y6136D01*
X54424Y6148D01*
X54470Y6163D01*
X54509Y6183D01*
X54544Y6198D01*
X54567Y6214D01*
X54587Y6226D01*
X54591Y6229D01*
X54614Y6249D01*
X54633Y6276D01*
X54672Y6330D01*
X54707Y6396D01*
X54738Y6462D01*
X54761Y6524D01*
X54769Y6551D01*
X54777Y6575D01*
X54785Y6594D01*
X54789Y6610D01*
X54792Y6617D01*
Y6621D01*
X54804Y6683D01*
X54820Y6753D01*
X54827Y6831D01*
X54839Y6916D01*
X54843Y7002D01*
X54851Y7095D01*
X54858Y7273D01*
X54862Y7359D01*
X54866Y7440D01*
Y7514D01*
X54870Y7576D01*
Y7630D01*
Y7669D01*
Y7684D01*
Y7696D01*
Y7700D01*
Y7704D01*
Y7847D01*
X54866Y7979D01*
X54862Y8100D01*
X54858Y8212D01*
X54851Y8313D01*
X54843Y8406D01*
X54835Y8488D01*
X54827Y8561D01*
X54820Y8623D01*
X54812Y8678D01*
X54804Y8724D01*
X54796Y8759D01*
X54792Y8790D01*
X54789Y8810D01*
X54785Y8821D01*
Y8825D01*
X54757Y8914D01*
X54726Y8988D01*
X54695Y9050D01*
X54664Y9101D01*
X54637Y9136D01*
X54614Y9163D01*
X54598Y9178D01*
X54595Y9182D01*
X54548Y9217D01*
X54498Y9240D01*
X54451Y9260D01*
X54408Y9271D01*
X54369Y9279D01*
X54342Y9283D01*
D02*
G37*
G36*
X72629Y8158D02*
X72598D01*
X72540Y8154D01*
X72485Y8146D01*
X72435Y8134D01*
X72384Y8119D01*
X72295Y8080D01*
X72221Y8034D01*
X72190Y8010D01*
X72163Y7987D01*
X72140Y7968D01*
X72117Y7948D01*
X72101Y7933D01*
X72089Y7921D01*
X72086Y7913D01*
X72082Y7909D01*
X72047Y7859D01*
X72016Y7805D01*
X71989Y7746D01*
X71965Y7681D01*
X71930Y7549D01*
X71903Y7417D01*
X71895Y7355D01*
X71892Y7296D01*
X71888Y7242D01*
X71884Y7199D01*
X71880Y7161D01*
Y7130D01*
Y7114D01*
Y7106D01*
X71884Y7017D01*
X71888Y6932D01*
X71899Y6850D01*
X71911Y6776D01*
X71926Y6711D01*
X71946Y6649D01*
X71965Y6594D01*
X71985Y6544D01*
X72004Y6497D01*
X72023Y6458D01*
X72039Y6427D01*
X72058Y6400D01*
X72070Y6381D01*
X72082Y6365D01*
X72086Y6357D01*
X72089Y6354D01*
X72128Y6311D01*
X72171Y6272D01*
X72214Y6237D01*
X72252Y6210D01*
X72295Y6187D01*
X72338Y6167D01*
X72415Y6136D01*
X72485Y6117D01*
X72516Y6113D01*
X72540Y6109D01*
X72563Y6105D01*
X72590D01*
X72656Y6109D01*
X72722Y6121D01*
X72780Y6136D01*
X72838Y6156D01*
X72889Y6183D01*
X72939Y6210D01*
X72982Y6241D01*
X73021Y6272D01*
X73056Y6303D01*
X73087Y6334D01*
X73114Y6361D01*
X73133Y6389D01*
X73149Y6408D01*
X73160Y6423D01*
X73168Y6435D01*
X73172Y6439D01*
X73195Y6486D01*
X73219Y6540D01*
X73238Y6594D01*
X73254Y6656D01*
X73277Y6776D01*
X73292Y6901D01*
X73300Y6959D01*
X73304Y7013D01*
X73308Y7060D01*
Y7102D01*
X73312Y7137D01*
Y7164D01*
Y7184D01*
Y7188D01*
X73308Y7277D01*
X73304Y7359D01*
X73292Y7436D01*
X73281Y7506D01*
X73265Y7572D01*
X73250Y7630D01*
X73230Y7684D01*
X73211Y7731D01*
X73191Y7774D01*
X73172Y7812D01*
X73156Y7843D01*
X73141Y7867D01*
X73129Y7886D01*
X73118Y7902D01*
X73114Y7909D01*
X73110Y7913D01*
X73071Y7956D01*
X73028Y7995D01*
X72986Y8026D01*
X72943Y8053D01*
X72900Y8080D01*
X72858Y8100D01*
X72776Y8127D01*
X72706Y8146D01*
X72675Y8150D01*
X72648Y8154D01*
X72629Y8158D01*
D02*
G37*
G36*
X76373Y8115D02*
X76342D01*
X76280Y8111D01*
X76222Y8104D01*
X76167Y8092D01*
X76113Y8076D01*
X76016Y8034D01*
X75973Y8010D01*
X75935Y7987D01*
X75900Y7960D01*
X75869Y7937D01*
X75841Y7917D01*
X75822Y7898D01*
X75803Y7878D01*
X75791Y7867D01*
X75783Y7859D01*
X75779Y7855D01*
X75741Y7805D01*
X75702Y7750D01*
X75675Y7692D01*
X75647Y7634D01*
X75624Y7572D01*
X75605Y7514D01*
X75578Y7393D01*
X75570Y7339D01*
X75562Y7289D01*
X75558Y7242D01*
X75554Y7203D01*
X75550Y7172D01*
Y7145D01*
Y7130D01*
Y7126D01*
X75554Y7036D01*
X75562Y6955D01*
X75570Y6877D01*
X75585Y6804D01*
X75605Y6738D01*
X75624Y6676D01*
X75644Y6621D01*
X75663Y6571D01*
X75686Y6524D01*
X75706Y6489D01*
X75725Y6454D01*
X75744Y6427D01*
X75760Y6408D01*
X75768Y6392D01*
X75775Y6385D01*
X75779Y6381D01*
X75822Y6334D01*
X75869Y6295D01*
X75915Y6261D01*
X75966Y6233D01*
X76012Y6206D01*
X76059Y6187D01*
X76148Y6156D01*
X76187Y6148D01*
X76226Y6140D01*
X76257Y6132D01*
X76288Y6129D01*
X76311Y6125D01*
X76342D01*
X76404Y6129D01*
X76462Y6136D01*
X76520Y6148D01*
X76571Y6163D01*
X76668Y6206D01*
X76711Y6229D01*
X76753Y6253D01*
X76788Y6276D01*
X76819Y6299D01*
X76846Y6323D01*
X76866Y6342D01*
X76885Y6357D01*
X76897Y6369D01*
X76905Y6377D01*
X76908Y6381D01*
X76947Y6431D01*
X76982Y6486D01*
X77013Y6544D01*
X77036Y6606D01*
X77060Y6664D01*
X77079Y6726D01*
X77106Y6846D01*
X77114Y6901D01*
X77122Y6951D01*
X77126Y6998D01*
X77130Y7040D01*
X77134Y7071D01*
Y7099D01*
Y7114D01*
Y7118D01*
X77130Y7207D01*
X77122Y7289D01*
X77114Y7366D01*
X77099Y7436D01*
X77083Y7502D01*
X77064Y7564D01*
X77040Y7619D01*
X77021Y7669D01*
X77002Y7712D01*
X76978Y7750D01*
X76959Y7781D01*
X76943Y7809D01*
X76928Y7828D01*
X76916Y7843D01*
X76912Y7851D01*
X76908Y7855D01*
X76866Y7902D01*
X76819Y7941D01*
X76773Y7975D01*
X76722Y8006D01*
X76676Y8030D01*
X76629Y8053D01*
X76540Y8084D01*
X76497Y8092D01*
X76462Y8100D01*
X76427Y8107D01*
X76396Y8111D01*
X76373Y8115D01*
D02*
G37*
G36*
X109900Y8158D02*
X109873D01*
X109822Y8154D01*
X109780Y8150D01*
X109691Y8127D01*
X109617Y8096D01*
X109551Y8061D01*
X109497Y8026D01*
X109458Y7995D01*
X109446Y7983D01*
X109434Y7972D01*
X109431Y7968D01*
X109427Y7964D01*
X109396Y7925D01*
X109365Y7882D01*
X109318Y7793D01*
X109283Y7700D01*
X109260Y7607D01*
X109252Y7564D01*
X109244Y7525D01*
X109240Y7490D01*
X109237Y7459D01*
Y7432D01*
X109233Y7413D01*
Y7401D01*
Y7397D01*
X110517D01*
X110513Y7459D01*
X110509Y7521D01*
X110490Y7630D01*
X110474Y7681D01*
X110459Y7727D01*
X110443Y7770D01*
X110424Y7805D01*
X110408Y7840D01*
X110393Y7871D01*
X110377Y7894D01*
X110362Y7913D01*
X110350Y7933D01*
X110342Y7944D01*
X110335Y7948D01*
Y7952D01*
X110300Y7987D01*
X110261Y8022D01*
X110226Y8049D01*
X110187Y8072D01*
X110110Y8107D01*
X110036Y8131D01*
X109970Y8146D01*
X109943Y8150D01*
X109920Y8154D01*
X109900Y8158D01*
D02*
G37*
G36*
X123096Y9217D02*
X122495D01*
X122421Y9213D01*
X122355D01*
X122297Y9209D01*
X122242D01*
X122196Y9205D01*
X122157Y9201D01*
X122122Y9198D01*
X122091D01*
X122068Y9194D01*
X122045Y9190D01*
X122033D01*
X122021Y9186D01*
X122013D01*
X121936Y9167D01*
X121862Y9136D01*
X121800Y9104D01*
X121750Y9070D01*
X121707Y9039D01*
X121676Y9011D01*
X121657Y8992D01*
X121649Y8984D01*
X121602Y8922D01*
X121567Y8852D01*
X121540Y8786D01*
X121525Y8724D01*
X121513Y8666D01*
X121509Y8623D01*
X121505Y8604D01*
Y8592D01*
Y8585D01*
Y8581D01*
X121509Y8511D01*
X121521Y8441D01*
X121540Y8383D01*
X121556Y8332D01*
X121575Y8290D01*
X121594Y8259D01*
X121606Y8239D01*
X121610Y8231D01*
X121653Y8181D01*
X121695Y8134D01*
X121742Y8100D01*
X121788Y8069D01*
X121831Y8045D01*
X121862Y8026D01*
X121885Y8018D01*
X121889Y8014D01*
X121893D01*
X121932Y8003D01*
X121975Y7991D01*
X122025Y7983D01*
X122079Y7975D01*
X122196Y7960D01*
X122316Y7952D01*
X122370D01*
X122425Y7948D01*
X122475D01*
X122518Y7944D01*
X123096D01*
Y9217D01*
D02*
G37*
G36*
X68923Y8158D02*
X68896D01*
X68846Y8154D01*
X68803Y8150D01*
X68714Y8127D01*
X68640Y8096D01*
X68574Y8061D01*
X68520Y8026D01*
X68481Y7995D01*
X68469Y7983D01*
X68458Y7972D01*
X68454Y7968D01*
X68450Y7964D01*
X68419Y7925D01*
X68388Y7882D01*
X68341Y7793D01*
X68306Y7700D01*
X68283Y7607D01*
X68275Y7564D01*
X68268Y7525D01*
X68264Y7490D01*
X68260Y7459D01*
Y7432D01*
X68256Y7413D01*
Y7401D01*
Y7397D01*
X69540D01*
X69536Y7459D01*
X69533Y7521D01*
X69513Y7630D01*
X69498Y7681D01*
X69482Y7727D01*
X69467Y7770D01*
X69447Y7805D01*
X69432Y7840D01*
X69416Y7871D01*
X69401Y7894D01*
X69385Y7913D01*
X69374Y7933D01*
X69366Y7944D01*
X69358Y7948D01*
Y7952D01*
X69323Y7987D01*
X69284Y8022D01*
X69249Y8049D01*
X69210Y8072D01*
X69133Y8107D01*
X69059Y8131D01*
X68993Y8146D01*
X68966Y8150D01*
X68943Y8154D01*
X68923Y8158D01*
D02*
G37*
G36*
X86286D02*
X86259D01*
X86209Y8154D01*
X86166Y8150D01*
X86077Y8127D01*
X86003Y8096D01*
X85937Y8061D01*
X85883Y8026D01*
X85844Y7995D01*
X85832Y7983D01*
X85821Y7972D01*
X85817Y7968D01*
X85813Y7964D01*
X85782Y7925D01*
X85751Y7882D01*
X85704Y7793D01*
X85669Y7700D01*
X85646Y7607D01*
X85638Y7564D01*
X85631Y7525D01*
X85627Y7490D01*
X85623Y7459D01*
Y7432D01*
X85619Y7413D01*
Y7401D01*
Y7397D01*
X86903D01*
X86899Y7459D01*
X86896Y7521D01*
X86876Y7630D01*
X86861Y7681D01*
X86845Y7727D01*
X86830Y7770D01*
X86810Y7805D01*
X86795Y7840D01*
X86779Y7871D01*
X86764Y7894D01*
X86748Y7913D01*
X86737Y7933D01*
X86729Y7944D01*
X86721Y7948D01*
Y7952D01*
X86686Y7987D01*
X86647Y8022D01*
X86612Y8049D01*
X86573Y8072D01*
X86496Y8107D01*
X86422Y8131D01*
X86356Y8146D01*
X86329Y8150D01*
X86306Y8154D01*
X86286Y8158D01*
D02*
G37*
G36*
X39429Y43476D02*
X31524D01*
Y35571D01*
X39429D01*
Y43476D01*
D02*
G37*
G36*
X35476Y80510D02*
X34444Y80375D01*
X33483Y79976D01*
X32657Y79343D01*
X32024Y78517D01*
X31625Y77556D01*
X31490Y76524D01*
X31625Y75492D01*
X32024Y74530D01*
X32657Y73704D01*
X33483Y73071D01*
X34444Y72673D01*
X35476Y72537D01*
X36508Y72673D01*
X36972Y72865D01*
X46895Y62942D01*
X47391Y62611D01*
X47976Y62494D01*
X77976D01*
X78562Y62611D01*
X79058Y62942D01*
X82631Y66515D01*
X83257Y66640D01*
X83918Y67082D01*
X84360Y67743D01*
X84516Y68524D01*
X84360Y69304D01*
X83918Y69965D01*
X83257Y70408D01*
X82476Y70563D01*
X81696Y70408D01*
X81034Y69965D01*
X80592Y69304D01*
X80468Y68678D01*
X77343Y65553D01*
X48610D01*
X39135Y75028D01*
X39327Y75492D01*
X39463Y76524D01*
X39327Y77556D01*
X38929Y78517D01*
X38296Y79343D01*
X37470Y79976D01*
X36508Y80375D01*
X35476Y80510D01*
D02*
G37*
G36*
X130650Y89071D02*
X129950D01*
X129540Y88989D01*
X129454Y88932D01*
X129240Y88889D01*
X129197Y88860D01*
X128840Y88789D01*
X128712Y88703D01*
X128640Y88689D01*
X128554Y88632D01*
X128340Y88589D01*
X128212Y88503D01*
X128140Y88489D01*
X128012Y88403D01*
X127940Y88389D01*
X127641Y88189D01*
X127640Y88189D01*
X127293Y87957D01*
X127253Y87897D01*
X127241Y87889D01*
X127240Y87889D01*
X126893Y87657D01*
X126853Y87597D01*
X126793Y87557D01*
X126753Y87497D01*
X126693Y87457D01*
X126653Y87397D01*
X126593Y87357D01*
X126553Y87297D01*
X126493Y87257D01*
X126453Y87197D01*
X126393Y87157D01*
X126353Y87097D01*
X126293Y87057D01*
X126253Y86997D01*
X126193Y86957D01*
X125961Y86610D01*
X125961Y86609D01*
X125761Y86310D01*
X125761Y86309D01*
X125561Y86010D01*
X125547Y85938D01*
X125461Y85810D01*
X125418Y85596D01*
X125361Y85510D01*
X125318Y85296D01*
X125261Y85210D01*
X125179Y84800D01*
X125189Y84750D01*
X125179Y84700D01*
X125189Y84650D01*
X125179Y84600D01*
X125189Y84550D01*
X125179Y84500D01*
X125189Y84450D01*
X125179Y84400D01*
X125189Y84350D01*
X125179Y84300D01*
X125189Y84251D01*
X125153Y84197D01*
X125093Y84157D01*
X125053Y84097D01*
X124993Y84057D01*
X124953Y83997D01*
X124893Y83957D01*
X124661Y83610D01*
X124661Y83609D01*
X124653Y83597D01*
X124593Y83557D01*
X124553Y83497D01*
X124493Y83457D01*
X124453Y83397D01*
X124393Y83357D01*
X124353Y83297D01*
X124293Y83257D01*
X124253Y83197D01*
X124193Y83157D01*
X124153Y83097D01*
X124093Y83057D01*
X123877Y82734D01*
X123688Y82689D01*
X123481Y82782D01*
X123393Y82837D01*
X123221Y83100D01*
X123211Y83150D01*
X123221Y83200D01*
X123139Y83610D01*
X123082Y83696D01*
X123039Y83910D01*
X122953Y84038D01*
X122939Y84110D01*
X122707Y84457D01*
X122647Y84497D01*
X122607Y84557D01*
X122547Y84597D01*
X122507Y84657D01*
X122160Y84889D01*
X122088Y84903D01*
X121960Y84989D01*
X121603Y85060D01*
X121560Y85089D01*
X121150Y85171D01*
X120750D01*
X120340Y85089D01*
X120313Y85071D01*
X120250D01*
X119840Y84989D01*
X119754Y84932D01*
X119540Y84889D01*
X119412Y84803D01*
X119340Y84789D01*
X119212Y84703D01*
X119140Y84689D01*
X119012Y84603D01*
X118940Y84589D01*
X118641Y84389D01*
X118640Y84389D01*
X118341Y84189D01*
X118340Y84189D01*
X117993Y83957D01*
X117953Y83897D01*
X117893Y83857D01*
X117853Y83797D01*
X117793Y83757D01*
X117753Y83697D01*
X117693Y83657D01*
X117653Y83597D01*
X117593Y83557D01*
X117553Y83497D01*
X117493Y83457D01*
X117453Y83397D01*
X117393Y83357D01*
X117161Y83010D01*
X117161Y83009D01*
X117153Y82997D01*
X117093Y82957D01*
X116861Y82610D01*
X116847Y82538D01*
X116761Y82410D01*
X116747Y82338D01*
X116661Y82210D01*
X116647Y82138D01*
X116561Y82010D01*
X116518Y81796D01*
X116461Y81710D01*
X116379Y81300D01*
X116389Y81250D01*
X116379Y81200D01*
X116389Y81150D01*
X116379Y81100D01*
X116389Y81050D01*
X116379Y81000D01*
X116389Y80950D01*
X116379Y80900D01*
X116389Y80851D01*
X116161Y80510D01*
X116161Y80509D01*
X116153Y80497D01*
X116093Y80457D01*
X116053Y80397D01*
X115993Y80357D01*
X115953Y80297D01*
X115893Y80257D01*
X115853Y80197D01*
X115793Y80157D01*
X115561Y79810D01*
X115561Y79809D01*
X115553Y79797D01*
X115493Y79757D01*
X115453Y79697D01*
X115393Y79657D01*
X115353Y79597D01*
X115293Y79557D01*
X115253Y79497D01*
X115193Y79457D01*
X114961Y79110D01*
X114961Y79109D01*
X114953Y79097D01*
X114893Y79057D01*
X114853Y78997D01*
X114793Y78957D01*
X114753Y78897D01*
X114693Y78857D01*
X114653Y78797D01*
X114593Y78757D01*
X114553Y78697D01*
X114493Y78657D01*
X114261Y78310D01*
X114261Y78309D01*
X114253Y78297D01*
X114193Y78257D01*
X114153Y78197D01*
X114093Y78157D01*
X114053Y78097D01*
X113993Y78057D01*
X113761Y77710D01*
X113761Y77709D01*
X113753Y77697D01*
X113693Y77657D01*
X113653Y77597D01*
X113593Y77557D01*
X113553Y77497D01*
X113493Y77457D01*
X113453Y77397D01*
X113393Y77357D01*
X113161Y77010D01*
X113161Y77009D01*
X113153Y76997D01*
X113093Y76957D01*
X113053Y76897D01*
X112993Y76857D01*
X112953Y76797D01*
X112893Y76757D01*
X112853Y76697D01*
X112793Y76657D01*
X112561Y76310D01*
X112561Y76309D01*
X112553Y76297D01*
X112493Y76257D01*
X112453Y76197D01*
X112393Y76157D01*
X112353Y76097D01*
X112293Y76057D01*
X112253Y75997D01*
X112193Y75957D01*
X111961Y75610D01*
X111961Y75609D01*
X111953Y75597D01*
X111893Y75557D01*
X111853Y75497D01*
X111793Y75457D01*
X111753Y75397D01*
X111693Y75357D01*
X111653Y75297D01*
X111593Y75257D01*
X111361Y74910D01*
X111361Y74909D01*
X111353Y74897D01*
X111293Y74857D01*
X111253Y74797D01*
X111193Y74757D01*
X111153Y74697D01*
X111093Y74657D01*
X111053Y74597D01*
X110993Y74557D01*
X110761Y74210D01*
X110761Y74209D01*
X110753Y74197D01*
X110693Y74157D01*
X110653Y74097D01*
X110593Y74057D01*
X110553Y73997D01*
X110493Y73957D01*
X110261Y73610D01*
X110261Y73609D01*
X110253Y73597D01*
X110193Y73557D01*
X110153Y73497D01*
X110093Y73457D01*
X110053Y73397D01*
X109993Y73357D01*
X109953Y73297D01*
X109893Y73257D01*
X109853Y73197D01*
X109793Y73157D01*
X109561Y72810D01*
X109561Y72809D01*
X109553Y72797D01*
X109493Y72757D01*
X109453Y72697D01*
X109393Y72657D01*
X109353Y72597D01*
X109293Y72557D01*
X109061Y72210D01*
X109061Y72209D01*
X109053Y72197D01*
X108993Y72157D01*
X108953Y72097D01*
X108893Y72057D01*
X108853Y71997D01*
X108793Y71957D01*
X108561Y71610D01*
X108561Y71609D01*
X108361Y71310D01*
X108361Y71309D01*
X108161Y71010D01*
X108161Y71009D01*
X107961Y70710D01*
X107947Y70638D01*
X107861Y70510D01*
X107818Y70296D01*
X107761Y70210D01*
X107718Y69996D01*
X107661Y69910D01*
X107618Y69696D01*
X107561Y69610D01*
X107479Y69200D01*
X107489Y69150D01*
X107479Y69100D01*
X107489Y69050D01*
X107479Y69000D01*
X107489Y68950D01*
X107479Y68900D01*
X107489Y68850D01*
X107479Y68800D01*
X107489Y68750D01*
X107479Y68700D01*
X107489Y68650D01*
X107479Y68600D01*
X107489Y68550D01*
X107479Y68500D01*
X107489Y68450D01*
X107479Y68400D01*
X107489Y68350D01*
X107479Y68300D01*
X107489Y68250D01*
X107479Y68200D01*
X107489Y68150D01*
X107479Y68100D01*
X107489Y68050D01*
X107479Y68000D01*
X107489Y67950D01*
X107479Y67900D01*
X107489Y67850D01*
X107479Y67800D01*
X107561Y67390D01*
X107647Y67262D01*
X107661Y67190D01*
X107747Y67062D01*
X107761Y66990D01*
X107847Y66862D01*
X107861Y66790D01*
X108093Y66443D01*
X108153Y66403D01*
X108193Y66343D01*
X108253Y66303D01*
X108293Y66243D01*
X108353Y66203D01*
X108393Y66143D01*
X108740Y65911D01*
X108741Y65911D01*
X108753Y65903D01*
X108793Y65843D01*
X108853Y65803D01*
X108893Y65743D01*
X108953Y65703D01*
X108993Y65643D01*
X109053Y65603D01*
X109093Y65543D01*
X109440Y65311D01*
X109441Y65311D01*
X109453Y65303D01*
X109493Y65243D01*
X109553Y65203D01*
X109593Y65143D01*
X109653Y65103D01*
X109693Y65043D01*
X109753Y65003D01*
X109793Y64943D01*
X110140Y64711D01*
X110141Y64711D01*
X110153Y64703D01*
X110193Y64643D01*
X110253Y64603D01*
X110293Y64543D01*
X110306Y64534D01*
X110279Y64400D01*
X110289Y64350D01*
X110279Y64300D01*
X110289Y64252D01*
X110261Y64210D01*
X110179Y63800D01*
X110189Y63752D01*
X110161Y63710D01*
X110079Y63300D01*
X110089Y63250D01*
X110079Y63200D01*
X110089Y63152D01*
X110061Y63110D01*
X109990Y62753D01*
X109961Y62710D01*
X109879Y62300D01*
X109889Y62250D01*
X109879Y62200D01*
X109889Y62152D01*
X109861Y62110D01*
X109779Y61700D01*
X109789Y61652D01*
X109761Y61610D01*
X109679Y61200D01*
X109689Y61150D01*
X109679Y61100D01*
X109689Y61052D01*
X109661Y61010D01*
X109579Y60600D01*
X109589Y60552D01*
X109561Y60510D01*
X109479Y60100D01*
X109489Y60050D01*
X109479Y60000D01*
X109489Y59952D01*
X109461Y59910D01*
X109379Y59500D01*
X109389Y59450D01*
X109379Y59400D01*
X109389Y59352D01*
X109361Y59310D01*
X109279Y58900D01*
X109289Y58850D01*
X109279Y58800D01*
X109289Y58752D01*
X109261Y58710D01*
X109179Y58300D01*
X109189Y58252D01*
X109161Y58210D01*
X109079Y57800D01*
X109089Y57750D01*
X109079Y57700D01*
X109089Y57652D01*
X109061Y57610D01*
X108979Y57200D01*
X108989Y57150D01*
X108979Y57100D01*
X108989Y57052D01*
X108961Y57010D01*
X108879Y56600D01*
X108889Y56552D01*
X108861Y56510D01*
X108779Y56100D01*
X108789Y56050D01*
X108779Y56000D01*
X108789Y55950D01*
X108779Y55900D01*
X108789Y55850D01*
X108779Y55800D01*
X108789Y55750D01*
X108779Y55700D01*
X108789Y55650D01*
X108779Y55600D01*
X108789Y55550D01*
X108779Y55500D01*
X108789Y55450D01*
X108779Y55400D01*
X108789Y55350D01*
X108779Y55300D01*
X108789Y55250D01*
X108779Y55200D01*
X108789Y55150D01*
X108779Y55100D01*
X108789Y55050D01*
X108779Y55000D01*
X108789Y54950D01*
X108779Y54900D01*
X108789Y54850D01*
X108779Y54800D01*
X108789Y54750D01*
X108779Y54700D01*
X108789Y54650D01*
X108779Y54600D01*
X108861Y54190D01*
X108918Y54104D01*
X108961Y53890D01*
X109047Y53762D01*
X109061Y53690D01*
X109147Y53562D01*
X109161Y53490D01*
X109393Y53143D01*
X109453Y53103D01*
X109493Y53043D01*
X109553Y53003D01*
X109593Y52943D01*
X109653Y52903D01*
X109693Y52843D01*
X109753Y52803D01*
X109793Y52743D01*
X109853Y52703D01*
X109893Y52643D01*
X109953Y52603D01*
X109993Y52543D01*
X110340Y52311D01*
X110412Y52297D01*
X110540Y52211D01*
X110612Y52197D01*
X110740Y52111D01*
X111150Y52029D01*
X111213D01*
X111240Y52011D01*
X111650Y51929D01*
X112350D01*
X112760Y52011D01*
X112787Y52029D01*
X113150D01*
X113560Y52111D01*
X113587Y52129D01*
X113950D01*
X114360Y52211D01*
X114387Y52229D01*
X114950D01*
X115360Y52311D01*
X115387Y52329D01*
X115750D01*
X116160Y52411D01*
X116187Y52429D01*
X116650D01*
X117060Y52511D01*
X117087Y52529D01*
X117450D01*
X117860Y52611D01*
X117887Y52629D01*
X118450D01*
X118530Y52645D01*
X118986Y52240D01*
X118993Y52157D01*
X118953Y52097D01*
X118893Y52057D01*
X118853Y51997D01*
X118793Y51957D01*
X118753Y51897D01*
X118693Y51857D01*
X118461Y51510D01*
X118461Y51509D01*
X118453Y51497D01*
X118393Y51457D01*
X118353Y51397D01*
X118293Y51357D01*
X118253Y51297D01*
X118193Y51257D01*
X118153Y51197D01*
X118093Y51157D01*
X118053Y51097D01*
X117993Y51057D01*
X117761Y50710D01*
X117761Y50709D01*
X117753Y50697D01*
X117693Y50657D01*
X117653Y50597D01*
X117593Y50557D01*
X117553Y50497D01*
X117493Y50457D01*
X117453Y50397D01*
X117393Y50357D01*
X117353Y50297D01*
X117293Y50257D01*
X117253Y50197D01*
X117193Y50157D01*
X117153Y50097D01*
X117093Y50057D01*
X117053Y49997D01*
X116993Y49957D01*
X116761Y49610D01*
X116761Y49609D01*
X116753Y49597D01*
X116693Y49557D01*
X116653Y49497D01*
X116593Y49457D01*
X116553Y49397D01*
X116493Y49357D01*
X116453Y49297D01*
X116393Y49257D01*
X116353Y49197D01*
X116293Y49157D01*
X116253Y49097D01*
X116213Y49071D01*
X115450D01*
X115040Y48989D01*
X114954Y48932D01*
X114740Y48889D01*
X114612Y48803D01*
X114540Y48789D01*
X114412Y48703D01*
X114340Y48689D01*
X114212Y48603D01*
X114140Y48589D01*
X113841Y48389D01*
X113840Y48389D01*
X113493Y48157D01*
X113453Y48097D01*
X113393Y48057D01*
X113353Y47997D01*
X113293Y47957D01*
X113253Y47897D01*
X113193Y47857D01*
X113153Y47797D01*
X113093Y47757D01*
X113053Y47697D01*
X112993Y47657D01*
X112953Y47597D01*
X112893Y47557D01*
X112853Y47497D01*
X112793Y47457D01*
X112561Y47110D01*
X112561Y47109D01*
X112361Y46810D01*
X112361Y46809D01*
X112161Y46510D01*
X112118Y46296D01*
X112061Y46210D01*
X112047Y46138D01*
X111961Y46010D01*
X111918Y45796D01*
X111861Y45710D01*
X111779Y45300D01*
X111789Y45252D01*
X111761Y45210D01*
X111679Y44800D01*
X111689Y44750D01*
X111679Y44700D01*
X111689Y44650D01*
X111679Y44600D01*
X111689Y44550D01*
X111679Y44500D01*
X111689Y44450D01*
X111679Y44400D01*
X111689Y44350D01*
X111679Y44300D01*
X111689Y44250D01*
X111679Y44200D01*
X111689Y44150D01*
X111679Y44100D01*
X111689Y44050D01*
X111679Y44000D01*
X111689Y43950D01*
X111679Y43900D01*
X111689Y43850D01*
X111679Y43800D01*
X111761Y43390D01*
X111790Y43347D01*
X111861Y42990D01*
X111918Y42904D01*
X111961Y42690D01*
X112047Y42562D01*
X112061Y42490D01*
X112147Y42362D01*
X112161Y42290D01*
X112393Y41943D01*
X112453Y41903D01*
X112493Y41843D01*
X112553Y41803D01*
X112593Y41743D01*
X112653Y41703D01*
X112693Y41643D01*
X112753Y41603D01*
X112793Y41543D01*
X112853Y41503D01*
X112893Y41443D01*
X112953Y41403D01*
X112993Y41343D01*
X113340Y41111D01*
X113341Y41111D01*
X113640Y40911D01*
X113854Y40868D01*
X113940Y40811D01*
X114350Y40729D01*
X114513D01*
X114540Y40711D01*
X114950Y40629D01*
X115150D01*
X115560Y40711D01*
X115587Y40729D01*
X115750D01*
X116160Y40811D01*
X116246Y40868D01*
X116460Y40911D01*
X116546Y40968D01*
X116760Y41011D01*
X116888Y41097D01*
X116960Y41111D01*
X117307Y41343D01*
X117347Y41403D01*
X117359Y41411D01*
X117360Y41411D01*
X117707Y41643D01*
X117747Y41703D01*
X117807Y41743D01*
X117847Y41803D01*
X117907Y41843D01*
X117947Y41903D01*
X118007Y41943D01*
X118047Y42003D01*
X118107Y42043D01*
X118147Y42103D01*
X118207Y42143D01*
X118247Y42203D01*
X118307Y42243D01*
X118347Y42303D01*
X118407Y42343D01*
X118639Y42690D01*
X118639Y42691D01*
X118839Y42990D01*
X118853Y43062D01*
X118939Y43190D01*
X118953Y43262D01*
X119039Y43390D01*
X119053Y43462D01*
X119139Y43590D01*
X119182Y43804D01*
X119239Y43890D01*
X119282Y44104D01*
X119339Y44190D01*
X119421Y44600D01*
X119411Y44650D01*
X119421Y44700D01*
X119411Y44748D01*
X119439Y44790D01*
X119521Y45200D01*
X119511Y45250D01*
X119521Y45300D01*
X119511Y45350D01*
X119521Y45400D01*
X119511Y45450D01*
X119521Y45500D01*
X119511Y45550D01*
X119521Y45600D01*
X119511Y45650D01*
X119521Y45700D01*
X119473Y45941D01*
X119639Y46190D01*
X119639Y46191D01*
X119647Y46203D01*
X119707Y46243D01*
X119747Y46303D01*
X119807Y46343D01*
X119847Y46403D01*
X119907Y46443D01*
X119947Y46503D01*
X120007Y46543D01*
X120047Y46603D01*
X120107Y46643D01*
X120147Y46703D01*
X120207Y46743D01*
X120247Y46803D01*
X120307Y46843D01*
X120539Y47190D01*
X120539Y47191D01*
X120547Y47203D01*
X120607Y47243D01*
X120647Y47303D01*
X120707Y47343D01*
X120747Y47403D01*
X120807Y47443D01*
X120847Y47503D01*
X120907Y47543D01*
X120947Y47603D01*
X121007Y47643D01*
X121047Y47703D01*
X121107Y47743D01*
X121147Y47803D01*
X121207Y47843D01*
X121247Y47903D01*
X121307Y47943D01*
X121347Y48003D01*
X121407Y48043D01*
X121639Y48390D01*
X121639Y48391D01*
X121647Y48403D01*
X121707Y48443D01*
X121747Y48503D01*
X121807Y48543D01*
X121847Y48603D01*
X121907Y48643D01*
X121947Y48703D01*
X122007Y48743D01*
X122047Y48803D01*
X122107Y48843D01*
X122147Y48903D01*
X122207Y48943D01*
X122247Y49003D01*
X122307Y49043D01*
X122347Y49103D01*
X122407Y49143D01*
X122639Y49490D01*
X122639Y49491D01*
X122647Y49503D01*
X122707Y49543D01*
X122747Y49603D01*
X122807Y49643D01*
X122847Y49703D01*
X122907Y49743D01*
X122947Y49803D01*
X123007Y49843D01*
X123047Y49903D01*
X123107Y49943D01*
X123187Y50063D01*
X123307Y50143D01*
X123539Y50490D01*
X123539Y50491D01*
X123547Y50503D01*
X123607Y50543D01*
X123647Y50603D01*
X123707Y50643D01*
X123747Y50703D01*
X123807Y50743D01*
X123847Y50803D01*
X123907Y50843D01*
X123947Y50903D01*
X124007Y50943D01*
X124047Y51003D01*
X124107Y51043D01*
X124147Y51103D01*
X124207Y51143D01*
X124247Y51203D01*
X124307Y51243D01*
X124347Y51303D01*
X124407Y51343D01*
X124639Y51690D01*
X124639Y51691D01*
X124647Y51703D01*
X124707Y51743D01*
X124747Y51803D01*
X124807Y51843D01*
X124847Y51903D01*
X124907Y51943D01*
X124947Y52003D01*
X125007Y52043D01*
X125047Y52103D01*
X125107Y52143D01*
X125147Y52203D01*
X125207Y52243D01*
X125247Y52303D01*
X125307Y52343D01*
X125539Y52690D01*
X125539Y52691D01*
X125547Y52703D01*
X125607Y52743D01*
X125647Y52803D01*
X125707Y52843D01*
X125747Y52903D01*
X125807Y52943D01*
X125847Y53003D01*
X125907Y53043D01*
X125947Y53103D01*
X126007Y53143D01*
X126047Y53203D01*
X126107Y53243D01*
X126147Y53303D01*
X126207Y53343D01*
X126332Y53529D01*
X126450D01*
X126860Y53611D01*
X126887Y53629D01*
X127450D01*
X127860Y53711D01*
X127887Y53729D01*
X128350D01*
X128760Y53811D01*
X128787Y53829D01*
X129250D01*
X129660Y53911D01*
X129687Y53929D01*
X130250D01*
X130535Y53986D01*
X130747Y53633D01*
X130768Y53565D01*
X130775Y53529D01*
X130753Y53497D01*
X130693Y53457D01*
X130653Y53397D01*
X130593Y53357D01*
X130553Y53297D01*
X130493Y53257D01*
X130453Y53197D01*
X130393Y53157D01*
X130353Y53097D01*
X130293Y53057D01*
X130253Y52997D01*
X130193Y52957D01*
X130153Y52897D01*
X130093Y52857D01*
X130053Y52797D01*
X129993Y52757D01*
X129953Y52697D01*
X129893Y52657D01*
X129853Y52597D01*
X129793Y52557D01*
X129753Y52497D01*
X129693Y52457D01*
X129653Y52397D01*
X129593Y52357D01*
X129553Y52297D01*
X129493Y52257D01*
X129453Y52197D01*
X129393Y52157D01*
X129353Y52097D01*
X129293Y52057D01*
X129253Y51997D01*
X129193Y51957D01*
X129153Y51897D01*
X129093Y51857D01*
X129053Y51797D01*
X128993Y51757D01*
X128953Y51697D01*
X128893Y51657D01*
X128853Y51597D01*
X128793Y51557D01*
X128753Y51497D01*
X128693Y51457D01*
X128653Y51397D01*
X128593Y51357D01*
X128553Y51297D01*
X128493Y51257D01*
X128453Y51197D01*
X128393Y51157D01*
X128353Y51097D01*
X128293Y51057D01*
X128253Y50997D01*
X128193Y50957D01*
X128153Y50897D01*
X128093Y50857D01*
X128053Y50797D01*
X127993Y50757D01*
X127953Y50697D01*
X127893Y50657D01*
X127853Y50597D01*
X127793Y50557D01*
X127753Y50497D01*
X127693Y50457D01*
X127653Y50397D01*
X127593Y50357D01*
X127553Y50297D01*
X127493Y50257D01*
X127453Y50197D01*
X127393Y50157D01*
X127353Y50097D01*
X127293Y50057D01*
X127253Y49997D01*
X127193Y49957D01*
X127153Y49897D01*
X127093Y49857D01*
X127053Y49797D01*
X126993Y49757D01*
X126953Y49697D01*
X126913Y49671D01*
X125650D01*
X125240Y49589D01*
X125154Y49532D01*
X124940Y49489D01*
X124854Y49432D01*
X124640Y49389D01*
X124512Y49303D01*
X124440Y49289D01*
X124312Y49203D01*
X124240Y49189D01*
X124112Y49103D01*
X124040Y49089D01*
X123693Y48857D01*
X123653Y48797D01*
X123641Y48789D01*
X123640Y48789D01*
X123293Y48557D01*
X123253Y48497D01*
X123193Y48457D01*
X123153Y48397D01*
X123093Y48357D01*
X123053Y48297D01*
X122993Y48257D01*
X122953Y48197D01*
X122893Y48157D01*
X122853Y48097D01*
X122793Y48057D01*
X122753Y47997D01*
X122693Y47957D01*
X122461Y47610D01*
X122461Y47609D01*
X122261Y47310D01*
X122261Y47309D01*
X122061Y47010D01*
X122047Y46938D01*
X121961Y46810D01*
X121918Y46596D01*
X121861Y46510D01*
X121818Y46296D01*
X121761Y46210D01*
X121718Y45996D01*
X121661Y45910D01*
X121579Y45500D01*
X121589Y45450D01*
X121579Y45400D01*
X121589Y45350D01*
X121579Y45300D01*
X121589Y45250D01*
X121579Y45200D01*
X121589Y45150D01*
X121579Y45100D01*
X121589Y45050D01*
X121579Y45000D01*
X121589Y44950D01*
X121579Y44900D01*
X121589Y44850D01*
X121579Y44800D01*
X121589Y44750D01*
X121579Y44700D01*
X121589Y44650D01*
X121579Y44600D01*
X121589Y44550D01*
X121579Y44500D01*
X121589Y44450D01*
X121579Y44400D01*
X121589Y44350D01*
X121579Y44300D01*
X121589Y44250D01*
X121579Y44200D01*
X121589Y44150D01*
X121579Y44100D01*
X121661Y43690D01*
X121690Y43647D01*
X121761Y43290D01*
X121847Y43162D01*
X121861Y43090D01*
X121947Y42962D01*
X121961Y42890D01*
X122047Y42762D01*
X122061Y42690D01*
X122147Y42562D01*
X122161Y42490D01*
X122393Y42143D01*
X122453Y42103D01*
X122493Y42043D01*
X122553Y42003D01*
X122593Y41943D01*
X122653Y41903D01*
X122693Y41843D01*
X122753Y41803D01*
X122793Y41743D01*
X122853Y41703D01*
X122893Y41643D01*
X122953Y41603D01*
X122993Y41543D01*
X123053Y41503D01*
X123093Y41443D01*
X123440Y41211D01*
X123512Y41197D01*
X123640Y41111D01*
X123712Y41097D01*
X123840Y41011D01*
X123912Y40997D01*
X124040Y40911D01*
X124254Y40868D01*
X124340Y40811D01*
X124697Y40740D01*
X124740Y40711D01*
X125150Y40629D01*
X126050D01*
X126460Y40711D01*
X126487Y40729D01*
X126550D01*
X126960Y40811D01*
X127046Y40868D01*
X127260Y40911D01*
X127346Y40968D01*
X127560Y41011D01*
X127859Y41211D01*
X127860Y41211D01*
X127988Y41297D01*
X128060Y41311D01*
X128359Y41511D01*
X128360Y41511D01*
X128707Y41743D01*
X128747Y41803D01*
X128807Y41843D01*
X128847Y41903D01*
X128907Y41943D01*
X128947Y42003D01*
X129007Y42043D01*
X129047Y42103D01*
X129107Y42143D01*
X129147Y42203D01*
X129207Y42243D01*
X129247Y42303D01*
X129307Y42343D01*
X129539Y42690D01*
X129539Y42691D01*
X129547Y42703D01*
X129607Y42743D01*
X129839Y43090D01*
X129853Y43162D01*
X129939Y43290D01*
X129953Y43362D01*
X130039Y43490D01*
X130053Y43562D01*
X130139Y43690D01*
X130182Y43904D01*
X130239Y43990D01*
X130282Y44204D01*
X130339Y44290D01*
X130421Y44700D01*
X130411Y44750D01*
X130421Y44800D01*
X130411Y44848D01*
X130439Y44890D01*
X130521Y45300D01*
X130511Y45350D01*
X130521Y45400D01*
X130511Y45450D01*
X130521Y45500D01*
X130511Y45550D01*
X130521Y45600D01*
X130511Y45650D01*
X130521Y45700D01*
X130511Y45750D01*
X130521Y45800D01*
X130511Y45850D01*
X130521Y45900D01*
X130459Y46211D01*
X130507Y46243D01*
X130547Y46303D01*
X130607Y46343D01*
X130647Y46403D01*
X130707Y46443D01*
X130747Y46503D01*
X130807Y46543D01*
X130847Y46603D01*
X130907Y46643D01*
X130947Y46703D01*
X131007Y46743D01*
X131047Y46803D01*
X131107Y46843D01*
X131147Y46903D01*
X131207Y46943D01*
X131247Y47003D01*
X131307Y47043D01*
X131347Y47103D01*
X131407Y47143D01*
X131447Y47203D01*
X131507Y47243D01*
X131547Y47303D01*
X131607Y47343D01*
X131647Y47403D01*
X131707Y47443D01*
X131747Y47503D01*
X131807Y47543D01*
X131847Y47603D01*
X131907Y47643D01*
X131947Y47703D01*
X132007Y47743D01*
X132047Y47803D01*
X132107Y47843D01*
X132147Y47903D01*
X132207Y47943D01*
X132247Y48003D01*
X132307Y48043D01*
X132347Y48103D01*
X132407Y48143D01*
X132447Y48203D01*
X132507Y48243D01*
X132547Y48303D01*
X132607Y48343D01*
X132647Y48403D01*
X132707Y48443D01*
X132747Y48503D01*
X132807Y48543D01*
X132847Y48603D01*
X132907Y48643D01*
X132947Y48703D01*
X133007Y48743D01*
X133047Y48803D01*
X133107Y48843D01*
X133147Y48903D01*
X133207Y48943D01*
X133247Y49003D01*
X133307Y49043D01*
X133347Y49103D01*
X133407Y49143D01*
X133447Y49203D01*
X133507Y49243D01*
X133547Y49303D01*
X133607Y49343D01*
X133647Y49403D01*
X133707Y49443D01*
X133747Y49503D01*
X133807Y49543D01*
X133847Y49603D01*
X133907Y49643D01*
X133947Y49703D01*
X134007Y49743D01*
X134047Y49803D01*
X134107Y49843D01*
X134147Y49903D01*
X134207Y49943D01*
X134247Y50003D01*
X134307Y50043D01*
X134347Y50103D01*
X134407Y50143D01*
X134447Y50203D01*
X134507Y50243D01*
X134547Y50303D01*
X134607Y50343D01*
X134647Y50403D01*
X134707Y50443D01*
X134747Y50503D01*
X134807Y50543D01*
X134847Y50603D01*
X134907Y50643D01*
X134947Y50703D01*
X135007Y50743D01*
X135047Y50803D01*
X135107Y50843D01*
X135147Y50903D01*
X135207Y50943D01*
X135247Y51003D01*
X135307Y51043D01*
X135347Y51103D01*
X135407Y51143D01*
X135447Y51203D01*
X135507Y51243D01*
X135547Y51303D01*
X135607Y51343D01*
X135647Y51403D01*
X135707Y51443D01*
X135747Y51503D01*
X135807Y51543D01*
X135847Y51603D01*
X135907Y51643D01*
X135947Y51703D01*
X136007Y51743D01*
X136047Y51803D01*
X136107Y51843D01*
X136147Y51903D01*
X136207Y51943D01*
X136247Y52003D01*
X136307Y52043D01*
X136347Y52103D01*
X136407Y52143D01*
X136447Y52203D01*
X136507Y52243D01*
X136547Y52303D01*
X136607Y52343D01*
X136647Y52403D01*
X136707Y52443D01*
X136747Y52503D01*
X136807Y52543D01*
X136847Y52603D01*
X136907Y52643D01*
X136947Y52703D01*
X137007Y52743D01*
X137047Y52803D01*
X137107Y52843D01*
X137147Y52903D01*
X137207Y52943D01*
X137247Y53003D01*
X137307Y53043D01*
X137347Y53103D01*
X137407Y53143D01*
X137447Y53203D01*
X137507Y53243D01*
X137547Y53303D01*
X137607Y53343D01*
X137647Y53403D01*
X137707Y53443D01*
X137747Y53503D01*
X137807Y53543D01*
X137847Y53603D01*
X137907Y53643D01*
X137947Y53703D01*
X138007Y53743D01*
X138047Y53803D01*
X138107Y53843D01*
X138147Y53903D01*
X138207Y53943D01*
X138247Y54003D01*
X138307Y54043D01*
X138347Y54103D01*
X138407Y54143D01*
X138447Y54203D01*
X138507Y54243D01*
X138547Y54303D01*
X138607Y54343D01*
X138647Y54403D01*
X138707Y54443D01*
X138747Y54503D01*
X138807Y54543D01*
X138847Y54603D01*
X138907Y54643D01*
X138947Y54703D01*
X139007Y54743D01*
X139047Y54803D01*
X139107Y54843D01*
X139147Y54903D01*
X139207Y54943D01*
X139247Y55003D01*
X139307Y55043D01*
X139347Y55103D01*
X139407Y55143D01*
X139447Y55203D01*
X139507Y55243D01*
X139547Y55303D01*
X139607Y55343D01*
X139647Y55403D01*
X139707Y55443D01*
X139747Y55503D01*
X139807Y55543D01*
X139847Y55603D01*
X139907Y55643D01*
X139947Y55703D01*
X140007Y55743D01*
X140047Y55803D01*
X140107Y55843D01*
X140147Y55903D01*
X140207Y55943D01*
X140247Y56003D01*
X140307Y56043D01*
X140347Y56103D01*
X140407Y56143D01*
X140447Y56203D01*
X140507Y56243D01*
X140547Y56303D01*
X140607Y56343D01*
X140647Y56403D01*
X140707Y56443D01*
X140747Y56503D01*
X140807Y56543D01*
X140847Y56603D01*
X140907Y56643D01*
X140947Y56703D01*
X141007Y56743D01*
X141047Y56803D01*
X141107Y56843D01*
X141147Y56903D01*
X141207Y56943D01*
X141247Y57003D01*
X141307Y57043D01*
X141347Y57103D01*
X141407Y57143D01*
X141447Y57203D01*
X141507Y57243D01*
X141547Y57303D01*
X141607Y57343D01*
X141647Y57403D01*
X141707Y57443D01*
X141747Y57503D01*
X141807Y57543D01*
X141847Y57603D01*
X141907Y57643D01*
X141947Y57703D01*
X142007Y57743D01*
X142047Y57803D01*
X142107Y57843D01*
X142147Y57903D01*
X142207Y57943D01*
X142247Y58003D01*
X142307Y58043D01*
X142347Y58103D01*
X142407Y58143D01*
X142639Y58490D01*
X142639Y58491D01*
X142647Y58503D01*
X142707Y58543D01*
X142747Y58603D01*
X142807Y58643D01*
X142847Y58703D01*
X142907Y58743D01*
X143139Y59090D01*
X143139Y59091D01*
X143339Y59390D01*
X143339Y59391D01*
X143539Y59690D01*
X143553Y59762D01*
X143639Y59890D01*
X143653Y59962D01*
X143739Y60090D01*
X143753Y60162D01*
X143839Y60290D01*
X143882Y60504D01*
X143939Y60590D01*
X143982Y60804D01*
X144039Y60890D01*
X144110Y61247D01*
X144139Y61290D01*
X144221Y61700D01*
X144211Y61750D01*
X144221Y61800D01*
X144211Y61850D01*
X144221Y61900D01*
X144211Y61950D01*
X144221Y62000D01*
X144211Y62050D01*
X144221Y62100D01*
X144211Y62150D01*
X144221Y62200D01*
X144211Y62250D01*
X144221Y62300D01*
X144211Y62350D01*
X144221Y62400D01*
X144211Y62450D01*
X144221Y62500D01*
X144211Y62550D01*
X144221Y62600D01*
X144211Y62650D01*
X144221Y62700D01*
X144211Y62750D01*
X144221Y62800D01*
X144211Y62850D01*
X144221Y62900D01*
X144211Y62950D01*
X144221Y63000D01*
X144139Y63410D01*
X144110Y63453D01*
X144039Y63810D01*
X143982Y63896D01*
X143939Y64110D01*
X143853Y64238D01*
X143839Y64310D01*
X143753Y64438D01*
X143739Y64510D01*
X143539Y64809D01*
X143539Y64810D01*
X143307Y65157D01*
X143247Y65197D01*
X143239Y65209D01*
X143239Y65210D01*
X143007Y65557D01*
X142660Y65789D01*
X142659Y65789D01*
X142647Y65797D01*
X142607Y65857D01*
X142547Y65897D01*
X142507Y65957D01*
X142447Y65997D01*
X142407Y66057D01*
X142060Y66289D01*
X142059Y66289D01*
X141760Y66489D01*
X141688Y66503D01*
X141560Y66589D01*
X141559Y66589D01*
X141260Y66789D01*
X141259Y66789D01*
X140960Y66989D01*
X140959Y66989D01*
X140660Y67189D01*
X140588Y67203D01*
X140460Y67289D01*
X140459Y67289D01*
X140160Y67489D01*
X140088Y67503D01*
X139960Y67589D01*
X139959Y67589D01*
X139660Y67789D01*
X139659Y67789D01*
X139360Y67989D01*
X139288Y68003D01*
X139160Y68089D01*
X139159Y68089D01*
X138860Y68289D01*
X138788Y68303D01*
X138660Y68389D01*
X138659Y68389D01*
X138360Y68589D01*
X138359Y68589D01*
X138060Y68789D01*
X137988Y68803D01*
X137860Y68889D01*
X137859Y68889D01*
X137560Y69089D01*
X137559Y69089D01*
X137417Y69184D01*
X137421Y69200D01*
X137411Y69250D01*
X137421Y69300D01*
X137411Y69350D01*
X137421Y69400D01*
X137411Y69450D01*
X137421Y69500D01*
X137411Y69550D01*
X137421Y69600D01*
X137411Y69650D01*
X137421Y69700D01*
X137411Y69750D01*
X137421Y69800D01*
X137411Y69850D01*
X137421Y69900D01*
X137411Y69950D01*
X137421Y70000D01*
X137411Y70050D01*
X137421Y70100D01*
X137411Y70150D01*
X137421Y70200D01*
X137411Y70250D01*
X137421Y70300D01*
X137411Y70350D01*
X137421Y70400D01*
X137411Y70448D01*
X137439Y70490D01*
X137521Y70900D01*
X137511Y70950D01*
X137521Y71000D01*
X137511Y71050D01*
X137521Y71100D01*
X137511Y71150D01*
X137521Y71200D01*
X137511Y71250D01*
X137521Y71300D01*
X137511Y71350D01*
X137521Y71400D01*
X137511Y71450D01*
X137521Y71500D01*
X137511Y71550D01*
X137521Y71600D01*
X137511Y71650D01*
X137521Y71700D01*
X137511Y71750D01*
X137521Y71800D01*
X137511Y71850D01*
X137521Y71900D01*
X137511Y71950D01*
X137521Y72000D01*
X137511Y72050D01*
X137521Y72100D01*
X137511Y72150D01*
X137521Y72200D01*
X137511Y72250D01*
X137521Y72300D01*
X137511Y72350D01*
X137521Y72400D01*
X137511Y72450D01*
X137521Y72500D01*
X137511Y72550D01*
X137521Y72600D01*
X137511Y72650D01*
X137521Y72700D01*
X137511Y72750D01*
X137521Y72800D01*
X137511Y72850D01*
X137521Y72900D01*
X137511Y72950D01*
X137521Y73000D01*
X137511Y73050D01*
X137521Y73100D01*
X137511Y73150D01*
X137521Y73200D01*
X137511Y73248D01*
X137539Y73290D01*
X137621Y73700D01*
X137611Y73750D01*
X137621Y73800D01*
X137611Y73850D01*
X137621Y73900D01*
X137611Y73950D01*
X137621Y74000D01*
X137611Y74050D01*
X137621Y74100D01*
X137611Y74150D01*
X137621Y74200D01*
X137611Y74250D01*
X137621Y74300D01*
X137611Y74350D01*
X137621Y74400D01*
X137611Y74450D01*
X137621Y74500D01*
X137611Y74550D01*
X137621Y74600D01*
X137611Y74650D01*
X137621Y74700D01*
X137611Y74750D01*
X137621Y74800D01*
X137611Y74850D01*
X137621Y74900D01*
X137611Y74950D01*
X137621Y75000D01*
X137611Y75050D01*
X137621Y75100D01*
X137611Y75150D01*
X137621Y75200D01*
X137611Y75250D01*
X137621Y75300D01*
X137611Y75350D01*
X137621Y75400D01*
X137611Y75450D01*
X137621Y75500D01*
X137611Y75548D01*
X137639Y75590D01*
X137721Y76000D01*
X137711Y76050D01*
X137721Y76100D01*
X137711Y76150D01*
X137721Y76200D01*
X137711Y76250D01*
X137721Y76300D01*
X137711Y76350D01*
X137721Y76400D01*
X137711Y76450D01*
X137721Y76500D01*
X137711Y76550D01*
X137721Y76600D01*
X137711Y76650D01*
X137721Y76700D01*
X137711Y76750D01*
X137721Y76800D01*
X137711Y76850D01*
X137721Y76900D01*
X137711Y76950D01*
X137721Y77000D01*
X137711Y77050D01*
X137721Y77100D01*
X137711Y77150D01*
X137721Y77200D01*
X137711Y77250D01*
X137721Y77300D01*
X137711Y77350D01*
X137721Y77400D01*
X137711Y77450D01*
X137721Y77500D01*
X137711Y77550D01*
X137721Y77600D01*
X137711Y77650D01*
X137721Y77700D01*
X137711Y77750D01*
X137721Y77800D01*
X137711Y77850D01*
X137721Y77900D01*
X137711Y77950D01*
X137721Y78000D01*
X137711Y78050D01*
X137721Y78100D01*
X137711Y78150D01*
X137721Y78200D01*
X137711Y78250D01*
X137721Y78300D01*
X137711Y78350D01*
X137721Y78400D01*
X137711Y78450D01*
X137721Y78500D01*
X137711Y78550D01*
X137721Y78600D01*
X137711Y78650D01*
X137721Y78700D01*
X137711Y78750D01*
X137721Y78800D01*
X137711Y78850D01*
X137721Y78900D01*
X137711Y78950D01*
X137721Y79000D01*
X137711Y79050D01*
X137721Y79100D01*
X137639Y79510D01*
X137582Y79596D01*
X137539Y79810D01*
X137339Y80109D01*
X137339Y80110D01*
X137107Y80457D01*
X137047Y80497D01*
X137007Y80557D01*
X136947Y80597D01*
X136907Y80657D01*
X136847Y80697D01*
X136807Y80757D01*
X136747Y80797D01*
X136707Y80857D01*
X136360Y81089D01*
X136288Y81103D01*
X136160Y81189D01*
X136088Y81203D01*
X135960Y81289D01*
X135888Y81303D01*
X135760Y81389D01*
X135403Y81460D01*
X135360Y81489D01*
X134950Y81571D01*
X133550D01*
X133140Y81489D01*
X133097Y81460D01*
X132740Y81389D01*
X132697Y81360D01*
X132340Y81289D01*
X132254Y81232D01*
X132040Y81189D01*
X131954Y81132D01*
X131740Y81089D01*
X131654Y81032D01*
X131440Y80989D01*
X131397Y80960D01*
X131040Y80889D01*
X130954Y80832D01*
X130740Y80789D01*
X130654Y80732D01*
X130440Y80689D01*
X130354Y80632D01*
X130140Y80589D01*
X130054Y80532D01*
X129840Y80489D01*
X129797Y80460D01*
X129440Y80389D01*
X129354Y80332D01*
X129140Y80289D01*
X129054Y80232D01*
X128840Y80189D01*
X128797Y80160D01*
X128440Y80089D01*
X128354Y80032D01*
X128140Y79989D01*
X128054Y79932D01*
X127840Y79889D01*
X127754Y79832D01*
X127540Y79789D01*
X127497Y79760D01*
X127140Y79689D01*
X127109Y79668D01*
X126799Y79662D01*
X126578Y79926D01*
X126666Y80315D01*
X126707Y80343D01*
X126747Y80403D01*
X126807Y80443D01*
X126847Y80503D01*
X126907Y80543D01*
X126947Y80603D01*
X127007Y80643D01*
X127047Y80703D01*
X127107Y80743D01*
X127147Y80803D01*
X127207Y80843D01*
X127247Y80903D01*
X127307Y80943D01*
X127347Y81003D01*
X127407Y81043D01*
X127639Y81390D01*
X127639Y81391D01*
X127647Y81403D01*
X127707Y81443D01*
X127747Y81503D01*
X127807Y81543D01*
X127847Y81603D01*
X127907Y81643D01*
X127947Y81703D01*
X128007Y81743D01*
X128047Y81803D01*
X128107Y81843D01*
X128147Y81903D01*
X128207Y81943D01*
X128421Y82263D01*
X128660Y82311D01*
X128746Y82368D01*
X128960Y82411D01*
X129046Y82468D01*
X129260Y82511D01*
X129388Y82597D01*
X129460Y82611D01*
X129588Y82697D01*
X129660Y82711D01*
X129788Y82797D01*
X129860Y82811D01*
X129988Y82897D01*
X130060Y82911D01*
X130188Y82997D01*
X130260Y83011D01*
X130607Y83243D01*
X130647Y83303D01*
X130659Y83311D01*
X130660Y83311D01*
X131007Y83543D01*
X131047Y83603D01*
X131107Y83643D01*
X131147Y83703D01*
X131207Y83743D01*
X131247Y83803D01*
X131307Y83843D01*
X131347Y83903D01*
X131407Y83943D01*
X131447Y84003D01*
X131507Y84043D01*
X131547Y84103D01*
X131607Y84143D01*
X131647Y84203D01*
X131707Y84243D01*
X131747Y84303D01*
X131807Y84343D01*
X132039Y84690D01*
X132039Y84691D01*
X132239Y84990D01*
X132239Y84991D01*
X132439Y85290D01*
X132482Y85504D01*
X132539Y85590D01*
X132553Y85662D01*
X132639Y85790D01*
X132721Y86200D01*
X132711Y86248D01*
X132739Y86290D01*
X132821Y86700D01*
X132811Y86750D01*
X132821Y86800D01*
X132739Y87210D01*
X132711Y87252D01*
X132721Y87300D01*
X132639Y87710D01*
X132407Y88057D01*
X132347Y88097D01*
X132307Y88157D01*
X132247Y88197D01*
X132207Y88257D01*
X132147Y88297D01*
X132107Y88357D01*
X132047Y88397D01*
X132007Y88457D01*
X131947Y88497D01*
X131907Y88557D01*
X131560Y88789D01*
X131346Y88832D01*
X131260Y88889D01*
X131188Y88903D01*
X131060Y88989D01*
X130650Y89071D01*
D02*
G37*
G36*
X146976Y33511D02*
X145944Y33375D01*
X144983Y32976D01*
X144157Y32343D01*
X143524Y31517D01*
X143125Y30555D01*
X142990Y29524D01*
X143125Y28492D01*
X143524Y27530D01*
X144157Y26704D01*
X144983Y26071D01*
X145944Y25673D01*
X146976Y25537D01*
X148008Y25673D01*
X148970Y26071D01*
X149795Y26704D01*
X150429Y27530D01*
X150827Y28492D01*
X150963Y29524D01*
X150827Y30555D01*
X150429Y31517D01*
X149795Y32343D01*
X148970Y32976D01*
X148008Y33375D01*
X146976Y33511D01*
D02*
G37*
G36*
X35476Y23510D02*
X34444Y23375D01*
X33483Y22976D01*
X32657Y22343D01*
X32024Y21517D01*
X31625Y20556D01*
X31490Y19524D01*
X31625Y18492D01*
X32024Y17530D01*
X32657Y16704D01*
X33483Y16071D01*
X34444Y15673D01*
X35476Y15537D01*
X36508Y15673D01*
X37470Y16071D01*
X38296Y16704D01*
X38929Y17530D01*
X39327Y18492D01*
X39463Y19524D01*
X39327Y20556D01*
X38929Y21517D01*
X38296Y22343D01*
X37470Y22976D01*
X36508Y23375D01*
X35476Y23510D01*
D02*
G37*
G36*
X146976D02*
X145944Y23375D01*
X144983Y22976D01*
X144157Y22343D01*
X143524Y21517D01*
X143125Y20556D01*
X142990Y19524D01*
X143125Y18492D01*
X143524Y17530D01*
X144157Y16704D01*
X144983Y16071D01*
X145944Y15673D01*
X146976Y15537D01*
X148008Y15673D01*
X148970Y16071D01*
X149795Y16704D01*
X150429Y17530D01*
X150827Y18492D01*
X150963Y19524D01*
X150827Y20556D01*
X150429Y21517D01*
X149795Y22343D01*
X148970Y22976D01*
X148008Y23375D01*
X146976Y23510D01*
D02*
G37*
G36*
X35476Y33511D02*
X34444Y33375D01*
X33483Y32976D01*
X32657Y32343D01*
X32024Y31517D01*
X31625Y30555D01*
X31490Y29524D01*
X31625Y28492D01*
X32024Y27530D01*
X32657Y26704D01*
X33483Y26071D01*
X34444Y25673D01*
X35476Y25537D01*
X36508Y25673D01*
X37470Y26071D01*
X38296Y26704D01*
X38929Y27530D01*
X39327Y28492D01*
X39463Y29524D01*
X39327Y30555D01*
X38929Y31517D01*
X38296Y32343D01*
X37470Y32976D01*
X36508Y33375D01*
X35476Y33511D01*
D02*
G37*
%LPD*%
G36*
X132368Y76966D02*
X132448Y76934D01*
X132513Y76898D01*
X132697Y76746D01*
X132736Y76692D01*
X132781Y76605D01*
X132779Y76600D01*
X132789Y76550D01*
X132779Y76500D01*
X132789Y76452D01*
X132761Y76410D01*
X132679Y76000D01*
X132689Y75950D01*
X132679Y75900D01*
X132689Y75850D01*
X132679Y75800D01*
X132689Y75750D01*
X132679Y75700D01*
X132689Y75650D01*
X132679Y75600D01*
X132689Y75550D01*
X132679Y75500D01*
X132689Y75450D01*
X132679Y75400D01*
X132689Y75350D01*
X132679Y75300D01*
X132689Y75250D01*
X132679Y75200D01*
X132689Y75150D01*
X132679Y75100D01*
X132689Y75050D01*
X132679Y75000D01*
X132689Y74950D01*
X132679Y74900D01*
X132689Y74850D01*
X132679Y74800D01*
X132689Y74750D01*
X132679Y74700D01*
X132689Y74652D01*
X132661Y74610D01*
X132579Y74200D01*
X132589Y74150D01*
X132579Y74100D01*
X132589Y74050D01*
X132579Y74000D01*
X132589Y73950D01*
X132579Y73900D01*
X132589Y73850D01*
X132579Y73800D01*
X132589Y73750D01*
X132579Y73700D01*
X132589Y73650D01*
X132579Y73600D01*
X132589Y73550D01*
X132579Y73500D01*
X132589Y73450D01*
X132579Y73400D01*
X132589Y73350D01*
X132579Y73300D01*
X132589Y73250D01*
X132579Y73200D01*
X132589Y73150D01*
X132579Y73100D01*
X132589Y73050D01*
X132579Y73000D01*
X132589Y72950D01*
X132579Y72900D01*
X132589Y72852D01*
X132561Y72810D01*
X132479Y72400D01*
X132489Y72350D01*
X132479Y72300D01*
X132489Y72250D01*
X132479Y72200D01*
X132489Y72150D01*
X132479Y72100D01*
X132489Y72050D01*
X132479Y72000D01*
X132489Y71950D01*
X132479Y71900D01*
X132489Y71850D01*
X132479Y71800D01*
X132489Y71750D01*
X132479Y71700D01*
X132489Y71650D01*
X132479Y71600D01*
X132489Y71550D01*
X132479Y71500D01*
X132489Y71450D01*
X132479Y71400D01*
X132489Y71350D01*
X132479Y71300D01*
X132489Y71252D01*
X132461Y71210D01*
X132379Y70800D01*
X132389Y70750D01*
X132379Y70700D01*
X132389Y70650D01*
X132379Y70600D01*
X132389Y70550D01*
X132379Y70500D01*
X132389Y70450D01*
X132379Y70400D01*
X132389Y70350D01*
X132379Y70300D01*
X132389Y70250D01*
X132379Y70200D01*
X132389Y70150D01*
X132379Y70100D01*
X132389Y70050D01*
X132379Y70000D01*
X132389Y69950D01*
X132379Y69900D01*
X132389Y69850D01*
X132379Y69800D01*
X132389Y69750D01*
X132379Y69700D01*
X132389Y69650D01*
X132379Y69600D01*
X132389Y69550D01*
X132379Y69500D01*
X132389Y69452D01*
X132361Y69410D01*
X132279Y69000D01*
X132289Y68950D01*
X132279Y68900D01*
X132289Y68850D01*
X132279Y68800D01*
X132289Y68750D01*
X132279Y68700D01*
X132289Y68650D01*
X132279Y68600D01*
X132289Y68550D01*
X132279Y68500D01*
X132289Y68450D01*
X132279Y68400D01*
X132289Y68350D01*
X132279Y68300D01*
X132289Y68250D01*
X132279Y68200D01*
X132289Y68150D01*
X132279Y68100D01*
X132289Y68050D01*
X132279Y68000D01*
X132289Y67950D01*
X132279Y67900D01*
X132289Y67852D01*
X132261Y67810D01*
X132179Y67400D01*
X132189Y67350D01*
X132179Y67300D01*
X132189Y67250D01*
X132179Y67200D01*
X132189Y67150D01*
X132179Y67100D01*
X132189Y67050D01*
X132179Y67000D01*
X132189Y66950D01*
X132179Y66900D01*
X132189Y66850D01*
X132179Y66800D01*
X132189Y66750D01*
X132179Y66700D01*
X132189Y66650D01*
X132179Y66600D01*
X132189Y66550D01*
X132179Y66500D01*
X132189Y66450D01*
X132179Y66400D01*
X132189Y66350D01*
X132179Y66300D01*
X132189Y66250D01*
X132179Y66200D01*
X132189Y66150D01*
X132179Y66100D01*
X132189Y66050D01*
X132179Y66000D01*
X132189Y65952D01*
X132161Y65910D01*
X132079Y65500D01*
X132089Y65450D01*
X132079Y65400D01*
X132089Y65350D01*
X132079Y65300D01*
X132089Y65250D01*
X132079Y65200D01*
X132089Y65150D01*
X132079Y65100D01*
X132089Y65050D01*
X132079Y65000D01*
X132089Y64950D01*
X132079Y64900D01*
X132089Y64850D01*
X132079Y64800D01*
X132089Y64750D01*
X132079Y64700D01*
X132089Y64650D01*
X132079Y64600D01*
X132089Y64550D01*
X132079Y64500D01*
X132089Y64450D01*
X132079Y64400D01*
X132089Y64350D01*
X132079Y64300D01*
X132089Y64250D01*
X132079Y64200D01*
X132089Y64152D01*
X132061Y64110D01*
X131979Y63700D01*
X131989Y63650D01*
X131979Y63600D01*
X131989Y63550D01*
X131988Y63541D01*
X131881Y63405D01*
X131820Y63345D01*
X131727Y63287D01*
X131374Y63318D01*
X131364Y63322D01*
X131353Y63338D01*
X131339Y63410D01*
X131253Y63538D01*
X131239Y63610D01*
X131153Y63738D01*
X131139Y63810D01*
X130939Y64109D01*
X130939Y64110D01*
X130707Y64457D01*
X130587Y64537D01*
X130507Y64657D01*
X130160Y64889D01*
X130159Y64889D01*
X130147Y64897D01*
X130107Y64957D01*
X129760Y65189D01*
X129759Y65189D01*
X129460Y65389D01*
X129459Y65389D01*
X129160Y65589D01*
X129159Y65589D01*
X128860Y65789D01*
X128859Y65789D01*
X128560Y65989D01*
X128559Y65989D01*
X128260Y66189D01*
X128259Y66189D01*
X128047Y66331D01*
X128121Y66700D01*
X128111Y66750D01*
X128121Y66800D01*
X128111Y66850D01*
X128121Y66900D01*
X128111Y66950D01*
X128121Y67000D01*
X128111Y67050D01*
X128121Y67100D01*
X128111Y67150D01*
X128121Y67200D01*
X128111Y67250D01*
X128121Y67300D01*
X128111Y67348D01*
X128139Y67390D01*
X128221Y67800D01*
X128211Y67850D01*
X128221Y67900D01*
X128211Y67950D01*
X128221Y68000D01*
X128211Y68050D01*
X128221Y68100D01*
X128211Y68150D01*
X128221Y68200D01*
X128211Y68250D01*
X128221Y68300D01*
X128211Y68350D01*
X128221Y68400D01*
X128211Y68448D01*
X128239Y68490D01*
X128321Y68900D01*
X128311Y68950D01*
X128321Y69000D01*
X128311Y69050D01*
X128321Y69100D01*
X128311Y69150D01*
X128321Y69200D01*
X128311Y69250D01*
X128321Y69300D01*
X128311Y69350D01*
X128321Y69400D01*
X128311Y69450D01*
X128321Y69500D01*
X128311Y69548D01*
X128339Y69590D01*
X128421Y70000D01*
X128411Y70050D01*
X128421Y70100D01*
X128411Y70150D01*
X128421Y70200D01*
X128411Y70250D01*
X128421Y70300D01*
X128411Y70350D01*
X128421Y70400D01*
X128339Y70810D01*
X128282Y70896D01*
X128239Y71110D01*
X128153Y71238D01*
X128139Y71310D01*
X127907Y71657D01*
X127847Y71697D01*
X127807Y71757D01*
X127747Y71797D01*
X127707Y71857D01*
X127647Y71897D01*
X127607Y71957D01*
X127260Y72189D01*
X127188Y72203D01*
X127060Y72289D01*
X126650Y72371D01*
X125450D01*
X125040Y72289D01*
X124997Y72260D01*
X124640Y72189D01*
X124597Y72160D01*
X124240Y72089D01*
X124197Y72060D01*
X123840Y71989D01*
X123797Y71960D01*
X123440Y71889D01*
X123354Y71832D01*
X123140Y71789D01*
X123097Y71760D01*
X122740Y71689D01*
X122697Y71660D01*
X122340Y71589D01*
X122297Y71560D01*
X121940Y71489D01*
X121897Y71460D01*
X121540Y71389D01*
X121497Y71360D01*
X121140Y71289D01*
X121097Y71260D01*
X120740Y71189D01*
X120704Y71165D01*
X120279Y71120D01*
X120207Y71157D01*
X119860Y71389D01*
X119859Y71389D01*
X119600Y71562D01*
X119507Y71715D01*
X119507Y72242D01*
X119539Y72290D01*
X119539Y72291D01*
X119547Y72303D01*
X119607Y72343D01*
X119647Y72403D01*
X119707Y72443D01*
X119747Y72503D01*
X119807Y72543D01*
X119847Y72603D01*
X119907Y72643D01*
X119947Y72703D01*
X120007Y72743D01*
X120239Y73090D01*
X120239Y73091D01*
X120247Y73103D01*
X120307Y73143D01*
X120347Y73203D01*
X120407Y73243D01*
X120447Y73303D01*
X120507Y73343D01*
X120547Y73403D01*
X120607Y73443D01*
X120647Y73503D01*
X120707Y73543D01*
X120736Y73586D01*
X120860Y73611D01*
X120903Y73640D01*
X121260Y73711D01*
X121346Y73768D01*
X121560Y73811D01*
X121646Y73868D01*
X121860Y73911D01*
X121903Y73940D01*
X122260Y74011D01*
X122346Y74068D01*
X122560Y74111D01*
X122646Y74168D01*
X122860Y74211D01*
X122903Y74240D01*
X123260Y74311D01*
X123346Y74368D01*
X123560Y74411D01*
X123646Y74468D01*
X123860Y74511D01*
X123903Y74540D01*
X124260Y74611D01*
X124346Y74668D01*
X124560Y74711D01*
X124603Y74740D01*
X124960Y74811D01*
X125046Y74868D01*
X125260Y74911D01*
X125346Y74968D01*
X125560Y75011D01*
X125603Y75040D01*
X125960Y75111D01*
X126046Y75168D01*
X126260Y75211D01*
X126303Y75240D01*
X126660Y75311D01*
X126746Y75368D01*
X126960Y75411D01*
X127046Y75468D01*
X127260Y75511D01*
X127303Y75540D01*
X127660Y75611D01*
X127746Y75668D01*
X127960Y75711D01*
X128046Y75768D01*
X128260Y75811D01*
X128303Y75840D01*
X128660Y75911D01*
X128746Y75968D01*
X128960Y76011D01*
X129003Y76040D01*
X129360Y76111D01*
X129446Y76168D01*
X129660Y76211D01*
X129703Y76240D01*
X130060Y76311D01*
X130146Y76368D01*
X130360Y76411D01*
X130446Y76468D01*
X130660Y76511D01*
X130703Y76540D01*
X131060Y76611D01*
X131146Y76668D01*
X131360Y76711D01*
X131403Y76740D01*
X131760Y76811D01*
X131846Y76868D01*
X132060Y76911D01*
X132103Y76940D01*
X132293Y76978D01*
X132368Y76966D01*
D02*
G37*
G36*
X115636Y68828D02*
X115693Y68743D01*
X115753Y68703D01*
X115793Y68643D01*
X115853Y68603D01*
X115893Y68543D01*
X115953Y68503D01*
X115993Y68443D01*
X116340Y68211D01*
X116341Y68211D01*
X116353Y68203D01*
X116393Y68143D01*
X116740Y67911D01*
X116741Y67911D01*
X116753Y67903D01*
X116793Y67843D01*
X117140Y67611D01*
X117141Y67611D01*
X117153Y67603D01*
X117193Y67543D01*
X117253Y67503D01*
X117293Y67443D01*
X117341Y67411D01*
X117279Y67100D01*
X117289Y67050D01*
X117279Y67000D01*
X117289Y66950D01*
X117279Y66900D01*
X117289Y66852D01*
X117261Y66810D01*
X117179Y66400D01*
X117189Y66350D01*
X117179Y66300D01*
X117189Y66250D01*
X117179Y66200D01*
X117189Y66152D01*
X117161Y66110D01*
X117079Y65700D01*
X117089Y65650D01*
X117079Y65600D01*
X117089Y65550D01*
X117079Y65500D01*
X117089Y65452D01*
X117061Y65410D01*
X116979Y65000D01*
X116989Y64950D01*
X116979Y64900D01*
X116989Y64850D01*
X116979Y64800D01*
X116989Y64752D01*
X116961Y64710D01*
X116879Y64300D01*
X116889Y64250D01*
X116879Y64200D01*
X116889Y64150D01*
X116879Y64100D01*
X116889Y64052D01*
X116861Y64010D01*
X116779Y63600D01*
X116789Y63550D01*
X116779Y63500D01*
X116789Y63450D01*
X116779Y63400D01*
X116789Y63350D01*
X116779Y63300D01*
X116789Y63250D01*
X116779Y63200D01*
X116789Y63150D01*
X116779Y63100D01*
X116789Y63050D01*
X116779Y63000D01*
X116789Y62950D01*
X116779Y62900D01*
X116789Y62850D01*
X116779Y62800D01*
X116789Y62750D01*
X116779Y62700D01*
X116789Y62650D01*
X116779Y62600D01*
X116789Y62550D01*
X116779Y62500D01*
X116861Y62090D01*
X116947Y61962D01*
X116961Y61890D01*
X117193Y61543D01*
X117253Y61503D01*
X117293Y61443D01*
X117353Y61403D01*
X117393Y61343D01*
X117453Y61303D01*
X117493Y61243D01*
X117840Y61011D01*
X117912Y60997D01*
X118040Y60911D01*
X118112Y60897D01*
X118240Y60811D01*
X118650Y60729D01*
X119450D01*
X119860Y60811D01*
X119887Y60829D01*
X119950D01*
X120360Y60911D01*
X120387Y60929D01*
X120550D01*
X120960Y61011D01*
X120987Y61029D01*
X121050D01*
X121460Y61111D01*
X121487Y61129D01*
X121550D01*
X121960Y61211D01*
X121987Y61229D01*
X122150D01*
X122560Y61311D01*
X122587Y61329D01*
X122650D01*
X123060Y61411D01*
X123087Y61429D01*
X123250D01*
X123660Y61511D01*
X123687Y61529D01*
X123750D01*
X124160Y61611D01*
X124187Y61629D01*
X124350D01*
X124760Y61711D01*
X124787Y61729D01*
X124850D01*
X125260Y61811D01*
X125346Y61868D01*
X125560Y61911D01*
X125600Y61938D01*
X125940Y61711D01*
X125941Y61711D01*
X126240Y61511D01*
X126241Y61511D01*
X126253Y61503D01*
X126293Y61443D01*
X126640Y61211D01*
X126647Y60741D01*
X126647Y60738D01*
X126561Y60610D01*
X126547Y60538D01*
X126461Y60410D01*
X126461Y60409D01*
X126453Y60397D01*
X126393Y60357D01*
X126353Y60297D01*
X126293Y60257D01*
X126253Y60197D01*
X126193Y60157D01*
X126153Y60097D01*
X126093Y60057D01*
X126053Y59997D01*
X125993Y59957D01*
X125761Y59610D01*
X125761Y59609D01*
X125753Y59597D01*
X125693Y59557D01*
X125653Y59497D01*
X125593Y59457D01*
X125553Y59397D01*
X125493Y59357D01*
X125453Y59297D01*
X125393Y59257D01*
X125353Y59197D01*
X125293Y59157D01*
X125253Y59097D01*
X125193Y59057D01*
X124961Y58710D01*
X124961Y58709D01*
X124953Y58697D01*
X124893Y58657D01*
X124853Y58597D01*
X124793Y58557D01*
X124753Y58497D01*
X124693Y58457D01*
X124653Y58397D01*
X124593Y58357D01*
X124553Y58297D01*
X124493Y58257D01*
X124453Y58197D01*
X124393Y58157D01*
X124353Y58097D01*
X124293Y58057D01*
X124249Y57991D01*
X124240Y57989D01*
X124213Y57971D01*
X123950D01*
X123540Y57889D01*
X123513Y57871D01*
X123150D01*
X122740Y57789D01*
X122713Y57771D01*
X122450D01*
X122040Y57689D01*
X122013Y57671D01*
X121650D01*
X121240Y57589D01*
X121213Y57571D01*
X120950D01*
X120540Y57489D01*
X120513Y57471D01*
X120150D01*
X119740Y57389D01*
X119713Y57371D01*
X119450D01*
X119040Y57289D01*
X119013Y57271D01*
X118750D01*
X118340Y57189D01*
X118313Y57171D01*
X118050D01*
X117640Y57089D01*
X117613Y57071D01*
X117250D01*
X116840Y56989D01*
X116813Y56971D01*
X116550D01*
X116140Y56889D01*
X116113Y56871D01*
X115850D01*
X115440Y56789D01*
X115413Y56771D01*
X115050D01*
X114640Y56689D01*
X114613Y56671D01*
X114350D01*
X113940Y56589D01*
X113913Y56571D01*
X113650D01*
X113541Y56549D01*
X113118Y56954D01*
X113115Y56971D01*
X113121Y57000D01*
X113111Y57050D01*
X113121Y57100D01*
X113111Y57148D01*
X113139Y57190D01*
X113221Y57600D01*
X113211Y57650D01*
X113221Y57700D01*
X113211Y57748D01*
X113239Y57790D01*
X113321Y58200D01*
X113311Y58250D01*
X113321Y58300D01*
X113311Y58348D01*
X113339Y58390D01*
X113421Y58800D01*
X113411Y58850D01*
X113421Y58900D01*
X113411Y58948D01*
X113439Y58990D01*
X113521Y59400D01*
X113511Y59450D01*
X113521Y59500D01*
X113511Y59548D01*
X113539Y59590D01*
X113621Y60000D01*
X113611Y60050D01*
X113621Y60100D01*
X113611Y60148D01*
X113639Y60190D01*
X113721Y60600D01*
X113711Y60650D01*
X113721Y60700D01*
X113711Y60748D01*
X113739Y60790D01*
X113821Y61200D01*
X113811Y61248D01*
X113839Y61290D01*
X113921Y61700D01*
X113911Y61750D01*
X113921Y61800D01*
X113911Y61848D01*
X113939Y61890D01*
X114021Y62300D01*
X114011Y62348D01*
X114039Y62390D01*
X114121Y62800D01*
X114111Y62850D01*
X114121Y62900D01*
X114111Y62948D01*
X114139Y62990D01*
X114221Y63400D01*
X114211Y63448D01*
X114239Y63490D01*
X114321Y63900D01*
X114311Y63950D01*
X114321Y64000D01*
X114311Y64050D01*
X114321Y64100D01*
X114311Y64148D01*
X114339Y64190D01*
X114421Y64600D01*
X114411Y64650D01*
X114421Y64700D01*
X114411Y64748D01*
X114439Y64790D01*
X114521Y65200D01*
X114511Y65250D01*
X114521Y65300D01*
X114511Y65348D01*
X114539Y65390D01*
X114621Y65800D01*
X114611Y65850D01*
X114621Y65900D01*
X114611Y65948D01*
X114639Y65990D01*
X114721Y66400D01*
X114711Y66450D01*
X114721Y66500D01*
X114711Y66548D01*
X114739Y66590D01*
X114821Y67000D01*
X114811Y67050D01*
X114821Y67100D01*
X114811Y67148D01*
X114839Y67190D01*
X114921Y67600D01*
X114911Y67650D01*
X114921Y67700D01*
X114911Y67748D01*
X114939Y67790D01*
X115021Y68200D01*
X115011Y68250D01*
X115021Y68300D01*
X115011Y68348D01*
X115039Y68390D01*
X115105Y68723D01*
X115346Y68834D01*
X115456Y68850D01*
X115636Y68828D01*
D02*
G37*
%LPC*%
G36*
X55152Y13056D02*
Y12885D01*
Y12831D01*
Y12776D01*
X55156Y12730D01*
Y12687D01*
X55160Y12652D01*
X55164Y12617D01*
X55168Y12586D01*
Y12559D01*
X55176Y12517D01*
X55183Y12489D01*
X55187Y12470D01*
Y12466D01*
X55210Y12408D01*
X55242Y12350D01*
X55273Y12303D01*
X55307Y12261D01*
X55342Y12229D01*
X55370Y12202D01*
X55385Y12187D01*
X55393Y12183D01*
X55470Y12132D01*
X55552Y12094D01*
X55626Y12070D01*
X55692Y12051D01*
X55750Y12039D01*
X55773Y12035D01*
X55796D01*
X55812Y12032D01*
X55835D01*
X55909Y12035D01*
X55979Y12051D01*
X56037Y12070D01*
X56087Y12098D01*
X56126Y12121D01*
X56157Y12140D01*
X56173Y12156D01*
X56180Y12160D01*
X56223Y12210D01*
X56258Y12264D01*
X56281Y12315D01*
X56297Y12365D01*
X56305Y12408D01*
X56309Y12439D01*
X56312Y12462D01*
Y12470D01*
X56309Y12505D01*
X56305Y12536D01*
X56285Y12594D01*
X56258Y12649D01*
X56227Y12691D01*
X56200Y12726D01*
X56173Y12753D01*
X56153Y12769D01*
X56146Y12773D01*
X56122Y12788D01*
X56095Y12800D01*
X56060Y12815D01*
X56025Y12827D01*
X55951Y12850D01*
X55870Y12874D01*
X55800Y12893D01*
X55765Y12901D01*
X55738Y12908D01*
X55715Y12912D01*
X55695Y12916D01*
X55684Y12920D01*
X55680D01*
X55614Y12936D01*
X55552Y12947D01*
X55498Y12963D01*
X55443Y12974D01*
X55397Y12986D01*
X55354Y12998D01*
X55315Y13009D01*
X55280Y13017D01*
X55249Y13025D01*
X55222Y13033D01*
X55203Y13040D01*
X55183Y13044D01*
X55172Y13052D01*
X55160D01*
X55152Y13056D01*
D02*
G37*
G36*
X119048D02*
Y12885D01*
Y12831D01*
Y12776D01*
X119052Y12730D01*
Y12687D01*
X119056Y12652D01*
X119060Y12617D01*
X119064Y12586D01*
Y12559D01*
X119071Y12517D01*
X119079Y12489D01*
X119083Y12470D01*
Y12466D01*
X119106Y12408D01*
X119137Y12350D01*
X119168Y12303D01*
X119203Y12261D01*
X119238Y12229D01*
X119265Y12202D01*
X119281Y12187D01*
X119289Y12183D01*
X119366Y12132D01*
X119448Y12094D01*
X119521Y12070D01*
X119587Y12051D01*
X119646Y12039D01*
X119669Y12035D01*
X119692D01*
X119708Y12032D01*
X119731D01*
X119805Y12035D01*
X119875Y12051D01*
X119933Y12070D01*
X119983Y12098D01*
X120022Y12121D01*
X120053Y12140D01*
X120069Y12156D01*
X120076Y12160D01*
X120119Y12210D01*
X120154Y12264D01*
X120177Y12315D01*
X120193Y12365D01*
X120200Y12408D01*
X120204Y12439D01*
X120208Y12462D01*
Y12470D01*
X120204Y12505D01*
X120200Y12536D01*
X120181Y12594D01*
X120154Y12649D01*
X120123Y12691D01*
X120096Y12726D01*
X120069Y12753D01*
X120049Y12769D01*
X120041Y12773D01*
X120018Y12788D01*
X119991Y12800D01*
X119956Y12815D01*
X119921Y12827D01*
X119847Y12850D01*
X119766Y12874D01*
X119696Y12893D01*
X119661Y12901D01*
X119634Y12908D01*
X119611Y12912D01*
X119591Y12916D01*
X119580Y12920D01*
X119576D01*
X119510Y12936D01*
X119448Y12947D01*
X119393Y12963D01*
X119339Y12974D01*
X119292Y12986D01*
X119250Y12998D01*
X119211Y13009D01*
X119176Y13017D01*
X119145Y13025D01*
X119118Y13033D01*
X119098Y13040D01*
X119079Y13044D01*
X119068Y13052D01*
X119056D01*
X119048Y13056D01*
D02*
G37*
G36*
X124096Y15217D02*
X123495D01*
X123421Y15213D01*
X123355D01*
X123297Y15209D01*
X123242D01*
X123196Y15205D01*
X123157Y15202D01*
X123122Y15198D01*
X123091D01*
X123068Y15194D01*
X123045Y15190D01*
X123033D01*
X123021Y15186D01*
X123013D01*
X122936Y15167D01*
X122862Y15136D01*
X122800Y15104D01*
X122750Y15070D01*
X122707Y15039D01*
X122676Y15011D01*
X122657Y14992D01*
X122649Y14984D01*
X122602Y14922D01*
X122567Y14852D01*
X122540Y14786D01*
X122525Y14724D01*
X122513Y14666D01*
X122509Y14623D01*
X122505Y14604D01*
Y14592D01*
Y14585D01*
Y14581D01*
X122509Y14511D01*
X122521Y14441D01*
X122540Y14383D01*
X122556Y14332D01*
X122575Y14290D01*
X122594Y14259D01*
X122606Y14239D01*
X122610Y14232D01*
X122653Y14181D01*
X122695Y14134D01*
X122742Y14100D01*
X122788Y14069D01*
X122831Y14045D01*
X122862Y14026D01*
X122885Y14018D01*
X122889Y14014D01*
X122893D01*
X122932Y14003D01*
X122975Y13991D01*
X123025Y13983D01*
X123079Y13975D01*
X123196Y13960D01*
X123316Y13952D01*
X123370D01*
X123425Y13948D01*
X123475D01*
X123518Y13944D01*
X124096D01*
Y15217D01*
D02*
G37*
G36*
X93533Y14158D02*
X93506D01*
X93456Y14154D01*
X93413Y14150D01*
X93324Y14127D01*
X93250Y14096D01*
X93184Y14061D01*
X93130Y14026D01*
X93091Y13995D01*
X93079Y13983D01*
X93068Y13972D01*
X93064Y13968D01*
X93060Y13964D01*
X93029Y13925D01*
X92998Y13882D01*
X92951Y13793D01*
X92916Y13700D01*
X92893Y13607D01*
X92885Y13564D01*
X92878Y13525D01*
X92874Y13490D01*
X92870Y13459D01*
Y13432D01*
X92866Y13413D01*
Y13401D01*
Y13397D01*
X94150D01*
X94146Y13459D01*
X94142Y13521D01*
X94123Y13630D01*
X94107Y13681D01*
X94092Y13727D01*
X94076Y13770D01*
X94057Y13805D01*
X94042Y13840D01*
X94026Y13871D01*
X94010Y13894D01*
X93995Y13913D01*
X93983Y13933D01*
X93976Y13944D01*
X93968Y13948D01*
Y13952D01*
X93933Y13987D01*
X93894Y14022D01*
X93859Y14049D01*
X93820Y14072D01*
X93743Y14107D01*
X93669Y14131D01*
X93603Y14146D01*
X93576Y14150D01*
X93553Y14154D01*
X93533Y14158D01*
D02*
G37*
%LPD*%
D20*
X23976Y54524D02*
X27976D01*
X29976Y56524D01*
X35476D01*
D21*
X64476Y44024D02*
X72976D01*
X76476Y40524D01*
X96476D01*
X35476Y76524D02*
X47976Y64024D01*
X77976D01*
X82476Y68524D01*
X35476Y66524D02*
X57976Y44024D01*
X64476D01*
X29500Y0D02*
X140500D01*
X170500D01*
Y48000D01*
Y95500D01*
X12500D02*
X170500D01*
X12500Y29500D02*
Y95500D01*
Y0D02*
X29500D01*
X12500D02*
Y29500D01*
D22*
X23976Y89024D02*
X32976D01*
X35476Y86524D01*
D26*
X150250Y7500D02*
D03*
D28*
X160000Y25000D02*
D03*
X20000Y70000D02*
D03*
Y15000D02*
D03*
X160000Y80000D02*
D03*
D29*
X21476Y89024D02*
D03*
Y54524D02*
D03*
X161000Y7500D02*
D03*
Y41500D02*
D03*
D03*
Y7500D02*
D03*
X21476Y54524D02*
D03*
Y89024D02*
D03*
D30*
X35476Y86524D02*
D03*
Y76524D02*
D03*
Y66524D02*
D03*
X146976Y9524D02*
D03*
Y19524D02*
D03*
Y29524D02*
D03*
X35476Y9524D02*
D03*
Y29524D02*
D03*
Y19524D02*
D03*
D31*
Y56524D02*
D03*
X146976Y39524D02*
D03*
X35476D02*
D03*
D32*
X140000Y32500D02*
D03*
X137500D02*
D03*
Y30000D02*
D03*
X135000Y32500D02*
D03*
Y30000D02*
D03*
X132500Y32500D02*
D03*
Y30000D02*
D03*
X130000Y32500D02*
D03*
Y30000D02*
D03*
X127500Y32500D02*
D03*
Y30000D02*
D03*
X125000Y32500D02*
D03*
Y30000D02*
D03*
X122500Y32500D02*
D03*
Y30000D02*
D03*
X120000Y32500D02*
D03*
Y30000D02*
D03*
X117500Y32500D02*
D03*
Y30000D02*
D03*
X115000Y32500D02*
D03*
Y30000D02*
D03*
X112500D02*
D03*
Y27500D02*
D03*
X110000D02*
D03*
Y25000D02*
D03*
X107500D02*
D03*
Y22500D02*
D03*
X105000D02*
D03*
Y20000D02*
D03*
X102500D02*
D03*
X75000D02*
D03*
X72500Y22500D02*
D03*
X70000Y25000D02*
D03*
X67500Y27500D02*
D03*
X65000Y30000D02*
D03*
X62500Y32500D02*
D03*
Y30000D02*
D03*
X60000Y32500D02*
D03*
Y30000D02*
D03*
X57500Y32500D02*
D03*
Y30000D02*
D03*
X55000Y32500D02*
D03*
Y30000D02*
D03*
X52500Y32500D02*
D03*
Y30000D02*
D03*
X50000Y32500D02*
D03*
Y30000D02*
D03*
X47500Y32500D02*
D03*
Y30000D02*
D03*
X45000Y32500D02*
D03*
Y30000D02*
D03*
D33*
X82476Y68524D02*
D03*
X96476Y40524D02*
D03*
X64476Y44024D02*
D03*
D34*
X72811Y54358D02*
D03*
Y58689D02*
D03*
X77142Y54358D02*
D03*
Y58689D02*
D03*
D35*
X114950Y41700D02*
X115150D01*
X125150D02*
X126050D01*
X114350Y41800D02*
X115750D01*
X124750D02*
X126550D01*
X114050Y41900D02*
X116050D01*
X124450D02*
X126850D01*
X113950Y42000D02*
X116350D01*
X124250D02*
X127150D01*
X113750Y42100D02*
X116550D01*
X124050D02*
X127250D01*
X113650Y42200D02*
X116650D01*
X123850D02*
X127450D01*
X113550Y42300D02*
X116750D01*
X123750D02*
X127650D01*
X113450Y42400D02*
X116950D01*
X123650D02*
X127750D01*
X113350Y42500D02*
X117050D01*
X123550D02*
X127950D01*
X113250Y42600D02*
X117150D01*
X123450D02*
X128050D01*
X113150Y42700D02*
X117250D01*
X123350D02*
X128150D01*
X113150Y42800D02*
X117350D01*
X123250D02*
X128250D01*
X113050Y42900D02*
X117450D01*
X123150D02*
X128350D01*
X113050Y43000D02*
X117550D01*
X123150D02*
X128450D01*
X112950Y43100D02*
X117650D01*
X123050D02*
X128550D01*
X112950Y43200D02*
X117650D01*
X123050D02*
X128550D01*
X112950Y43300D02*
X117750D01*
X122950D02*
X128650D01*
X112850Y43400D02*
X117850D01*
X122950D02*
X128750D01*
X112850Y43500D02*
X117850D01*
X122850D02*
X128850D01*
X112850Y43600D02*
X117950D01*
X122850D02*
X128850D01*
X112850Y43700D02*
X117950D01*
X122750D02*
X128950D01*
X112750Y43800D02*
X118050D01*
X122750D02*
X128950D01*
X112750Y43900D02*
X118050D01*
X122750D02*
X129050D01*
X112750Y44000D02*
X118150D01*
X122750D02*
X129050D01*
X112750Y44100D02*
X118150D01*
X122650D02*
X129150D01*
X112750Y44200D02*
X118150D01*
X122650D02*
X129150D01*
X112750Y44300D02*
X118250D01*
X122650D02*
X129150D01*
X112750Y44400D02*
X118250D01*
X122650D02*
X129250D01*
X112750Y44500D02*
X118250D01*
X122650D02*
X129250D01*
X112750Y44600D02*
X118350D01*
X122650D02*
X129250D01*
X112750Y44700D02*
X118350D01*
X122650D02*
X129350D01*
X112750Y44800D02*
X118350D01*
X122650D02*
X129350D01*
X112850Y44900D02*
X118350D01*
X122650D02*
X129350D01*
X112850Y45000D02*
X118350D01*
X122650D02*
X129350D01*
X112850Y45100D02*
X118350D01*
X122650D02*
X129350D01*
X112850Y45200D02*
X118450D01*
X122650D02*
X129350D01*
X112850Y45300D02*
X118450D01*
X122650D02*
X129450D01*
X112950Y45400D02*
X118450D01*
X122650D02*
X129450D01*
X112950Y45500D02*
X118450D01*
X122650D02*
X129450D01*
X112950Y45600D02*
X118450D01*
X122750D02*
X129450D01*
X113050Y45700D02*
X118450D01*
X122750D02*
X129450D01*
X113050Y45800D02*
X118350D01*
X122750D02*
X129450D01*
X113150Y45900D02*
X118350D01*
X122850D02*
X129450D01*
X113150Y46000D02*
X118350D01*
X122850D02*
X129350D01*
X113150Y46100D02*
X118350D01*
X122850D02*
X129350D01*
X113250Y46200D02*
X118350D01*
X122950D02*
X129350D01*
X113350Y46300D02*
X118350D01*
X122950D02*
X129350D01*
X113350Y46400D02*
X118450D01*
X122950D02*
X129350D01*
X113450Y46500D02*
X118550D01*
X123050D02*
X129350D01*
X113550Y46600D02*
X118650D01*
X123050D02*
X129350D01*
X113550Y46700D02*
X118650D01*
X123150D02*
X129450D01*
X113650Y46800D02*
X118750D01*
X123250D02*
X129550D01*
X113750Y46900D02*
X118850D01*
X123250D02*
X129650D01*
X113850Y47000D02*
X118950D01*
X123350D02*
X129750D01*
X113950Y47100D02*
X119050D01*
X123450D02*
X129850D01*
X114050Y47200D02*
X119150D01*
X123450D02*
X129950D01*
X114150Y47300D02*
X119250D01*
X123550D02*
X130050D01*
X114250Y47400D02*
X119350D01*
X123650D02*
X130150D01*
X114450Y47500D02*
X119450D01*
X123750D02*
X130250D01*
X114550Y47600D02*
X119550D01*
X123850D02*
X130350D01*
X114750Y47700D02*
X119550D01*
X123950D02*
X130450D01*
X114950Y47800D02*
X119650D01*
X124050D02*
X130550D01*
X115150Y47900D02*
X119750D01*
X124250D02*
X130650D01*
X115450Y48000D02*
X119850D01*
X124350D02*
X130750D01*
X116750Y48100D02*
X119950D01*
X124450D02*
X130850D01*
X116850Y48200D02*
X120050D01*
X124650D02*
X130950D01*
X116950Y48300D02*
X120150D01*
X124850D02*
X131050D01*
X117050Y48400D02*
X120250D01*
X125050D02*
X131150D01*
X117150Y48500D02*
X120350D01*
X125350D02*
X131250D01*
X117250Y48600D02*
X120450D01*
X125650D02*
X127150D01*
X127350D02*
X131350D01*
X117350Y48700D02*
X120550D01*
X127450D02*
X131450D01*
X117450Y48800D02*
X120650D01*
X127550D02*
X131550D01*
X117550Y48900D02*
X120650D01*
X127650D02*
X131650D01*
X117650Y49000D02*
X120750D01*
X127750D02*
X131750D01*
X117750Y49100D02*
X120850D01*
X127850D02*
X131850D01*
X117750Y49200D02*
X120950D01*
X127950D02*
X131950D01*
X117850Y49300D02*
X121050D01*
X128050D02*
X132050D01*
X117950Y49400D02*
X121150D01*
X128150D02*
X132150D01*
X118050Y49500D02*
X121250D01*
X128250D02*
X132250D01*
X118150Y49600D02*
X121350D01*
X128350D02*
X132350D01*
X118250Y49700D02*
X121450D01*
X128450D02*
X132450D01*
X118350Y49800D02*
X121550D01*
X128550D02*
X132550D01*
X118450Y49900D02*
X121650D01*
X128650D02*
X132650D01*
X118550Y50000D02*
X121650D01*
X128750D02*
X132750D01*
X118650Y50100D02*
X121750D01*
X128850D02*
X132850D01*
X118750Y50200D02*
X121850D01*
X128950D02*
X132950D01*
X118750Y50300D02*
X121950D01*
X129050D02*
X133050D01*
X118850Y50400D02*
X122050D01*
X129150D02*
X133150D01*
X118950Y50500D02*
X122150D01*
X129250D02*
X133250D01*
X119050Y50600D02*
X122250D01*
X129350D02*
X133350D01*
X119150Y50700D02*
X122350D01*
X129450D02*
X133450D01*
X119250Y50800D02*
X122350D01*
X129550D02*
X133550D01*
X119350Y50900D02*
X122550D01*
X129650D02*
X133650D01*
X119450Y51000D02*
X122550D01*
X129750D02*
X133750D01*
X119450Y51100D02*
X122650D01*
X129850D02*
X133850D01*
X119550Y51200D02*
X122750D01*
X129950D02*
X133950D01*
X119650Y51300D02*
X122850D01*
X130050D02*
X134050D01*
X119750Y51400D02*
X122950D01*
X130150D02*
X134150D01*
X119850Y51500D02*
X123050D01*
X130250D02*
X134250D01*
X119950Y51600D02*
X123150D01*
X130350D02*
X134350D01*
X120050Y51700D02*
X123250D01*
X130450D02*
X134450D01*
X120150Y51800D02*
X123350D01*
X130550D02*
X134550D01*
X120250Y51900D02*
X123450D01*
X130650D02*
X134650D01*
X120350Y52000D02*
X123550D01*
X130750D02*
X134750D01*
X120450Y52100D02*
X123650D01*
X130850D02*
X134850D01*
X120450Y52200D02*
X123650D01*
X130950D02*
X134950D01*
X120550Y52300D02*
X123750D01*
X131050D02*
X135050D01*
X120650Y52400D02*
X123850D01*
X131150D02*
X135150D01*
X120750Y52500D02*
X123950D01*
X131250D02*
X135250D01*
X120850Y52600D02*
X124050D01*
X131350D02*
X135350D01*
X120950Y52700D02*
X124150D01*
X131450D02*
X135450D01*
X121050Y52800D02*
X124250D01*
X131550D02*
X135550D01*
X121150Y52900D02*
X124350D01*
X131650D02*
X135650D01*
X111650Y53000D02*
X112350D01*
X121250D02*
X124450D01*
X131750D02*
X135750D01*
X111150Y53100D02*
X113150D01*
X121350D02*
X124550D01*
X131850D02*
X135850D01*
X110950Y53200D02*
X113950D01*
X121350D02*
X124550D01*
X131950D02*
X135950D01*
X110750Y53300D02*
X114950D01*
X121450D02*
X124650D01*
X132050D02*
X136050D01*
X110650Y53400D02*
X115750D01*
X121550D02*
X124750D01*
X132150D02*
X136150D01*
X110550Y53500D02*
X116650D01*
X121650D02*
X124850D01*
X132250D02*
X136250D01*
X110450Y53600D02*
X117450D01*
X121750D02*
X124950D01*
X132350D02*
X136350D01*
X110350Y53700D02*
X118450D01*
X121850D02*
X125050D01*
X132450D02*
X136450D01*
X110250Y53800D02*
X119350D01*
X121950D02*
X125150D01*
X132550D02*
X136550D01*
X110150Y53900D02*
X120250D01*
X122050D02*
X125250D01*
X132550D02*
X136650D01*
X110150Y54000D02*
X121150D01*
X122050D02*
X125350D01*
X132650D02*
X136750D01*
X110050Y54100D02*
X125450D01*
X132750D02*
X136850D01*
X110050Y54200D02*
X125450D01*
X132850D02*
X136950D01*
X109950Y54300D02*
X125550D01*
X132950D02*
X137050D01*
X109950Y54400D02*
X125650D01*
X133050D02*
X137150D01*
X109950Y54500D02*
X125850D01*
X133150D02*
X137250D01*
X109850Y54600D02*
X126450D01*
X133250D02*
X137350D01*
X109850Y54700D02*
X127450D01*
X133350D02*
X137450D01*
X109850Y54800D02*
X128350D01*
X133450D02*
X137550D01*
X109850Y54900D02*
X129250D01*
X133550D02*
X137650D01*
X109850Y55000D02*
X130250D01*
X133650D02*
X137750D01*
X109850Y55100D02*
X131150D01*
X133750D02*
X137850D01*
X109850Y55200D02*
X131850D01*
X133850D02*
X137950D01*
X109850Y55300D02*
X132250D01*
X133950D02*
X138050D01*
X109850Y55400D02*
X112350D01*
X112850D02*
X132550D01*
X134050D02*
X138150D01*
X109850Y55500D02*
X112150D01*
X113650D02*
X132750D01*
X134150D02*
X138250D01*
X109850Y55600D02*
X112050D01*
X114350D02*
X132950D01*
X134250D02*
X138350D01*
X109850Y55700D02*
X111950D01*
X115050D02*
X133150D01*
X134350D02*
X138450D01*
X109850Y55800D02*
X111950D01*
X115850D02*
X133350D01*
X134450D02*
X138550D01*
X109850Y55900D02*
X111950D01*
X116550D02*
X133550D01*
X134550D02*
X138650D01*
X109850Y56000D02*
X111850D01*
X117250D02*
X133650D01*
X134650D02*
X138750D01*
X109850Y56100D02*
X111850D01*
X118050D02*
X133850D01*
X134750D02*
X138850D01*
X109950Y56200D02*
X111850D01*
X118750D02*
X133950D01*
X134850D02*
X138950D01*
X109950Y56300D02*
X111850D01*
X119450D02*
X134050D01*
X134950D02*
X139050D01*
X109950Y56400D02*
X111950D01*
X120150D02*
X134150D01*
X135050D02*
X139150D01*
X109950Y56500D02*
X111950D01*
X120950D02*
X134350D01*
X135150D02*
X139250D01*
X109950Y56600D02*
X111950D01*
X121650D02*
X134450D01*
X135250D02*
X139350D01*
X110050Y56700D02*
X111950D01*
X122450D02*
X134550D01*
X135350D02*
X139450D01*
X110050Y56800D02*
X111950D01*
X123150D02*
X134650D01*
X135450D02*
X139550D01*
X110050Y56900D02*
X111950D01*
X123950D02*
X134750D01*
X135550D02*
X139650D01*
X110050Y57000D02*
X112050D01*
X124650D02*
X134850D01*
X135650D02*
X139750D01*
X110050Y57100D02*
X112050D01*
X124950D02*
X134950D01*
X135750D02*
X139850D01*
X110050Y57200D02*
X112050D01*
X125050D02*
X134950D01*
X135850D02*
X139950D01*
X110150Y57300D02*
X112050D01*
X125050D02*
X135050D01*
X135950D02*
X140050D01*
X110150Y57400D02*
X112050D01*
X125150D02*
X135150D01*
X136050D02*
X140150D01*
X110150Y57500D02*
X112050D01*
X125250D02*
X135250D01*
X136150D02*
X140250D01*
X110150Y57600D02*
X112150D01*
X125350D02*
X128750D01*
X129250D02*
X135250D01*
X136250D02*
X140350D01*
X110150Y57700D02*
X112150D01*
X125450D02*
X128750D01*
X129850D02*
X135350D01*
X136350D02*
X140450D01*
X110150Y57800D02*
X112150D01*
X125550D02*
X128750D01*
X130550D02*
X135350D01*
X136450D02*
X140550D01*
X110250Y57900D02*
X112150D01*
X125650D02*
X128850D01*
X131250D02*
X135450D01*
X136550D02*
X140650D01*
X110250Y58000D02*
X112150D01*
X125750D02*
X128950D01*
X131850D02*
X135550D01*
X136650D02*
X140750D01*
X110250Y58100D02*
X112150D01*
X125850D02*
X129050D01*
X132050D02*
X135550D01*
X136750D02*
X140850D01*
X110250Y58200D02*
X112250D01*
X125950D02*
X129150D01*
X132150D02*
X135650D01*
X136850D02*
X140950D01*
X110250Y58300D02*
X112250D01*
X125950D02*
X129250D01*
X132350D02*
X135650D01*
X136950D02*
X141050D01*
X110350Y58400D02*
X112250D01*
X126050D02*
X129350D01*
X132450D02*
X135750D01*
X137050D02*
X141150D01*
X110350Y58500D02*
X112250D01*
X126150D02*
X129450D01*
X132550D02*
X135750D01*
X137150D02*
X141250D01*
X110350Y58600D02*
X112250D01*
X126250D02*
X129450D01*
X132550D02*
X135750D01*
X137250D02*
X141350D01*
X110350Y58700D02*
X112250D01*
X126350D02*
X129550D01*
X132650D02*
X135750D01*
X137350D02*
X141450D01*
X110350Y58800D02*
X112350D01*
X126450D02*
X129650D01*
X132750D02*
X135850D01*
X137450D02*
X141550D01*
X110350Y58900D02*
X112350D01*
X126550D02*
X129750D01*
X132750D02*
X135850D01*
X137550D02*
X141650D01*
X110450Y59000D02*
X112350D01*
X126650D02*
X129750D01*
X132850D02*
X135850D01*
X137650D02*
X141650D01*
X110450Y59100D02*
X112350D01*
X126750D02*
X129850D01*
X132850D02*
X135950D01*
X137750D02*
X141750D01*
X110450Y59200D02*
X112350D01*
X126750D02*
X129950D01*
X132850D02*
X135950D01*
X137850D02*
X141850D01*
X110450Y59300D02*
X112350D01*
X126850D02*
X129950D01*
X132850D02*
X135950D01*
X137950D02*
X141950D01*
X110450Y59400D02*
X112450D01*
X126950D02*
X130050D01*
X132850D02*
X135950D01*
X138050D02*
X142050D01*
X110450Y59500D02*
X112450D01*
X127050D02*
X130050D01*
X132850D02*
X135950D01*
X138150D02*
X142150D01*
X110550Y59600D02*
X112450D01*
X127150D02*
X130150D01*
X132850D02*
X135950D01*
X138250D02*
X142150D01*
X110550Y59700D02*
X112450D01*
X127250D02*
X130150D01*
X132850D02*
X135950D01*
X138250D02*
X142250D01*
X110550Y59800D02*
X112450D01*
X127350D02*
X130250D01*
X132850D02*
X135950D01*
X138450D02*
X142350D01*
X110550Y59900D02*
X112450D01*
X127450D02*
X130250D01*
X132850D02*
X135950D01*
X138450D02*
X142350D01*
X110550Y60000D02*
X112550D01*
X127450D02*
X130250D01*
X132850D02*
X135950D01*
X138550D02*
X142450D01*
X110550Y60100D02*
X112550D01*
X127550D02*
X130350D01*
X132950D02*
X136050D01*
X138650D02*
X142550D01*
X110650Y60200D02*
X112550D01*
X127550D02*
X130350D01*
X132950D02*
X136050D01*
X138750D02*
X142550D01*
X110650Y60300D02*
X112550D01*
X127650D02*
X130450D01*
X132950D02*
X136050D01*
X138850D02*
X142650D01*
X110650Y60400D02*
X112550D01*
X127650D02*
X130450D01*
X132950D02*
X136050D01*
X138950D02*
X142650D01*
X110650Y60500D02*
X112550D01*
X127750D02*
X130450D01*
X132950D02*
X136050D01*
X139050D02*
X142750D01*
X110650Y60600D02*
X112650D01*
X127750D02*
X130450D01*
X132950D02*
X136050D01*
X139150D02*
X142750D01*
X110750Y60700D02*
X112650D01*
X127750D02*
X130550D01*
X132950D02*
X136050D01*
X139250D02*
X142850D01*
X110750Y60800D02*
X112650D01*
X127750D02*
X130550D01*
X132950D02*
X136050D01*
X139350D02*
X142850D01*
X110750Y60900D02*
X112650D01*
X127850D02*
X130550D01*
X132950D02*
X136050D01*
X139350D02*
X142850D01*
X110750Y61000D02*
X112650D01*
X127850D02*
X130550D01*
X132950D02*
X136050D01*
X139450D02*
X142950D01*
X110750Y61100D02*
X112650D01*
X127850D02*
X130550D01*
X132950D02*
X136050D01*
X139450D02*
X142950D01*
X110750Y61200D02*
X112750D01*
X127750D02*
X130550D01*
X132950D02*
X136050D01*
X139550D02*
X142950D01*
X110850Y61300D02*
X112750D01*
X127750D02*
X130550D01*
X132950D02*
X136050D01*
X139550D02*
X143050D01*
X110850Y61400D02*
X112750D01*
X127750D02*
X130650D01*
X132950D02*
X136050D01*
X139650D02*
X143050D01*
X110850Y61500D02*
X112750D01*
X127750D02*
X130650D01*
X132950D02*
X136050D01*
X139650D02*
X143050D01*
X110850Y61600D02*
X112750D01*
X127650D02*
X130650D01*
X132950D02*
X136050D01*
X139650D02*
X143050D01*
X110850Y61700D02*
X112850D01*
X127650D02*
X130650D01*
X132950D02*
X136050D01*
X139650D02*
X143150D01*
X110950Y61800D02*
X112850D01*
X118650D02*
X119450D01*
X127550D02*
X130650D01*
X132950D02*
X136050D01*
X139750D02*
X143150D01*
X110950Y61900D02*
X112850D01*
X118450D02*
X119950D01*
X127450D02*
X130550D01*
X133050D02*
X136050D01*
X139750D02*
X143150D01*
X110950Y62000D02*
X112850D01*
X118250D02*
X120550D01*
X127350D02*
X130550D01*
X133050D02*
X136050D01*
X139750D02*
X143150D01*
X110950Y62100D02*
X112850D01*
X118150D02*
X121050D01*
X127250D02*
X130550D01*
X133050D02*
X136050D01*
X139650D02*
X143150D01*
X110950Y62200D02*
X112850D01*
X118050D02*
X121550D01*
X127050D02*
X130550D01*
X133050D02*
X136050D01*
X139650D02*
X143150D01*
X110950Y62300D02*
X112950D01*
X117950D02*
X122150D01*
X126950D02*
X130550D01*
X133050D02*
X136050D01*
X139650D02*
X143150D01*
X111050Y62400D02*
X112950D01*
X117950D02*
X122650D01*
X126850D02*
X130550D01*
X133050D02*
X136050D01*
X139650D02*
X143150D01*
X111050Y62500D02*
X112950D01*
X117850D02*
X123250D01*
X126650D02*
X130550D01*
X133050D02*
X136050D01*
X139550D02*
X143150D01*
X111050Y62600D02*
X112950D01*
X117850D02*
X123750D01*
X126550D02*
X130450D01*
X133050D02*
X136050D01*
X139550D02*
X143150D01*
X111050Y62700D02*
X112950D01*
X117850D02*
X124350D01*
X126350D02*
X130450D01*
X133050D02*
X136050D01*
X139450D02*
X143150D01*
X111150Y62800D02*
X113050D01*
X117850D02*
X124850D01*
X126250D02*
X130450D01*
X133050D02*
X136050D01*
X139350D02*
X143150D01*
X111150Y62900D02*
X113050D01*
X117850D02*
X125150D01*
X126150D02*
X130350D01*
X133050D02*
X136050D01*
X139250D02*
X143150D01*
X111150Y63000D02*
X113050D01*
X117850D02*
X125350D01*
X125950D02*
X130350D01*
X133050D02*
X136150D01*
X139150D02*
X143150D01*
X111150Y63100D02*
X113050D01*
X117850D02*
X125550D01*
X125850D02*
X130250D01*
X133050D02*
X136150D01*
X139050D02*
X143050D01*
X111150Y63200D02*
X113050D01*
X117850D02*
X130250D01*
X133050D02*
X136150D01*
X138850D02*
X143050D01*
X111150Y63300D02*
X113050D01*
X117850D02*
X130150D01*
X133050D02*
X136150D01*
X138750D02*
X143050D01*
X111250Y63400D02*
X113150D01*
X117850D02*
X130150D01*
X133050D02*
X136150D01*
X138550D02*
X143050D01*
X111250Y63500D02*
X113150D01*
X117850D02*
X130050D01*
X133050D02*
X136150D01*
X138450D02*
X142950D01*
X111250Y63600D02*
X113150D01*
X117850D02*
X129950D01*
X133050D02*
X136150D01*
X138250D02*
X142950D01*
X111250Y63700D02*
X113150D01*
X117950D02*
X129950D01*
X133050D02*
X136150D01*
X138150D02*
X142950D01*
X111250Y63800D02*
X113150D01*
X117950D02*
X129750D01*
X133150D02*
X136150D01*
X137950D02*
X142850D01*
X111350Y63900D02*
X113250D01*
X117950D02*
X129750D01*
X133150D02*
X136150D01*
X137850D02*
X142850D01*
X111350Y64000D02*
X113250D01*
X117950D02*
X129550D01*
X133150D02*
X136150D01*
X137650D02*
X142750D01*
X111350Y64100D02*
X113250D01*
X117950D02*
X129450D01*
X133150D02*
X136150D01*
X137450D02*
X142750D01*
X111350Y64200D02*
X113250D01*
X117950D02*
X129350D01*
X133150D02*
X136150D01*
X137350D02*
X142650D01*
X111350Y64300D02*
X113250D01*
X117950D02*
X120250D01*
X120750D02*
X129150D01*
X133150D02*
X136150D01*
X137150D02*
X142550D01*
X111350Y64400D02*
X113250D01*
X118050D02*
X120250D01*
X121250D02*
X129050D01*
X133150D02*
X136150D01*
X137050D02*
X142550D01*
X111450Y64500D02*
X113250D01*
X118050D02*
X120250D01*
X121750D02*
X128850D01*
X133150D02*
X136150D01*
X136950D02*
X142450D01*
X111450Y64600D02*
X113350D01*
X118050D02*
X120250D01*
X122250D02*
X128750D01*
X133150D02*
X136150D01*
X136750D02*
X142350D01*
X111450Y64700D02*
X113350D01*
X118050D02*
X120250D01*
X122750D02*
X128550D01*
X133150D02*
X136150D01*
X136650D02*
X142250D01*
X111450Y64800D02*
X113350D01*
X118050D02*
X120250D01*
X123250D02*
X128450D01*
X133150D02*
X136150D01*
X136450D02*
X142250D01*
X111450Y64900D02*
X113350D01*
X118050D02*
X120250D01*
X123750D02*
X128250D01*
X133150D02*
X142050D01*
X111350Y65000D02*
X113350D01*
X118050D02*
X120250D01*
X124050D02*
X128150D01*
X133150D02*
X141950D01*
X111250Y65100D02*
X113350D01*
X118150D02*
X120250D01*
X124150D02*
X127950D01*
X133150D02*
X141850D01*
X111150Y65200D02*
X113450D01*
X118150D02*
X120350D01*
X124250D02*
X127850D01*
X133150D02*
X141750D01*
X111050Y65300D02*
X113450D01*
X118150D02*
X120350D01*
X124350D02*
X127650D01*
X133150D02*
X141650D01*
X110950Y65400D02*
X113450D01*
X118150D02*
X120350D01*
X124350D02*
X127550D01*
X133150D02*
X141450D01*
X110850Y65500D02*
X113450D01*
X118150D02*
X120350D01*
X124350D02*
X127350D01*
X133150D02*
X141350D01*
X110750Y65600D02*
X113450D01*
X118150D02*
X120350D01*
X124350D02*
X127250D01*
X133250D02*
X141150D01*
X110550Y65700D02*
X113450D01*
X118150D02*
X120350D01*
X124350D02*
X127050D01*
X133250D02*
X140950D01*
X110450Y65800D02*
X113550D01*
X118250D02*
X120450D01*
X124450D02*
X126950D01*
X133250D02*
X140850D01*
X110350Y65900D02*
X113550D01*
X118250D02*
X120450D01*
X124450D02*
X126950D01*
X133250D02*
X140650D01*
X110250Y66000D02*
X113550D01*
X118250D02*
X120450D01*
X124450D02*
X126950D01*
X133250D02*
X140550D01*
X110150Y66100D02*
X113550D01*
X118250D02*
X120450D01*
X124450D02*
X126950D01*
X133250D02*
X140350D01*
X110050Y66200D02*
X113550D01*
X118250D02*
X120450D01*
X124450D02*
X126950D01*
X133250D02*
X140250D01*
X109850Y66300D02*
X113550D01*
X118250D02*
X120450D01*
X124450D02*
X126950D01*
X133250D02*
X140050D01*
X109750Y66400D02*
X113650D01*
X118250D02*
X120450D01*
X124450D02*
X126950D01*
X133250D02*
X139850D01*
X109650Y66500D02*
X113650D01*
X118350D02*
X120550D01*
X124450D02*
X126950D01*
X133250D02*
X139750D01*
X109550Y66600D02*
X113650D01*
X118350D02*
X120550D01*
X124550D02*
X126950D01*
X133250D02*
X139550D01*
X109450Y66700D02*
X113650D01*
X118350D02*
X120550D01*
X124550D02*
X127050D01*
X133250D02*
X139350D01*
X109350Y66800D02*
X113650D01*
X118350D02*
X120550D01*
X124550D02*
X127050D01*
X133250D02*
X139250D01*
X109150Y66900D02*
X113650D01*
X118350D02*
X120550D01*
X124550D02*
X127050D01*
X133250D02*
X139050D01*
X109050Y67000D02*
X113750D01*
X118350D02*
X120550D01*
X124550D02*
X127050D01*
X133250D02*
X138950D01*
X108950Y67100D02*
X113750D01*
X118350D02*
X120550D01*
X124550D02*
X127050D01*
X133250D02*
X138750D01*
X108850Y67200D02*
X113750D01*
X118450D02*
X120550D01*
X124550D02*
X127050D01*
X133250D02*
X138550D01*
X108850Y67300D02*
X113750D01*
X118450D02*
X120650D01*
X124550D02*
X127050D01*
X133250D02*
X138450D01*
X108750Y67400D02*
X113750D01*
X118450D02*
X120650D01*
X124550D02*
X127050D01*
X133250D02*
X138250D01*
X108750Y67500D02*
X113750D01*
X118450D02*
X120650D01*
X124650D02*
X127050D01*
X133350D02*
X138050D01*
X108650Y67600D02*
X113850D01*
X118450D02*
X120650D01*
X124650D02*
X127050D01*
X133350D02*
X137950D01*
X108650Y67700D02*
X113850D01*
X118450D02*
X120650D01*
X124650D02*
X127050D01*
X133350D02*
X137750D01*
X108550Y67800D02*
X111750D01*
X111950D02*
X113850D01*
X118450D02*
X120650D01*
X124650D02*
X127150D01*
X133350D02*
X137650D01*
X108550Y67900D02*
X111650D01*
X112050D02*
X113850D01*
X118450D02*
X120650D01*
X124650D02*
X127150D01*
X133350D02*
X137450D01*
X108550Y68000D02*
X111550D01*
X112050D02*
X113850D01*
X118350D02*
X120750D01*
X124650D02*
X127150D01*
X133350D02*
X137250D01*
X108550Y68100D02*
X111350D01*
X112050D02*
X113850D01*
X118250D02*
X120950D01*
X124650D02*
X127150D01*
X133350D02*
X137150D01*
X108550Y68200D02*
X111250D01*
X112050D02*
X113950D01*
X118050D02*
X121450D01*
X124650D02*
X127150D01*
X133350D02*
X136950D01*
X108550Y68300D02*
X111150D01*
X112050D02*
X113950D01*
X117950D02*
X121850D01*
X124650D02*
X127150D01*
X133350D02*
X136850D01*
X108550Y68400D02*
X111050D01*
X112150D02*
X113950D01*
X117850D02*
X122250D01*
X124750D02*
X127150D01*
X133350D02*
X136650D01*
X108550Y68500D02*
X110950D01*
X112150D02*
X113950D01*
X117750D02*
X122650D01*
X124750D02*
X127150D01*
X133350D02*
X136450D01*
X108550Y68600D02*
X110750D01*
X112150D02*
X113950D01*
X117550D02*
X123150D01*
X124750D02*
X127150D01*
X133350D02*
X136350D01*
X108550Y68700D02*
X110650D01*
X112150D02*
X113950D01*
X117450D02*
X123550D01*
X124750D02*
X127150D01*
X133350D02*
X136350D01*
X108550Y68800D02*
X110550D01*
X112150D02*
X114050D01*
X117350D02*
X123950D01*
X124750D02*
X127150D01*
X133350D02*
X136350D01*
X108550Y68900D02*
X110450D01*
X112150D02*
X114050D01*
X117150D02*
X124350D01*
X124650D02*
X127250D01*
X133350D02*
X136350D01*
X108550Y69000D02*
X110450D01*
X112250D02*
X114050D01*
X117050D02*
X127250D01*
X133350D02*
X136350D01*
X108550Y69100D02*
X110350D01*
X112250D02*
X114050D01*
X116950D02*
X127250D01*
X133450D02*
X136350D01*
X108550Y69200D02*
X110350D01*
X112250D02*
X114050D01*
X116750D02*
X127250D01*
X133450D02*
X136350D01*
X108650Y69300D02*
X110350D01*
X112250D02*
X114150D01*
X116650D02*
X127250D01*
X133450D02*
X136350D01*
X108650Y69400D02*
X110350D01*
X112250D02*
X114150D01*
X116550D02*
X127250D01*
X133450D02*
X136350D01*
X108650Y69500D02*
X110350D01*
X112350D02*
X114150D01*
X116450D02*
X127250D01*
X133450D02*
X136350D01*
X108750Y69600D02*
X110350D01*
X112350D02*
X114150D01*
X116450D02*
X127250D01*
X133450D02*
X136350D01*
X108750Y69700D02*
X110350D01*
X112350D02*
X114150D01*
X116350D02*
X127250D01*
X133450D02*
X136350D01*
X108750Y69800D02*
X110350D01*
X112350D02*
X114150D01*
X116250D02*
X127250D01*
X133450D02*
X136350D01*
X108850Y69900D02*
X110450D01*
X112350D02*
X114250D01*
X116250D02*
X127250D01*
X133450D02*
X136350D01*
X108850Y70000D02*
X110450D01*
X112350D02*
X114250D01*
X116250D02*
X119950D01*
X120350D02*
X127350D01*
X133450D02*
X136350D01*
X108850Y70100D02*
X110550D01*
X112450D02*
X114250D01*
X116150D02*
X119850D01*
X120750D02*
X127350D01*
X133450D02*
X136350D01*
X108950Y70200D02*
X110550D01*
X112450D02*
X114250D01*
X116150D02*
X119650D01*
X121150D02*
X127350D01*
X133450D02*
X136350D01*
X108950Y70300D02*
X110650D01*
X112450D02*
X114250D01*
X116150D02*
X119550D01*
X121550D02*
X127350D01*
X133450D02*
X136350D01*
X109050Y70400D02*
X110750D01*
X112450D02*
X114250D01*
X116150D02*
X119450D01*
X121950D02*
X127350D01*
X133450D02*
X136350D01*
X109150Y70500D02*
X110750D01*
X112450D02*
X114350D01*
X116150D02*
X119250D01*
X122350D02*
X127250D01*
X133450D02*
X136350D01*
X109150Y70600D02*
X110850D01*
X112450D02*
X114350D01*
X116050D02*
X119150D01*
X122750D02*
X127250D01*
X133450D02*
X136350D01*
X109250Y70700D02*
X110950D01*
X112550D02*
X114350D01*
X116050D02*
X118950D01*
X123150D02*
X127250D01*
X133450D02*
X136350D01*
X109350Y70800D02*
X111050D01*
X112550D02*
X114350D01*
X116050D02*
X118850D01*
X123550D02*
X127150D01*
X133450D02*
X136350D01*
X109350Y70900D02*
X111150D01*
X112550D02*
X114350D01*
X116050D02*
X118750D01*
X123850D02*
X127150D01*
X133550D02*
X136450D01*
X109450Y71000D02*
X111250D01*
X112550D02*
X114450D01*
X116050D02*
X118550D01*
X124250D02*
X127050D01*
X133550D02*
X136450D01*
X109550Y71100D02*
X111250D01*
X112650D02*
X114450D01*
X116150D02*
X118450D01*
X124650D02*
X126950D01*
X133550D02*
X136450D01*
X109550Y71200D02*
X111350D01*
X112650D02*
X114450D01*
X116150D02*
X118350D01*
X125050D02*
X126850D01*
X133550D02*
X136450D01*
X109650Y71300D02*
X111450D01*
X112650D02*
X114450D01*
X116150D02*
X118250D01*
X125450D02*
X126650D01*
X133550D02*
X136450D01*
X109750Y71400D02*
X111550D01*
X112650D02*
X114450D01*
X116150D02*
X118250D01*
X133550D02*
X136450D01*
X109850Y71500D02*
X111650D01*
X112650D02*
X114450D01*
X116150D02*
X118150D01*
X133550D02*
X136450D01*
X109950Y71600D02*
X111750D01*
X112750D02*
X114550D01*
X116150D02*
X118150D01*
X133550D02*
X136450D01*
X110050Y71700D02*
X111850D01*
X112750D02*
X114550D01*
X116250D02*
X118150D01*
X133550D02*
X136450D01*
X110050Y71800D02*
X111850D01*
X112750D02*
X114550D01*
X116250D02*
X118150D01*
X133550D02*
X136450D01*
X110150Y71900D02*
X111950D01*
X112750D02*
X114550D01*
X116250D02*
X118150D01*
X133550D02*
X136450D01*
X110250Y72000D02*
X112050D01*
X112850D02*
X114550D01*
X116350D02*
X118150D01*
X133550D02*
X136450D01*
X110350Y72100D02*
X112150D01*
X112850D02*
X114650D01*
X116350D02*
X118250D01*
X133550D02*
X136450D01*
X110450Y72200D02*
X112250D01*
X112850D02*
X114650D01*
X116350D02*
X118250D01*
X133550D02*
X136450D01*
X110550Y72300D02*
X112350D01*
X112950D02*
X114650D01*
X116450D02*
X118250D01*
X133550D02*
X136450D01*
X110550Y72400D02*
X112350D01*
X112950D02*
X114750D01*
X116450D02*
X118350D01*
X133550D02*
X136450D01*
X110650Y72500D02*
X112450D01*
X113050D02*
X114750D01*
X116550D02*
X118350D01*
X133650D02*
X136450D01*
X110750Y72600D02*
X112550D01*
X113050D02*
X114850D01*
X116550D02*
X118450D01*
X133650D02*
X136450D01*
X110850Y72700D02*
X112650D01*
X113150D02*
X114950D01*
X116650D02*
X118550D01*
X133650D02*
X136450D01*
X110950Y72800D02*
X112750D01*
X113250D02*
X115050D01*
X116650D02*
X118550D01*
X133650D02*
X136450D01*
X111050Y72900D02*
X112850D01*
X113250D02*
X115150D01*
X116750D02*
X118650D01*
X133650D02*
X136450D01*
X111150Y73000D02*
X112950D01*
X113350D02*
X115250D01*
X116750D02*
X118750D01*
X133650D02*
X136450D01*
X111250Y73100D02*
X113050D01*
X113350D02*
X115450D01*
X116850D02*
X118850D01*
X133650D02*
X136450D01*
X111250Y73200D02*
X113150D01*
X113450D02*
X115750D01*
X116950D02*
X118950D01*
X133650D02*
X136450D01*
X111350Y73300D02*
X113150D01*
X113550D02*
X116150D01*
X116950D02*
X119050D01*
X133650D02*
X136450D01*
X111450Y73400D02*
X113250D01*
X113650D02*
X116450D01*
X117050D02*
X119150D01*
X133650D02*
X136450D01*
X111550Y73500D02*
X113350D01*
X113750D02*
X116750D01*
X117150D02*
X119250D01*
X133650D02*
X136450D01*
X111650Y73600D02*
X113450D01*
X113850D02*
X119250D01*
X133650D02*
X136450D01*
X111750Y73700D02*
X113550D01*
X113950D02*
X119350D01*
X133650D02*
X136550D01*
X111750Y73800D02*
X113650D01*
X113950D02*
X119450D01*
X133650D02*
X136550D01*
X111850Y73900D02*
X113650D01*
X114150D02*
X119550D01*
X133650D02*
X136550D01*
X111950Y74000D02*
X113750D01*
X114250D02*
X119650D01*
X133650D02*
X136550D01*
X112050Y74100D02*
X113850D01*
X114350D02*
X119750D01*
X133650D02*
X136550D01*
X112150Y74200D02*
X113950D01*
X114450D02*
X119850D01*
X133650D02*
X136550D01*
X112250Y74300D02*
X114050D01*
X114550D02*
X119950D01*
X133750D02*
X136550D01*
X112350Y74400D02*
X114150D01*
X114650D02*
X119950D01*
X133750D02*
X136550D01*
X112350Y74500D02*
X114250D01*
X114850D02*
X120150D01*
X133750D02*
X136550D01*
X112450Y74600D02*
X114250D01*
X115050D02*
X120450D01*
X133750D02*
X136550D01*
X112550Y74700D02*
X114350D01*
X115150D02*
X120850D01*
X133750D02*
X136550D01*
X112650Y74800D02*
X114450D01*
X115350D02*
X121150D01*
X133750D02*
X136550D01*
X112750Y74900D02*
X114550D01*
X115650D02*
X121450D01*
X133750D02*
X136550D01*
X112850Y75000D02*
X114650D01*
X115850D02*
X121850D01*
X133750D02*
X136550D01*
X112950Y75100D02*
X114750D01*
X116150D02*
X122150D01*
X133750D02*
X136550D01*
X112950Y75200D02*
X114850D01*
X116450D02*
X122450D01*
X133750D02*
X136550D01*
X113050Y75300D02*
X114850D01*
X116750D02*
X122850D01*
X133750D02*
X136550D01*
X113150Y75400D02*
X114950D01*
X117050D02*
X123150D01*
X133750D02*
X136550D01*
X113250Y75500D02*
X115050D01*
X117450D02*
X123450D01*
X133750D02*
X136550D01*
X113350Y75600D02*
X115150D01*
X117650D02*
X123850D01*
X133750D02*
X136550D01*
X113450Y75700D02*
X115250D01*
X118050D02*
X124150D01*
X133750D02*
X136550D01*
X113550Y75800D02*
X115350D01*
X118350D02*
X124550D01*
X133750D02*
X136550D01*
X113550Y75900D02*
X115450D01*
X118650D02*
X124850D01*
X133750D02*
X136550D01*
X113650Y76000D02*
X115450D01*
X118950D02*
X125150D01*
X133750D02*
X136650D01*
X113750Y76100D02*
X115550D01*
X119350D02*
X125550D01*
X133850D02*
X136650D01*
X113850Y76200D02*
X115650D01*
X119450D02*
X125850D01*
X133850D02*
X136650D01*
X113950Y76300D02*
X115750D01*
X119550D02*
X126250D01*
X133850D02*
X136650D01*
X114050Y76400D02*
X115850D01*
X119650D02*
X126550D01*
X133850D02*
X136650D01*
X114150Y76500D02*
X115950D01*
X119750D02*
X126850D01*
X133850D02*
X136650D01*
X114150Y76600D02*
X116050D01*
X119850D02*
X127250D01*
X133850D02*
X136650D01*
X114250Y76700D02*
X116150D01*
X119950D02*
X127550D01*
X133850D02*
X136650D01*
X114350Y76800D02*
X116150D01*
X120050D02*
X127850D01*
X133850D02*
X136650D01*
X114450Y76900D02*
X116250D01*
X120150D02*
X128250D01*
X133850D02*
X136650D01*
X114550Y77000D02*
X116350D01*
X120250D02*
X128550D01*
X133850D02*
X136650D01*
X114650Y77100D02*
X116450D01*
X120250D02*
X128950D01*
X133850D02*
X136650D01*
X114750Y77200D02*
X116550D01*
X120350D02*
X122550D01*
X122850D02*
X129250D01*
X133850D02*
X136650D01*
X114750Y77300D02*
X116650D01*
X120450D02*
X122550D01*
X123150D02*
X129650D01*
X133850D02*
X136650D01*
X114850Y77400D02*
X116750D01*
X120550D02*
X122650D01*
X123450D02*
X129950D01*
X133850D02*
X136650D01*
X114950Y77500D02*
X116750D01*
X120650D02*
X122750D01*
X123750D02*
X130250D01*
X133850D02*
X136650D01*
X115050Y77600D02*
X116850D01*
X120750D02*
X122850D01*
X124150D02*
X130650D01*
X133850D02*
X136650D01*
X115150Y77700D02*
X116950D01*
X120850D02*
X122950D01*
X124450D02*
X130950D01*
X133850D02*
X136650D01*
X115250Y77800D02*
X117050D01*
X120950D02*
X123050D01*
X124750D02*
X131350D01*
X133850D02*
X136650D01*
X115250Y77900D02*
X117150D01*
X121050D02*
X123150D01*
X125050D02*
X131650D01*
X133850D02*
X136650D01*
X115350Y78000D02*
X117250D01*
X121050D02*
X123250D01*
X125450D02*
X132050D01*
X133750D02*
X136650D01*
X115450Y78100D02*
X117350D01*
X121150D02*
X123250D01*
X125750D02*
X132350D01*
X133650D02*
X136650D01*
X115550Y78200D02*
X117350D01*
X121250D02*
X123350D01*
X126050D02*
X132650D01*
X133450D02*
X136650D01*
X115650Y78300D02*
X117450D01*
X121350D02*
X123450D01*
X126350D02*
X136650D01*
X115750Y78400D02*
X117550D01*
X121450D02*
X123550D01*
X126650D02*
X136650D01*
X115850Y78500D02*
X117650D01*
X121550D02*
X123650D01*
X126950D02*
X136650D01*
X115950Y78600D02*
X117750D01*
X121650D02*
X123750D01*
X127250D02*
X136650D01*
X115950Y78700D02*
X117850D01*
X121750D02*
X123850D01*
X127550D02*
X136650D01*
X116050Y78800D02*
X117950D01*
X121750D02*
X123950D01*
X127950D02*
X136650D01*
X116150Y78900D02*
X117950D01*
X121850D02*
X124050D01*
X128250D02*
X136650D01*
X116250Y79000D02*
X118050D01*
X121950D02*
X124050D01*
X128550D02*
X136650D01*
X116350Y79100D02*
X118150D01*
X122050D02*
X124150D01*
X128850D02*
X136650D01*
X116450Y79200D02*
X118250D01*
X122150D02*
X124250D01*
X129250D02*
X136550D01*
X116550Y79300D02*
X118350D01*
X122250D02*
X124350D01*
X129550D02*
X136550D01*
X116550Y79400D02*
X118450D01*
X122350D02*
X124450D01*
X129850D02*
X136550D01*
X116650Y79500D02*
X118550D01*
X122450D02*
X124550D01*
X130250D02*
X136450D01*
X116750Y79600D02*
X118550D01*
X122550D02*
X124650D01*
X130550D02*
X136350D01*
X116850Y79700D02*
X118750D01*
X122650D02*
X124750D01*
X130850D02*
X136350D01*
X116950Y79800D02*
X119150D01*
X122650D02*
X124850D01*
X131150D02*
X136250D01*
X117050Y79900D02*
X119450D01*
X122750D02*
X124850D01*
X131450D02*
X136150D01*
X117150Y80000D02*
X119750D01*
X122850D02*
X124950D01*
X131850D02*
X136050D01*
X117150Y80100D02*
X119950D01*
X122950D02*
X125050D01*
X132150D02*
X135950D01*
X117250Y80200D02*
X120050D01*
X123050D02*
X125150D01*
X132450D02*
X135750D01*
X117350Y80300D02*
X120250D01*
X123150D02*
X125250D01*
X132750D02*
X135550D01*
X117450Y80400D02*
X120450D01*
X123250D02*
X125350D01*
X133150D02*
X135350D01*
X117450Y80500D02*
X120550D01*
X123350D02*
X125450D01*
X133550D02*
X134950D01*
X117450Y80600D02*
X120650D01*
X123450D02*
X125550D01*
X117450Y80700D02*
X120850D01*
X123450D02*
X125650D01*
X117450Y80800D02*
X120950D01*
X123550D02*
X125650D01*
X117450Y80900D02*
X121050D01*
X123650D02*
X125750D01*
X117450Y81000D02*
X121150D01*
X123750D02*
X125850D01*
X117450Y81100D02*
X121150D01*
X123850D02*
X125950D01*
X117450Y81200D02*
X121250D01*
X123950D02*
X126050D01*
X117450Y81300D02*
X121350D01*
X124050D02*
X126150D01*
X117550Y81400D02*
X121450D01*
X124050D02*
X126250D01*
X117550Y81500D02*
X121550D01*
X124150D02*
X126350D01*
X117550Y81600D02*
X121550D01*
X124250D02*
X126450D01*
X117650Y81700D02*
X121650D01*
X124350D02*
X126550D01*
X117650Y81800D02*
X121750D01*
X124450D02*
X126650D01*
X117750Y81900D02*
X121750D01*
X124550D02*
X126650D01*
X117750Y82000D02*
X121850D01*
X124650D02*
X126750D01*
X117850Y82100D02*
X121850D01*
X124750D02*
X126850D01*
X117850Y82200D02*
X121950D01*
X124850D02*
X126950D01*
X117950Y82300D02*
X121950D01*
X124850D02*
X127050D01*
X118050Y82400D02*
X122050D01*
X124950D02*
X127150D01*
X118150Y82500D02*
X122050D01*
X125050D02*
X127250D01*
X118150Y82600D02*
X122050D01*
X125150D02*
X127350D01*
X118250Y82700D02*
X122050D01*
X125250D02*
X127450D01*
X118350Y82800D02*
X122050D01*
X125350D02*
X127450D01*
X118450Y82900D02*
X122150D01*
X125450D02*
X127550D01*
X118550Y83000D02*
X122150D01*
X125550D02*
X127650D01*
X118650Y83100D02*
X122150D01*
X125650D02*
X127750D01*
X118750Y83200D02*
X122150D01*
X125650D02*
X127850D01*
X118950Y83300D02*
X122050D01*
X125750D02*
X128250D01*
X119050Y83400D02*
X122050D01*
X125850D02*
X128550D01*
X119250Y83500D02*
X122050D01*
X125950D02*
X128850D01*
X119350Y83600D02*
X121950D01*
X126050D02*
X129050D01*
X119550Y83700D02*
X121950D01*
X126150D02*
X129250D01*
X119750Y83800D02*
X121850D01*
X126250D02*
X129450D01*
X119950Y83900D02*
X121750D01*
X126250D02*
X129650D01*
X120250Y84000D02*
X121550D01*
X126350D02*
X129850D01*
X120750Y84100D02*
X121150D01*
X126250D02*
X129950D01*
X126250Y84200D02*
X130050D01*
X126250Y84300D02*
X130250D01*
X126250Y84400D02*
X130350D01*
X126250Y84500D02*
X130450D01*
X126250Y84600D02*
X130550D01*
X126250Y84700D02*
X130650D01*
X126250Y84800D02*
X130750D01*
X126350Y84900D02*
X130850D01*
X126350Y85000D02*
X130950D01*
X126350Y85100D02*
X131050D01*
X126450Y85200D02*
X131050D01*
X126450Y85300D02*
X131150D01*
X126450Y85400D02*
X131250D01*
X126550Y85500D02*
X131250D01*
X126550Y85600D02*
X131350D01*
X126650Y85700D02*
X131450D01*
X126750Y85800D02*
X131450D01*
X126750Y85900D02*
X131450D01*
X126850Y86000D02*
X131550D01*
X126950Y86100D02*
X131550D01*
X126950Y86200D02*
X131650D01*
X127050Y86300D02*
X131650D01*
X127150Y86400D02*
X131650D01*
X127250Y86500D02*
X131650D01*
X127350Y86600D02*
X131650D01*
X127450Y86700D02*
X131750D01*
X127550Y86800D02*
X131750D01*
X127650Y86900D02*
X131650D01*
X127850Y87000D02*
X131650D01*
X127950Y87100D02*
X131650D01*
X128050Y87200D02*
X131650D01*
X128250Y87300D02*
X131650D01*
X128350Y87400D02*
X131550D01*
X128550Y87500D02*
X131450D01*
X128750Y87600D02*
X131350D01*
X129050Y87700D02*
X131250D01*
X129250Y87800D02*
X131150D01*
X129650Y87900D02*
X130850D01*
X129950Y88000D02*
X130650D01*
D36*
X35726Y9774D02*
D03*
D37*
X147226Y9563D02*
D03*
D38*
X149250Y41500D02*
D03*
M02*
